<?xml version="1.0" standalone="no"?>
<!DOCTYPE svg PUBLIC "-//W3C//DTD SVG 1.1//EN" "http://www.w3.org/Graphics/SVG/1.1/DTD/svg11.dtd">
<svg xmlns="http://www.w3.org/2000/svg"><metadata>This SVG WebFont was generated by YouWorkForThem.
Copyright (c) 2015 by thmbnl. graphic design. All rights reserved</metadata><defs><font horiz-adv-x="0" id="ywftsvg"><font-face ascent="1638" bbox="-818.765 -500 2294 2046" cap-height="1516" descent="-410" font-family="" font-stretch="normal" font-weight="400" panose-1="0 0 5 0 0 0 0 0 0 0" underline-position="0" underline-thickness="0" unicode-range="U+0020-25CA" units-per-em="2048" x-height="1024"/><missing-glyph d="M788 1516v-1926h-610v1926h610zM641 1386h-317v-63h125v-72h-127v-63h319v63h-127v72h127v63zM514 1139h-192v-201h319v66h-127v135zM449 1073v-69h-64v69h64zM641 887h-319v-64h127v-71h-127v-64h192v135h127v64zM641 770h-63v-127h-256v-65h319v192zM641 537h-192v-109 h65v45h64v-92h-193v156h-63v-220h319v220zM641 203h-319v-217h319v217zM578 139v-90h-193v90h193zM641 -59h-319v-64h135l-135 -90v-63h319v63h-197l136 90h61v64z" horiz-adv-x="962"/><glyph d="M788 1516v-1926h-610v1926h610zM641 1386h-317v-63h125v-72h-127v-63h319v63h-127v72h127v63zM514 1139h-192v-201h319v66h-127v135zM449 1073v-69h-64v69h64zM641 887h-319v-64h127v-71h-127v-64h192v135h127v64zM641 770h-63v-127h-256v-65h319v192zM641 537h-192v-109 h65v45h64v-92h-193v156h-63v-220h319v220zM641 203h-319v-217h319v217zM578 139v-90h-193v90h193zM641 -59h-319v-64h135l-135 -90v-63h319v63h-197l136 90h61v64z" glyph-name=".notdef" horiz-adv-x="962"/><glyph glyph-name="glyph1"/><glyph glyph-name="glyph2" horiz-adv-x="681"/><glyph glyph-name="space" horiz-adv-x="610" unicode=" "/><glyph d="M158 324q-45 0 -45 45v1101q0 45 45 46h112q45 0 45 -46v-1101q0 -45 -45 -45h-112zM215 0q-49 0 -84 35t-35 86q0 49 35 83t84 34t84 -34t35 -83q0 -51 -36 -86t-83 -35z" glyph-name="exclam" horiz-adv-x="428" unicode="!"/><glyph d="M219 1133q-43 0 -49 41l-72 292q-12 49 39 50h84q41 0 49 -39l74 -293q6 -23 -5 -37t-34 -14h-86zM492 1133q-41 0 -52 41l-71 292q-12 49 39 50h84q43 0 51 -39l73 -293q10 -51 -38 -51h-86z" glyph-name="quotedbl" horiz-adv-x="704" unicode="&quot;"/><glyph d="M1409 1104q49 0 39 -51l-18 -86q-6 -41 -48 -41h-243l-62 -320h228q49 0 38 -51l-16 -86q-10 -41 -49 -41h-236l-73 -387q-6 -41 -47 -41h-93q-47 0 -41 49l72 379h-338l-76 -387q-6 -41 -47 -41h-88q-51 0 -41 49l74 379h-219q-49 0 -39 49l16 88q10 41 50 41h225 l59 320h-207q-47 0 -41 51l19 86q6 41 47 41h219l72 371q6 41 47 41h92q51 0 41 -50l-72 -362h338l76 371q6 41 47 41h86q47 0 41 -50l-70 -362h238zM895 606l63 320h-337l-64 -320h338z" glyph-name="numbersign" horiz-adv-x="1523" unicode="#"/><glyph d="M963 406q0 -160 -102.5 -278t-264.5 -140v-166q0 -45 -45 -45h-96q-45 0 -45 45v174q-150 33 -293 147q-33 25 -11 60l68 112q20 37 57 11q154 -119 285 -119q94 0 158.5 59.5t64.5 145.5q0 98 -82 165.5t-243 145.5q-150 72 -238 164t-82 243q4 141 92 244t224 137v162 q0 45 45 45h96q45 0 45 -45v-149q113 -14 223 -78q31 -23 12 -57l-61 -93q-23 -35 -57 -14q-90 53 -181 53q-94 0 -160.5 -60.5t-66.5 -150.5q0 -59 39 -108t83 -75t124 -62q61 -27 100 -47.5t105.5 -65.5t105.5 -90t70 -116.5t31 -153.5z" glyph-name="dollar" horiz-adv-x="1046" unicode="$"/><glyph d="M422 844q-139 0 -237.5 98t-98.5 237.5t98.5 239t237.5 99.5t239.5 -99.5t100.5 -239t-100.5 -237.5t-239.5 -98zM477 0h-104q-27 0 -36 15.5t3 37.5l752 1430q14 33 53 33h104q27 0 35 -15.5t-2 -38.5l-752 -1429q-14 -33 -53 -33zM422 1337q-66 0 -112 -46t-46 -111 q0 -63 47 -110.5t111 -47.5q68 0 115 47t47 111q0 66 -47 111.5t-115 45.5zM1198 -2q-139 0 -238.5 98.5t-99.5 237.5t99.5 237.5t238.5 98.5t239.5 -98.5t100.5 -237.5t-100.5 -237.5t-239.5 -98.5zM1198 492q-68 0 -114 -45.5t-46 -112.5q0 -66 47.5 -112t113 -46 t112.5 46t47 112q0 68 -46 113t-114 45z" glyph-name="percent" horiz-adv-x="1611" unicode="%"/><glyph d="M1143 678q43 -20 20 -60l-155 -323l127 -148q31 -37 -7 -63l-81 -72q-39 -27 -66 6l-86 103q-139 -139 -336 -139t-335 139t-138 338q0 117 52 218t147 167q-121 121 -121 286q0 164 115.5 281t279.5 117t279.5 -116t115.5 -279q0 -145 -94 -255t-233 -133l243 -284 l115 244q18 41 59 20zM559 1329q-80 0 -138.5 -59.5t-58.5 -139.5q0 -82 57.5 -140t139.5 -58t139.5 58.5t57.5 139.5q0 80 -58.5 139.5t-138.5 59.5zM559 180q123 0 205 92l-350 420q-61 -37 -96 -100.5t-35 -136.5q0 -117 81.5 -196t194.5 -79z" glyph-name="ampersand" horiz-adv-x="1259" unicode="&amp;"/><glyph d="M219 1133q-43 0 -49 41l-72 292q-12 49 39 50h84q41 0 49 -39l74 -293q6 -23 -5 -37t-34 -14h-86z" glyph-name="quotesingle" horiz-adv-x="432" unicode="'"/><glyph d="M518 -106l-88 -58q-39 -25 -63 12q-250 399 -250 816q0 463 256 831q25 37 63 12l78 -47q37 -23 14 -63q-225 -348 -225 -725q0 -197 54.5 -354.5t174.5 -362.5q23 -38 -14 -61z" glyph-name="parenleft" horiz-adv-x="630" unicode="("/><glyph d="M98 -45q121 205 175.5 362.5t54.5 354.5q0 377 -226 725q-23 41 15 63l78 47q39 25 63 -12q258 -371 258 -831q0 -414 -252 -816q-25 -37 -63 -12l-88 58q-38 22 -15 61z" glyph-name="parenright" horiz-adv-x="630" unicode=")"/><glyph d="M768 1153q33 0 33 -35v-71q0 -33 -33 -33h-160l113 -115q25 -25 0 -49l-51 -49q-23 -27 -47 0l-113 112v-161q0 -35 -33 -35h-74q-35 0 -34 35v161l-113 -112q-25 -25 -49 0l-49 49q-25 25 0 49l110 115h-159q-33 0 -33 33v71q0 35 33 35h159l-110 111q-25 25 0 49l49 53 q20 25 49 0l113 -115v160q0 35 34 35h74q33 0 33 -35v-160l113 115q23 27 49 0l49 -53q25 -20 0 -49l-113 -111h160z" glyph-name="asterisk" horiz-adv-x="876" unicode="*"/><glyph d="M1133 653q47 0 47 -45v-94q0 -47 -47 -47h-414v-424q0 -45 -45 -45h-96q-45 0 -46 45v424h-411q-45 0 -45 47v94q0 45 45 45h411v404q0 45 46 45h96q45 0 45 -45v-404h414z" glyph-name="plus" horiz-adv-x="1243" unicode="+"/><glyph d="M203 -152h-86q-51 0 -39 50l74 292q8 39 49 39h84q51 0 39 -49l-72 -293q-6 -39 -49 -39z" glyph-name="comma" horiz-adv-x="421" unicode=","/><glyph d="M653 510h-512q-45 0 -45 45v123q0 45 45 45h512q45 0 45 -45v-123q0 -45 -45 -45z" glyph-name="hyphen" horiz-adv-x="792" unicode="-"/><glyph d="M313 117q0 -47 -34.5 -82t-83.5 -35q-47 0 -83 35t-36 82q0 51 35.5 86t83.5 35q51 0 84.5 -35t33.5 -86z" glyph-name="period" horiz-adv-x="389" unicode="."/><glyph d="M74 53l553 1428q16 35 51 35h98q25 0 35 -15.5t0 -38.5l-555 -1427q-16 -35 -51 -35h-94q-25 0 -35 15t-2 38z" glyph-name="slash" horiz-adv-x="894" unicode="/"/><glyph d="M614.5 -12q-198.5 0 -342 142t-143.5 341v573q0 199 143.5 341.5t342 142.5t342 -142.5t143.5 -341.5v-573q0 -199 -143.5 -341t-342 -142zM336 1044v-573q0 -115 82 -196.5t196.5 -81.5t196.5 81.5t82 196.5v573q0 115 -82 197t-196.5 82t-196.5 -82t-82 -197z" glyph-name="zero" horiz-adv-x="1228" unicode="0"/><glyph d="M514 1516q45 0 45 -46v-1425q0 -45 -45 -45h-115q-47 0 -47 45v1292h-223q-41 0 -41 41v97q0 41 41 41h385z" glyph-name="one" horiz-adv-x="718" unicode="1"/><glyph d="M991 207q45 0 45 -45v-117q0 -45 -45 -45h-770q-45 0 -45 45v129q0 31 21 57l540 648q76 92 67 212.5t-97 192.5q-80 68 -195 54.5t-203 -109.5q-27 -37 -61 -6l-74 59q-37 27 -8 64q125 162 324.5 186t351 -102.5t164 -330.5t-112.5 -347l-455 -545h553z" glyph-name="two" horiz-adv-x="1163" unicode="2"/><glyph d="M842 848q96 -63 151.5 -163.5t55.5 -219.5q0 -197 -139.5 -337t-338.5 -140q-156 0 -283.5 92t-181.5 250q-12 41 29 57l107 41q39 14 57 -29q39 -94 109.5 -146t162.5 -52q113 0 192 77.5t79 188.5q0 113 -81 194.5t-196 81.5h-22q-41 0 -41 41v111q0 41 41 41h22 q82 0 138.5 57.5t56.5 139.5q0 80 -57.5 138t-137.5 58q-96 0 -164 -90q-27 -35 -57 -12l-86 55q-39 27 -16 61q121 184 331 185q164 0 279 -117t115 -281q0 -167 -125 -282z" glyph-name="three" horiz-adv-x="1187" unicode="3"/><glyph d="M1122 487q45 0 45 -45v-106q0 -45 -45 -45h-129v-246q0 -45 -45 -45h-114q-47 0 -48 45v246h-634q-45 0 -46 45v121q0 33 17 57l692 973q16 29 53 29h80q45 0 45 -46v-983h129zM336 487h450v637z" glyph-name="four" horiz-adv-x="1273" unicode="4"/><glyph d="M537 1020q213 0 363.5 -151.5t150.5 -362.5q0 -213 -153 -365.5t-363 -152.5q-229 0 -390 180q-31 33 7 65l90 74q31 27 63 -6q92 -102 232 -102q127 0 217 90t90 219q0 127 -90 218t-219 91q-88 0 -160 -47q-31 -18 -60 2l-104 78q-27 18 -23 53l86 570q8 43 50 43h565 q45 0 45 -46v-116q0 -45 -45 -45h-436l-45 -312q63 23 129 23z" glyph-name="five" horiz-adv-x="1171" unicode="5"/><glyph d="M662 1022q211 0 361.5 -152.5t150.5 -365.5t-151 -364.5t-364 -151.5t-364.5 151.5t-151.5 364.5q0 141 60 241l436 732q23 39 61 16l97 -57q39 -23 16 -62l-213 -356q42 4 62 4zM659 193q129 0 220.5 92t91.5 219q0 129 -91.5 221t-220.5 92q-131 0 -222 -93t-91 -220 t92 -219t221 -92z" glyph-name="six" horiz-adv-x="1269" unicode="6"/><glyph d="M868 1516q45 0 45 -46v-133q0 -25 -10 -55l-430 -1245q-12 -37 -51 -37h-129q-25 0 -35 14.5t-2 36.5l436 1258h-577q-47 0 -47 45v116q0 45 47 46h753z" glyph-name="seven" horiz-adv-x="989" unicode="7"/><glyph d="M868 852q96 -63 151.5 -166.5t55.5 -222.5q0 -197 -139 -336t-336 -139t-335 139t-138 336q0 119 54.5 222t150.5 167q-123 113 -123 283q0 164 114.5 278.5t278.5 114.5q162 0 277.5 -116t115.5 -277q0 -166 -127 -283zM600 1329q-80 0 -136 -57.5t-56 -137t56 -135 t136 -55.5t137.5 55.5t57.5 135t-57.5 137t-137.5 57.5zM602 186q113 0 194 82t81 195q0 115 -81 195.5t-194 80.5q-115 0 -196.5 -80.5t-81.5 -195.5t81.5 -196t196.5 -81z" glyph-name="eight" horiz-adv-x="1200" unicode="8"/><glyph d="M610 1532q213 0 364.5 -151.5t151.5 -366.5q0 -137 -57 -238l-430 -745q-18 -31 -53 -31h-140q-27 0 -36 15.5t6 39.5l258 447q-45 -4 -68 -4q-209 0 -359.5 152.5t-150.5 365.5t150.5 364.5t363.5 151.5zM610 702q131 0 222.5 94.5t91.5 221.5t-92.5 218t-221.5 91 t-220 -92t-91 -219q0 -129 91 -221.5t220 -92.5z" glyph-name="nine" horiz-adv-x="1202" unicode="9"/><glyph d="M313 905q0 -47 -35.5 -83t-82.5 -36q-49 0 -84 36t-35 83t34.5 83t84.5 36q47 0 82.5 -36t35.5 -83zM313 121q0 -49 -35.5 -85t-82.5 -36q-49 0 -84 36t-35 85t34.5 84t84.5 35q47 0 82.5 -35t35.5 -84z" glyph-name="colon" horiz-adv-x="378" unicode=":"/><glyph d="M231.5 786q-47.5 0 -83 36t-35.5 83t35.5 83t83 36t84 -36t36.5 -83t-36.5 -83t-84 -36zM127 -152q-51 0 -39 50l74 292q8 39 49 39h84q51 0 39 -49l-72 -293q-6 -39 -49 -39h-86z" glyph-name="semicolon" horiz-adv-x="436" unicode=";"/><glyph d="M846 -8l-711 422q-29 16 -29 53v88q0 35 29 55l711 420q20 12 34.5 4t14.5 -33v-131q0 -33 -29 -49l-530 -309l530 -309q29 -14 29 -49v-134q0 -25 -14.5 -32.5t-34.5 4.5z" glyph-name="less" horiz-adv-x="968" unicode="&lt;"/><glyph d="M1065 649h-913q-45 0 -46 47v95q0 45 46 45h913q45 0 45 -45v-95q0 -47 -45 -47zM1065 309h-913q-45 0 -46 45v97q0 45 46 45h913q45 0 45 -45v-97q0 -45 -45 -45z" glyph-name="equal" horiz-adv-x="1206" unicode="="/><glyph d="M76 20v134q0 35 26 49l531 309l-531 309q-27 18 -26 49v131q0 25 13 33t36 -4l709 -420q31 -20 30 -55v-88q0 -35 -30 -53l-709 -422q-23 -12 -36 -4.5t-13 32.5z" glyph-name="greater" horiz-adv-x="968" unicode=">"/><glyph d="M944 1075q0 -162 -101.5 -285.5t-254.5 -158.5v-262q0 -45 -45 -45h-117q-45 0 -45 45v411q0 45 45 45h61q104 0 177 74t73 182q0 119 -89 188.5t-201.5 54.5t-172.5 -116q-27 -35 -55 -18l-110 47q-45 20 -23 59q59 109 166.5 173.5t232.5 64.5q190 0 324.5 -135.5 t134.5 -323.5zM616 121q0 -49 -35.5 -85t-85 -36t-84 35t-34.5 86q0 49 34.5 84t84 35t85 -35t35.5 -84z" glyph-name="question" horiz-adv-x="1030" unicode="?"/><glyph d="M858 1528q317 0 542.5 -225.5t225.5 -548.5q0 -209 -88 -355.5t-250 -146.5q-102 0 -177 59.5t-95 132.5q-96 -70 -209 -69q-154 0 -264.5 109.5t-110.5 263t110.5 262t266.5 108.5q113 0 201 -61v6q0 43 41 43h82q45 0 45 -45v-529q4 -43 33.5 -74.5t74.5 -31.5 q72 0 109 82t41 186q18 166 -50.5 317.5t-210 248t-317.5 96.5q-248 0 -421 -175t-173 -423q0 -246 173 -420t417 -174q72 0 143 18q39 10 50 -30l20 -89q10 -47 -33 -55q-90 -20 -178 -20q-317 0 -543.5 227t-226.5 544.5t226.5 543t545.5 225.5zM805 551q80 0 138 57.5 t58 139.5q0 80 -57 137t-139 57q-80 0 -137.5 -57.5t-57.5 -136.5q0 -82 57.5 -139.5t137.5 -57.5z" glyph-name="at" horiz-adv-x="1710" unicode="@"/><glyph d="M1440 47q8 -20 -1 -33.5t-32 -13.5h-137q-37 0 -49 33l-101 254h-698l-103 -254q-12 -33 -47 -33h-139q-49 0 -33 47l572 1436q12 33 49 33h96q35 0 47 -33zM504 492h536l-268 675z" glyph-name="A" horiz-adv-x="1531" unicode="A"/><glyph d="M817 778q182 -131 182 -346q0 -180 -125.5 -306t-306.5 -126h-405q-45 0 -45 45v1425q0 45 45 46h358q180 0 306 -126t126 -303q0 -184 -135 -309zM317 1309v-447h199q92 0 158.5 65.5t66.5 158t-66.5 158t-158.5 65.5h-199zM563 207q92 0 158.5 65.5t66.5 157.5 t-66.5 158.5t-158.5 66.5h-246v-448h246z" glyph-name="B" horiz-adv-x="1085" unicode="B"/><glyph d="M848 -12q-319 0 -545.5 225t-226.5 545q0 317 225 543.5t539 226.5q279 0 512 -201q33 -29 6 -61l-66 -82q-29 -39 -63 -6q-182 145 -385 145q-231 0 -397 -166t-166 -399.5t165.5 -399t397.5 -165.5q209 0 385 143q35 29 63 -6l68 -90q25 -37 -8 -64 q-223 -188 -504 -188z" glyph-name="C" horiz-adv-x="1480" unicode="C"/><glyph d="M532 1516q313 0 535.5 -222.5t222.5 -536t-222 -535.5t-536 -222h-370q-45 0 -45 45v1425q0 45 45 46h370zM532 207q227 0 389 161.5t162 389t-161.5 389.5t-389.5 162h-210v-1102h210z" glyph-name="D" horiz-adv-x="1366" unicode="D"/><glyph d="M874 207q45 0 46 -45v-117q0 -45 -46 -45h-712q-45 0 -45 45v1425q0 45 45 46h712q45 0 46 -46v-116q0 -45 -46 -45h-552v-459h518q41 0 41 -41v-100q0 -41 -41 -41h-518v-461h552z" glyph-name="E" horiz-adv-x="1015" unicode="E"/><glyph d="M322 45q0 -45 -46 -45h-114q-45 0 -45 45v1425q0 45 45 46h678q45 0 45 -46v-116q0 -45 -45 -45h-518v-459h483q41 0 41 -41v-100q0 -41 -41 -41h-483v-623z" glyph-name="F" horiz-adv-x="940" unicode="F"/><glyph d="M1542 834q45 0 45 -46v-61q-12 -311 -229 -525t-522 -214q-319 0 -534.5 224t-215.5 544q0 317 226.5 544.5t541.5 227.5q264 0 502 -199q31 -31 4 -63l-66 -84q-27 -37 -63 -6q-184 147 -377 147q-231 0 -397 -166t-166 -401q0 -238 157.5 -400.5t387.5 -162.5 q203 0 351 131t181 327h-582q-41 0 -41 43v99q0 41 41 41h756z" glyph-name="G" horiz-adv-x="1683" unicode="G"/><glyph d="M905 1470q0 45 45 46h115q45 0 45 -46v-1425q0 -45 -45 -45h-115q-45 0 -45 45v623h-583v-623q0 -45 -46 -45h-114q-45 0 -45 45v1425q0 45 45 46h114q45 0 46 -46v-622h583v622z" glyph-name="H" horiz-adv-x="1214" unicode="H"/><glyph d="M117 45v1425q0 45 45 46h112q45 0 45 -46v-1425q0 -45 -45 -45h-112q-45 0 -45 45z" glyph-name="I" horiz-adv-x="425" unicode="I"/><glyph d="M412 1470q0 45 45 46h112q45 0 45 -46v-1103q0 -164 -100 -265.5t-264 -101.5h-119q-45 0 -45 45v115q0 45 45 45h117q68 0 115 47t47 113z" glyph-name="J" horiz-adv-x="731" unicode="J"/><glyph d="M1047 49q14 -20 5.5 -34.5t-32.5 -14.5h-154q-35 0 -51 29l-430 663l-63 -84v-563q0 -45 -46 -45h-114q-45 0 -45 45v1425q0 45 45 46h114q45 0 46 -46v-550l430 571q18 25 49 25h141q25 0 32 -14.5t-7 -35.5l-453 -602z" glyph-name="K" horiz-adv-x="1155" unicode="K"/><glyph d="M840 0h-678q-45 0 -45 45v1425q0 45 45 46h114q45 0 46 -46v-1263h518q45 0 45 -45v-117q0 -45 -45 -45z" glyph-name="L" horiz-adv-x="950" unicode="L"/><glyph d="M1567 1516q45 0 45 -46v-1425q0 -45 -45 -45h-117q-45 0 -45 45v989l-473 -958q-12 -25 -39 -25h-57q-27 0 -39 25l-475 958v-989q0 -45 -46 -45h-114q-45 0 -45 45v1425q0 45 45 46h90q31 0 47 -31l565 -1145l563 1145q14 31 48 31h92z" glyph-name="M" horiz-adv-x="1718" unicode="M"/><glyph d="M1069 1470q0 45 45 46h115q45 0 45 -46v-1425q0 -45 -45 -45h-82q-33 0 -49 25l-776 1108v-1088q0 -45 -46 -45h-114q-45 0 -45 45v1425q0 45 45 46h80q33 0 49 -25l778 -1110v1089z" glyph-name="N" horiz-adv-x="1380" unicode="N"/><glyph d="M856 1530q319 0 544.5 -226.5t225.5 -543.5q0 -319 -225 -545.5t-545 -226.5q-317 0 -543.5 226t-226.5 546q0 317 226.5 543.5t543.5 226.5zM856 1323q-233 0 -399 -166t-166 -397q0 -236 166 -401.5t399 -165.5q231 0 398 166.5t167 400.5q0 231 -167 397t-398 166z " glyph-name="O" horiz-adv-x="1712" unicode="O"/><glyph d="M569 1516q184 0 314.5 -129.5t130.5 -311.5t-130 -312t-315 -130h-247v-588q0 -45 -46 -45h-114q-45 0 -45 45v1425q0 45 45 46h407zM569 838q98 0 168 68.5t70 168.5q0 96 -69.5 165t-168.5 69h-247v-471h247z" glyph-name="P" horiz-adv-x="1067" unicode="P"/><glyph d="M1440 256l114 -115q31 -31 -2 -65l-61 -62q-33 -31 -66 2l-116 119q-201 -152 -453 -151q-317 0 -543.5 226t-226.5 545.5t226.5 545t543.5 225.5q319 0 544.5 -225.5t225.5 -544.5q0 -287 -186 -500zM856 190q168 0 303 95l-102 104q-31 35 0 66l59 59q31 33 64 0 l112 -113q129 154 129 355q0 233 -164.5 398t-400 165t-400.5 -165t-165 -398q0 -236 164.5 -401t400.5 -165z" glyph-name="Q" horiz-adv-x="1712" unicode="Q"/><glyph d="M1042 49q12 -20 4 -34.5t-32 -14.5h-144q-35 0 -49 29l-350 604h-149v-588q0 -45 -46 -45h-116q-45 0 -45 45v1425q0 45 45 46h409q182 0 311.5 -129.5t129.5 -311.5q0 -152 -91.5 -269.5t-232.5 -156.5zM322 1309v-469h247q96 0 166 68.5t70 166.5q0 96 -69.5 165 t-166.5 69h-247z" glyph-name="R" horiz-adv-x="1122" unicode="R"/><glyph d="M526 -16q-205 0 -405 155q-35 31 -15 64l64 106q23 35 59 10q156 -117 287 -116q94 0 158.5 59.5t64.5 145.5q0 92 -88 167q-53 45 -237 138q-154 76 -241 172t-79 245q8 178 136 290t311 108q147 -2 278 -82q33 -25 12 -57l-61 -91q-23 -33 -57 -14q-96 53 -181 53 q-92 0 -158.5 -62.5t-66.5 -152.5q0 -45 17.5 -79.5t60.5 -64.5t70.5 -45t95.5 -46q74 -33 129 -64.5t128 -91t114 -142.5t41 -183q0 -178 -124.5 -300t-312.5 -122z" glyph-name="S" horiz-adv-x="1040" unicode="S"/><glyph d="M940 1516q45 0 45 -46v-116q0 -45 -45 -45h-313v-1264q0 -45 -45 -45h-115q-45 0 -45 45v1264h-311q-45 0 -45 45v116q0 45 45 46h829z" glyph-name="T" horiz-adv-x="1038" unicode="T"/><glyph d="M585.5 -12q-198.5 0 -339 140t-140.5 339v1003q0 45 46 46h114q45 0 45 -46v-1003q0 -113 81 -192.5t193.5 -79.5t193.5 79.5t81 192.5v1003q0 45 45 46h115q47 0 47 -46v-1003q0 -199 -141.5 -339t-340 -140z" glyph-name="U" horiz-adv-x="1161" unicode="U"/><glyph d="M1290 1516q49 0 33 -48l-526 -1435q-10 -33 -47 -33h-84q-37 0 -48 33l-526 1435q-16 47 33 48h137q37 0 47 -33l398 -1102l399 1102q10 33 45 33h139z" glyph-name="V" horiz-adv-x="1404" unicode="V"/><glyph d="M1763 1516q23 0 32 -13.5t3 -34.5l-399 -1433q-8 -35 -47 -35h-90q-39 0 -45 35l-275 1030l-270 -1030q-10 -35 -47 -35h-90q-37 0 -46 35l-401 1433q-6 20 3 34t32 14h137q37 0 45 -35l291 -1035l270 1027q8 29 39 28h76q31 0 39 -28l270 -1027l291 1035q8 35 45 35h137 z" glyph-name="W" horiz-adv-x="1875" unicode="W"/><glyph d="M840 758l477 -709q14 -20 6 -34.5t-33 -14.5h-153q-33 0 -52 27l-372 553l-375 -553q-14 -27 -49 -27h-154q-25 0 -33 14.5t7 34.5l479 709l-479 708q-14 20 -5 35t33 15h152q33 0 49 -27l375 -551l372 551q20 27 52 27h151q27 0 35 -14.5t-6 -35.5z" glyph-name="X" horiz-adv-x="1415" unicode="X"/><glyph d="M1167 1516q25 0 33 -14.5t-4 -35.5l-444 -761v-660q0 -45 -45 -45h-113q-45 0 -45 45v660l-445 761q-12 20 -3.5 35t32.5 15h158q35 0 49 -29l309 -535l309 535q16 29 50 29h159z" glyph-name="Y" horiz-adv-x="1290" unicode="Y"/><glyph d="M1135 207q45 0 45 -45v-117q0 -45 -45 -45h-979q-45 0 -45 45v131q0 29 18 55l766 1092h-774q-45 0 -45 45v102q0 45 45 46h983q45 0 45 -46v-110q0 -29 -16 -55l-771 -1098h773z" glyph-name="Z" horiz-adv-x="1243" unicode="Z"/><glyph d="M463 -246h-301q-45 0 -45 45v1753q0 45 45 45h301q45 0 45 -45v-102q0 -45 -45 -45h-156v-1458h156q45 0 45 -45v-103q0 -45 -45 -45z" glyph-name="bracketleft" horiz-adv-x="591" unicode="["/><glyph d="M786 0h-96q-35 0 -51 35l-555 1427q-8 23 2 38.5t35 15.5h96q35 0 51 -35l553 -1428q10 -23 0 -38t-35 -15z" glyph-name="backslash" horiz-adv-x="894" unicode="\"/><glyph d="M86 -201v103q0 45 45 45h154v1458h-154q-45 0 -45 45v102q0 45 45 45h301q45 0 45 -45v-1753q0 -45 -45 -45h-301q-45 0 -45 45z" glyph-name="bracketright" horiz-adv-x="591" unicode="]"/><glyph d="M115 596l422 709q18 31 53 30h88q35 0 53 -30l420 -709q12 -23 5 -36t-34 -13h-129q-35 0 -49 28l-309 529l-309 -531q-14 -27 -50 -26h-133q-25 0 -32.5 13t4.5 36z" glyph-name="asciicircum" horiz-adv-x="1265" unicode="^"/><glyph d="M1061 -168h-950q-45 0 -45 45v78q0 45 45 45h950q45 0 45 -45v-78q0 -45 -45 -45z" glyph-name="underscore" horiz-adv-x="1171" unicode="_"/><glyph d="M332 1192l-330 176q-37 23 -16 62l41 75q25 41 63 21l324 -176q39 -20 20 -62l-41 -78q-20 -41 -61 -18z" glyph-name="grave" horiz-adv-x="538" unicode="`"/><glyph d="M1096 1024q45 0 45 -45v-934q0 -45 -45 -45h-88q-41 0 -41 41v86q-150 -143 -353 -143q-219 0 -373.5 155.5t-154.5 374.5q0 217 154.5 371.5t373.5 154.5q205 0 351 -141v84q0 41 43 41h88zM616 190q135 0 229.5 94.5t94.5 229.5q0 133 -94 227.5t-230 94.5 q-133 0 -227 -94.5t-94 -227.5q0 -135 94 -229.5t227 -94.5z" glyph-name="a" horiz-adv-x="1247" unicode="a"/><glyph d="M633 1040q219 0 373.5 -154.5t154.5 -373.5q0 -217 -154.5 -372.5t-373.5 -155.5q-203 0 -354 141v-84q0 -41 -41 -41h-86q-45 0 -46 45v1344q0 45 46 45h112q45 0 45 -45v-471q136 122 324 122zM631 193q133 0 227 94t94 225q0 133 -94 227.5t-227 94.5t-227.5 -94.5 t-94.5 -227.5q0 -131 94.5 -225t227.5 -94z" glyph-name="b" horiz-adv-x="1214" unicode="b"/><glyph d="M610 -16q-217 0 -370.5 154.5t-153.5 373.5t153.5 373.5t372.5 154.5q197 0 346 -133q33 -27 7 -63l-70 -82q-27 -37 -64 -6q-100 80 -219 80q-133 0 -227 -94.5t-94 -227.5t95 -228.5t226 -95.5q119 0 222 82q33 31 61 -4l70 -84q27 -37 -7 -63q-158 -137 -348 -137z " glyph-name="c" horiz-adv-x="1062" unicode="c"/><glyph d="M1065 1434q45 0 45 -45v-1344q0 -45 -45 -45h-88q-41 0 -41 41v84q-147 -141 -352 -141q-219 0 -374 154.5t-155 373.5t155 373.5t374 154.5q186 0 321 -122v471q0 45 45 45h115zM586 193q131 0 226 94t95 225q0 133 -95 227.5t-226 94.5q-133 0 -227.5 -94.5 t-94.5 -227.5t94.5 -226t227.5 -93z" glyph-name="d" horiz-adv-x="1214" unicode="d"/><glyph d="M1120 492q0 -45 -45 -46h-780q29 -121 120 -192.5t203 -71.5q141 0 275 107q35 29 61 -6l66 -80q29 -37 -4 -64q-172 -156 -400 -155q-229 0 -381.5 160.5t-152.5 381.5q0 219 150.5 366.5t367.5 147.5q215 0 360.5 -150t159.5 -398zM295 610h602q-18 106 -102 179 t-197 73q-111 0 -197 -69.5t-106 -182.5z" glyph-name="e" horiz-adv-x="1196" unicode="e"/><glyph d="M440 1241q-68 0 -114.5 -47t-46.5 -113v-57h282q43 0 43 -41v-96q0 -43 -43 -43h-282v-799q0 -45 -46 -45h-112q-45 0 -45 45v1030q0 164 103.5 261.5t260.5 97.5h119q45 0 45 -45v-101q0 -47 -45 -47h-119z" glyph-name="f" horiz-adv-x="667" unicode="f"/><glyph d="M1096 1024q45 0 45 -45v-862q0 -272 -138.5 -407.5t-332.5 -135.5q-133 0 -254 66q-37 20 -19 61l43 88q18 41 60 23q82 -39 157 -39q131 0 209 88t78 254q-143 -131 -330 -131q-219 0 -373.5 154.5t-154.5 373.5t154.5 373.5t373.5 154.5q203 0 351 -141v84q0 41 41 41 h90zM616.5 190q133.5 0 227.5 94.5t94 227.5t-94 228.5t-227.5 95.5t-227.5 -95.5t-94 -228.5t94 -227.5t227.5 -94.5z" glyph-name="g" horiz-adv-x="1247" unicode="g"/><glyph d="M551 1040q184 0 314 -130t130 -314v-551q0 -45 -45 -45h-116q-45 0 -46 45v551q0 98 -69.5 168t-167.5 70t-168 -70t-70 -168v-551q0 -45 -45 -45h-116q-45 0 -46 45v1344q0 45 46 45h116q45 0 45 -45v-431q105 82 238 82z" glyph-name="h" horiz-adv-x="1052" unicode="h"/><glyph d="M352 1237q0 -55 -34.5 -90t-92.5 -35q-51 0 -88 36t-37 89q0 49 38 87t87 38q55 0 91 -37t36 -88zM283 0h-115q-45 0 -45 45v934q0 45 45 45h115q45 0 45 -45v-934q0 -45 -45 -45z" glyph-name="i" horiz-adv-x="440" unicode="i"/><glyph d="M459 1239q0 -53 -36 -90t-89 -37t-90 36t-37 87q0 53 37 90t90 37q51 0 88 -37t37 -86zM436 53q0 -311 -268 -459q-39 -20 -64 17l-61 98q-23 37 18 62q170 115 170 282v926q0 45 45 45h115q45 0 45 -45v-926z" glyph-name="j" horiz-adv-x="557" unicode="j"/><glyph d="M891 49q14 -20 7 -34.5t-34 -14.5h-149q-33 0 -51 25l-293 413l-60 -67v-326q0 -45 -45 -45h-114q-45 0 -46 45v1344q0 45 46 45h114q45 0 45 -45v-742l310 354q20 23 51 23h147q27 0 34 -14.5t-11 -34.5l-342 -391z" glyph-name="k" horiz-adv-x="993" unicode="k"/><glyph d="M465 207q35 0 35 -45v-117q0 -45 -45 -45h-19q-330 0 -330 348v1041q0 45 46 45h114q45 0 45 -45v-1041q0 -70 35 -105.5t92 -35.5h27z" glyph-name="l" horiz-adv-x="550" unicode="l"/><glyph d="M1208 1040q178 0 306 -127t128 -307v-561q0 -45 -45 -45h-116q-45 0 -45 45v561q0 94 -66.5 162t-163 68t-163 -68t-66.5 -162v-561q0 -45 -45 -45h-115q-45 0 -45 45v561q0 94 -67.5 162t-163.5 68q-94 0 -162 -68t-68 -162v-561q0 -45 -45 -45h-114q-45 0 -46 45v934 q0 45 46 45h84q41 0 40 -41v-55q102 113 273 112q199 0 323 -161q129 161 336 161z" glyph-name="m" horiz-adv-x="1726" unicode="m"/><glyph d="M551 1040q178 0 302 -127t124 -307v-561q0 -45 -45 -45h-115q-45 0 -45 45v561q0 94 -67.5 162t-163.5 68q-94 0 -162 -68t-68 -162v-561q0 -45 -45 -45h-114q-45 0 -46 45v934q0 45 46 45h81q41 0 41 -41v-45q123 102 277 102z" glyph-name="n" horiz-adv-x="1062" unicode="n"/><glyph d="M604 1040q219 0 374 -155.5t155 -372.5t-155 -372.5t-374 -155.5t-373.5 155.5t-154.5 372.5t154.5 372.5t373.5 155.5zM604 834q-133 0 -228 -94.5t-95 -227.5t95 -227.5t228 -94.5t226.5 94.5t93.5 227.5t-93.5 227.5t-226.5 94.5z" glyph-name="o" horiz-adv-x="1206" unicode="o"/><glyph d="M633 1040q219 0 373.5 -155.5t154.5 -372.5q0 -219 -154.5 -373.5t-373.5 -154.5q-188 0 -324 122v-471q0 -45 -45 -45h-112q-45 0 -46 45v1344q0 45 46 45h86q41 0 41 -41v-84q151 141 354 141zM631 190q133 0 227 94.5t94 227.5q0 131 -94 225t-227 94t-227.5 -94 t-94.5 -225q0 -133 94.5 -227.5t227.5 -94.5z" glyph-name="p" horiz-adv-x="1214" unicode="p"/><glyph d="M1065 1024q45 0 45 -45v-1344q0 -45 -45 -45h-115q-45 0 -45 45v471q-135 -123 -321 -122q-219 0 -374 154.5t-155 373.5t155 373.5t374 154.5q205 0 352 -141v84q0 41 41 41h88zM586 190q131 0 226 94.5t95 227.5q0 131 -95 225t-226 94q-133 0 -227.5 -93t-94.5 -226 t94.5 -227.5t227.5 -94.5z" glyph-name="q" horiz-adv-x="1214" unicode="q"/><glyph d="M610 1024q45 0 45 -45v-107q0 -45 -45 -45h-69q-98 0 -164 -58t-66 -153v-571q0 -45 -45 -45h-114q-45 0 -46 45v934q0 45 46 45h81q41 0 41 -41v-43q88 84 242 84h94z" glyph-name="r" horiz-adv-x="710" unicode="r"/><glyph d="M692 911l-43 -73q-23 -37 -61 -15q-86 45 -162 45q-61 0 -104 -28.5t-43 -73.5q0 -33 28.5 -58.5t56 -38t95.5 -36.5q135 -47 221 -132t86 -204q0 -131 -100.5 -222t-253.5 -91q-150 0 -303 82q-37 20 -19 61l43 90q18 39 60 21q119 -57 213 -58q72 0 109.5 36t37.5 85 t-46 85t-159 79q-55 23 -88 39t-82 51t-73.5 86t-24.5 115q0 127 96 205.5t244 78.5q129 0 254 -69q41 -19 18 -60z" glyph-name="s" horiz-adv-x="833" unicode="s"/><glyph d="M598 207q45 0 45 -45v-117q0 -45 -45 -45h-131q-164 0 -262.5 98.5t-98.5 268.5v938q0 45 46 45h114q45 0 45 -45v-281h295q41 0 41 -41v-98q0 -41 -41 -41h-295v-479q0 -66 46 -112t114 -46h127z" glyph-name="t" horiz-adv-x="702" unicode="t"/><glyph d="M540.5 -16q-180.5 0 -307.5 127t-127 307v561q0 45 46 45h112q45 0 45 -45v-561q0 -94 68.5 -162t163 -68t162 68t67.5 162v561q0 45 45 45h115q45 0 45 -45v-561q0 -180 -127 -307t-307.5 -127z" glyph-name="u" horiz-adv-x="1060" unicode="u"/><glyph d="M590 0h-68q-37 0 -49 33l-385 944q-8 20 1 33.5t32 13.5h129q37 0 49 -33l258 -653l258 653q12 33 47 33h131q49 0 33 -47l-389 -944q-12 -33 -47 -33z" glyph-name="v" horiz-adv-x="1101" unicode="v"/><glyph d="M786 963q8 27 39 26h68q31 0 39 -26l244 -641l249 669q10 33 45 33h132q49 0 32 -47l-364 -944q-12 -33 -49 -33h-72q-35 0 -47 33l-242 643l-246 -643q-12 -33 -47 -33h-71q-35 0 -47 33l-369 944q-16 47 33 47h135q35 0 45 -33l250 -669z" glyph-name="w" horiz-adv-x="1703" unicode="w"/><glyph d="M1038 49q14 -20 7 -34.5t-33 -14.5h-150q-31 0 -49 25l-240 305l-235 -305q-16 -25 -49 -25h-152q-25 0 -32 14.5t8 34.5l352 463l-350 463q-14 20 -7 34.5t31 14.5h152q31 0 49 -27l233 -305l236 305q20 27 49 27h152q27 0 33 -14.5t-9 -34.5l-350 -463z" glyph-name="x" horiz-adv-x="1140" unicode="x"/><glyph d="M995 1024q49 0 33 -47l-418 -1014q-117 -285 -391 -379q-41 -12 -57 31l-37 98q-14 43 29 60q201 74 286 311l-366 893q-16 47 32 47h136q37 0 49 -33l260 -635l258 635q12 33 47 33h139z" glyph-name="y" horiz-adv-x="1132" unicode="y"/><glyph d="M860 205q45 0 45 -45v-115q0 -45 -45 -45h-735q-45 0 -45 45v127q0 33 22 57l545 613h-530q-41 0 -41 41v100q0 41 41 41h725q45 0 45 -45v-107q0 -33 -23 -57l-530 -610h526z" glyph-name="z" horiz-adv-x="970" unicode="z"/><glyph d="M715 -47q43 0 43 -45v-103q0 -45 -45 -45h-39q-143 0 -244.5 102.5t-101.5 246.5v327q0 66 -46 112t-110 46h-41q-45 0 -45 45v104q0 45 45 45h41q63 0 109.5 46.5t46.5 109.5v330q0 145 101 246.5t245 101.5h39q45 0 45 -45v-102q0 -45 -45 -45h-39q-63 0 -109.5 -46.5 t-46.5 -109.5v-330q0 -143 -110 -254q111 -104 110 -254v-327q0 -63 46 -109.5t110 -46.5h41z" glyph-name="braceleft" horiz-adv-x="821" unicode="{"/><glyph d="M117 -350v1820q0 45 45 46h86q45 0 45 -46v-1820q0 -45 -45 -45h-86q-45 0 -45 45z" glyph-name="bar" horiz-adv-x="409" unicode="|"/><glyph d="M66 -92q0 45 45 45h36q66 0 111 46t45 110v327q0 152 113 254q-113 109 -113 254v330q0 66 -45 111t-111 45h-36q-45 0 -45 45v102q0 45 45 45h36q145 0 246 -101.5t101 -246.5v-330q0 -63 46 -109.5t111 -46.5h41q45 0 45 -45v-104q0 -45 -45 -45h-41q-66 0 -111.5 -46 t-45.5 -112v-327q0 -143 -100.5 -246t-246.5 -103h-36q-45 0 -45 45v103z" glyph-name="braceright" horiz-adv-x="821" unicode="}"/><glyph d="M250 250l-105 41q-41 16 -30 57q70 256 276 342q76 33 151.5 37t149.5 -22.5t118 -49t112 -63.5q49 -29 83.5 -47.5t83 -35.5t82 -14t78.5 15q104 45 183 235q14 43 57 27l119 -47q43 -18 26 -55q-98 -299 -325 -379q-207 -74 -484 102q-51 33 -89 52.5t-90 39t-99 17.5 t-90 -27q-88 -51 -148 -201q-18 -42 -59 -24z" glyph-name="asciitilde" horiz-adv-x="1742" unicode="~"/><glyph d="M215 1516q47 0 83 -35t36 -86q0 -49 -35 -83t-84 -34t-84 34t-35 83q0 51 35 86t84 35zM113 1147q0 45 45 45h112q45 0 45 -45v-1102q0 -45 -45 -45h-112q-45 0 -45 45v1102z" glyph-name="exclamdown" horiz-adv-x="428" unicode="¡"/><glyph d="M965 184q27 -37 -4 -61q-123 -111 -273 -133v-183q0 -45 -45 -45h-84q-47 0 -47 45v185q-182 35 -304 181t-122 339t122 338t304 180v168q0 45 47 45h84q45 0 45 -45v-164q152 -20 270 -127q33 -27 7 -63l-70 -82q-27 -37 -64 -6q-68 53 -143 71v-626q80 20 146 71 q33 31 61 -4zM291 514q0 -104 62.5 -189t158.5 -118v612q-96 -33 -158.5 -117t-62.5 -188z" glyph-name="cent" horiz-adv-x="1067" unicode="¢"/><glyph d="M1116 504q45 0 45 -45v-88q0 -164 -111.5 -267.5t-277.5 -103.5h-625q-45 0 -45 45v109q0 45 45 45h254v288q0 88 -49 166h-211q-45 0 -45 45v86q0 45 45 45h82q-98 143 -98 281q0 176 120 296t306 120q276 0 436 -264q25 -37 -14 -62l-82 -51q-35 -20 -64 16 q-115 164 -278 162q-94 -2 -157.5 -64.5t-63.5 -156.5q0 -45 19.5 -93t40 -78t67.5 -95q6 -6 8 -11h424q47 0 47 -45v-86q0 -45 -47 -45h-316q31 -74 31 -161v-293h170q82 0 137.5 49t55.5 123v88q0 45 45 45h106z" glyph-name="sterling" horiz-adv-x="1236" unicode="£"/><glyph d="M1032 268l70 -71q33 -33 0 -66l-76 -74q-31 -29 -63 0l-70 70q-121 -86 -277 -86q-154 0 -278 86l-70 -70q-33 -29 -65 0l-76 74q-31 31 0 66l74 73q-76 123 -76 262q0 137 70 252l-68 68q-31 35 0 66l76 73q33 29 65 0l60 -61q129 94 288 94q158 0 287 -92l60 59 q33 29 63 0l76 -73q33 -33 0 -66l-66 -66q72 -117 72 -254q0 -141 -76 -264zM614 229q123 0 212 89.5t89 213.5q0 123 -89 212.5t-212 89.5q-125 0 -212 -88.5t-87 -213.5q0 -127 87 -215t212 -88z" glyph-name="currency" horiz-adv-x="1220" unicode="¤"/><glyph d="M1167 1516q25 0 33 -14.5t-4 -35.5l-334 -573h221q45 0 45 -45v-100q0 -47 -45 -48h-331v-120h331q45 0 45 -45v-101q0 -45 -45 -45h-331v-344q0 -45 -45 -45h-113q-45 0 -45 45v344h-330q-45 0 -45 45v101q0 45 45 45h330v120h-330q-45 0 -45 48v100q0 45 45 45h219 l-334 573q-12 20 -3.5 35t32.5 15h158q35 0 49 -29l309 -535l309 535q16 29 50 29h159z" glyph-name="yen" horiz-adv-x="1290" unicode="¥"/><glyph d="M750 246q145 -113 145 -301q0 -164 -114.5 -270.5t-286.5 -106.5q-190 0 -375 135q-33 27 -13 64l58 102q23 43 63 12q135 -94 250 -94q92 0 148.5 49t56.5 129q0 63 -40 111.5t-100.5 77t-130 66.5t-130 77t-100.5 110.5t-40 163.5q0 111 54.5 194t140.5 126 q-121 94 -121 258q0 162 121 274.5t285 110.5q135 0 247 -82q33 -27 11 -63l-54 -86q-25 -37 -63 -13q-68 41 -139 41q-80 0 -140.5 -50t-60.5 -132q0 -63 53 -109.5t129 -80t153 -73.5t130 -115t53 -181q0 -215 -190 -344zM575 362q72 23 118 86.5t46 131.5q0 78 -56 127 t-138 49q-84 0 -140.5 -50.5t-56.5 -125.5q0 -148 227 -218z" glyph-name="section" horiz-adv-x="1015" unicode="§"/><glyph d="M270 1259.5q0 -38.5 -26.5 -65.5t-65.5 -27t-65.5 27t-26.5 65.5t26.5 66.5t65.5 28t65.5 -28t26.5 -66.5zM555 1259.5q0 -38.5 -26.5 -65.5t-65.5 -27t-65.5 27t-26.5 65.5t26.5 66.5t65.5 28t65.5 -28t26.5 -66.5z" glyph-name="dieresis" horiz-adv-x="638" unicode="¨"/><glyph d="M858 -12q-322 0 -547 225t-225 547q0 317 225.5 542.5t546.5 225.5q317 0 542.5 -225.5t225.5 -542.5q0 -319 -225.5 -545.5t-542.5 -226.5zM858 168q244 0 416 172t172 420q0 246 -171 417t-417 171q-248 0 -420 -172t-172 -416q0 -246 173 -419t419 -173zM864 375 q-162 0 -275.5 114.5t-113.5 276.5t113.5 276.5t275.5 114.5q147 0 262 -102q23 -20 0 -47l-69 -82q-20 -25 -49 -2q-66 53 -142 53q-86 0 -147.5 -61.5t-61.5 -147.5t61.5 -147.5t147.5 -61.5q80 0 146 57q27 23 47 -4l69 -82q23 -27 -2 -49q-121 -106 -262 -106z" glyph-name="copyright" horiz-adv-x="1710" unicode="©"/><glyph d="M614 186l-69 -67q-33 -33 -66 2l-362 364q-31 33 0 64l362 360q31 31 64 2l69 -65q33 -33 2 -64l-266 -266l268 -266q31 -31 -2 -64zM965 186l-70 -67q-33 -33 -66 2l-362 364q-31 33 0 64l362 360q31 31 64 2l70 -65q33 -33 2 -64l-267 -266l269 -266q31 -31 -2 -64z " glyph-name="guillemotleft" horiz-adv-x="1073" unicode="«"/><glyph d="M938 340v319h-827q-45 0 -45 46v108q0 45 45 45h981q45 0 45 -45v-473q0 -45 -45 -45h-109q-45 0 -45 45z" glyph-name="logicalnot" horiz-adv-x="1243" unicode="¬"/><glyph d="M858 1528q317 0 542.5 -225.5t225.5 -545t-225 -544.5t-543 -225q-322 0 -547 225t-225 544.5t225 545t547 225.5zM858 162q244 0 420 175t176 421t-175 421t-421 175q-250 0 -425 -174t-175 -422q0 -246 177 -421t423 -175zM958 719l175 -295q8 -14 1.5 -24.5 t-24.5 -10.5h-102q-29 0 -37 21l-164 286h-41v-274q0 -33 -35 -33h-80q-35 0 -35 33v715q0 35 35 34h209q98 0 168 -69.5t70 -167.5q0 -72 -38.5 -129t-101.5 -86zM766 1022v-178h94q37 0 62.5 25.5t25.5 64.5q0 37 -25.5 62.5t-62.5 25.5h-94z" glyph-name="registered" horiz-adv-x="1712" unicode="®"/><glyph d="M592 1167h-465q-41 0 -41 41v95q0 41 41 40h465q41 0 41 -40v-95q0 -41 -41 -41z" glyph-name="macron" horiz-adv-x="718" unicode="¯"/><glyph d="M379 1516q121 0 206 -85t85 -206q0 -123 -85 -208t-206 -85t-207 85t-86 208q0 121 86 206t207 85zM379 1354q-53 0 -92 -39t-39 -90q0 -53 39 -92t92 -39t91 38.5t38 92.5q0 51 -39 90t-90 39z" glyph-name="degree" horiz-adv-x="755" unicode="°"/><glyph d="M1051 881q45 0 45 -45v-99q0 -47 -45 -47h-373v-305q0 -45 -45 -45h-96q-45 0 -45 45v305h-371q-45 0 -45 47v99q0 45 45 45h371v284q0 45 45 45h96q45 0 45 -45v-284h373zM1051 0h-930q-45 0 -45 45v98q0 45 45 45h930q45 0 45 -45v-98q0 -45 -45 -45z" glyph-name="plusminus" horiz-adv-x="1161" unicode="±"/><glyph d="M164 592q-35 0 -35 35v98q0 29 14 45l306 356q43 49 39.5 114t-52.5 103q-41 33 -100.5 28t-102.5 -52q-23 -23 -49 -4l-51 43q-31 20 -8 47q80 96 202 109.5t210 -62.5q94 -78 101 -206t-73 -218l-239 -278h292q33 0 33 -33v-90q0 -35 -33 -35h-454z" glyph-name="uni00B2" horiz-adv-x="737" unicode="²"/><glyph d="M551 1112q106 -84 106 -219q0 -119 -84 -205t-204 -86q-96 0 -175 58.5t-110 154.5q-10 31 22 43l76 29q31 8 45 -21q47 -104 142 -104q57 0 96 38t39 95t-40 98t-99 41h-15q-29 0 -28 31v84q0 31 28 31h17q39 0 65.5 27.5t26.5 66.5q0 37 -26.5 64.5t-65.5 27.5 q-41 0 -72 -35q-25 -20 -45 -6l-62 39q-31 20 -10 47q72 104 197 105q102 0 170.5 -72t68.5 -172q0 -92 -63 -160z" glyph-name="uni00B3" horiz-adv-x="763" unicode="³"/><glyph d="M145 1210l-39 78q-20 39 19 62l326 176q41 23 61 -21l43 -75q20 -39 -18 -62l-330 -176q-37 -23 -62 18z" glyph-name="acute" horiz-adv-x="538" unicode="´"/><glyph d="M909 1516q47 0 47 -46v-1669q0 -45 -47 -45h-86q-47 0 -47 45v1551h-121v-1551q0 -45 -45 -45h-88q-45 0 -45 45v807q-178 20 -294.5 148.5t-116.5 304.5q0 186 130 320.5t310 134.5h403z" glyph-name="paragraph" horiz-adv-x="1071" unicode="¶"/><glyph d="M309 -500q-82 0 -144.5 50.5t-76.5 130.5q-6 39 37 38h70q23 0 38 -28q20 -49 76 -49q35 0 59.5 23.5t24.5 58t-24.5 58t-59.5 23.5h-35q-37 0 -36 39v181h145v-86q68 -25 111 -84.5t43 -130.5q0 -94 -67 -159t-161 -65z" glyph-name="cedilla" horiz-adv-x="620" unicode="¸"/><glyph d="M246 602q-35 0 -35 35v743h-125q-31 0 -31 31v74q0 31 31 31h248q35 0 35 -35v-844q0 -35 -35 -35h-88z" glyph-name="uni00B9" horiz-adv-x="483" unicode="¹"/><glyph d="M106 250l269 266l-266 266q-33 33 2 64l69 65q33 29 64 -2l362 -360q31 -31 0 -64l-362 -364q-33 -35 -66 -2l-69 67q-34 33 -3 64zM457 250l268 266l-266 266q-33 33 2 64l69 65q33 29 64 -2l362 -360q31 -31 0 -64l-362 -364q-33 -35 -66 -2l-69 67q-33 33 -2 64z" glyph-name="guillemotright" horiz-adv-x="1073" unicode="»"/><glyph d="M307 602q-35 0 -35 35v743h-125q-31 0 -30 31v74q0 31 30 31h248q35 0 35 -35v-844q0 -35 -35 -35h-88zM272 0q-27 0 -36 16.5t6 38.5l880 1430q16 31 54 31h108q27 0 36 -16.5t-5 -39.5l-881 -1429q-16 -31 -53 -31h-109zM1247 0q-35 0 -35 35v135h-356q-35 0 -35 35v88 q0 18 15 43l395 555q16 23 43 22h59q35 0 35 -34v-564h66q33 0 32 -32v-78q0 -35 -34 -35h-64v-135q0 -35 -35 -35h-86zM991 315h221v312z" glyph-name="onequarter" horiz-adv-x="1583" unicode="¼"/><glyph d="M307 602q-35 0 -35 35v743h-125q-31 0 -30 31v74q0 31 30 31h248q35 0 35 -35v-844q0 -35 -35 -35h-88zM272 0q-27 0 -36 16.5t6 38.5l880 1430q16 31 54 31h108q27 0 36 -16.5t-5 -39.5l-881 -1429q-16 -31 -53 -31h-109zM1116 0q-35 0 -35 35l-2 98q0 25 17 45l305 357 q43 49 39 112.5t-56 102.5q-41 33 -97 26.5t-101 -51.5q-23 -27 -47 -4l-56 45q-29 20 -6 47q80 96 199 109.5t213 -62.5q94 -80 101 -206t-74 -218l-238 -278h291q35 0 35 -33v-90q0 -35 -35 -35h-453z" glyph-name="onehalf" horiz-adv-x="1738" unicode="½"/><glyph d="M551 1112q106 -84 106 -219q0 -119 -84 -205t-204 -86q-96 0 -175 58.5t-110 154.5q-10 31 22 43l76 29q31 8 45 -21q47 -104 142 -104q57 0 96 38t39 95t-40 98t-99 41h-15q-29 0 -28 31v84q0 31 28 31h17q39 0 65.5 27.5t26.5 66.5q0 37 -26.5 64.5t-65.5 27.5 q-41 0 -72 -35q-25 -20 -45 -6l-62 39q-31 20 -10 47q72 104 197 105q102 0 170.5 -72t68.5 -172q0 -92 -63 -160zM416 0q-27 0 -35 16.5t6 38.5l879 1430q16 31 55 31h109q27 0 36 -16.5t-6 -39.5l-880 -1429q-16 -31 -54 -31h-110zM1393 0q-35 0 -35 35v135h-357 q-35 0 -34 35v88q0 23 14 43l395 555q16 23 41 22h62q35 0 34 -34v-564h64q35 0 35 -32v-78q0 -35 -35 -35h-64v-135q0 -35 -34 -35h-86zM1137 315h221v312z" glyph-name="threequarters" horiz-adv-x="1716" unicode="¾"/><glyph d="M414 1395q0 51 35.5 86t85 35t84 -35t34.5 -86q0 -49 -34.5 -84t-84 -35t-85 35t-35.5 84zM86 440q0 162 101.5 286t254.5 159v262q0 45 45 45h115q45 0 45 -45v-412q0 -45 -45 -45h-59q-104 0 -177 -73.5t-73 -182.5q0 -119 89 -188.5t201.5 -54t172.5 115.5 q25 35 55 19l111 -47q43 -20 22 -60q-59 -109 -166.5 -173t-234.5 -64q-188 0 -322.5 135t-134.5 323z" glyph-name="questiondown" horiz-adv-x="1030" unicode="¿"/><glyph d="M825 1651l-329 174q-39 23 -19 61l43 76q25 41 64 20l323 -176q39 -20 21 -59l-41 -78q-23 -43 -62 -18zM1440 47q8 -20 -1 -33.5t-32 -13.5h-137q-37 0 -49 33l-101 254h-698l-103 -254q-12 -33 -47 -33h-139q-49 0 -33 47l572 1436q12 33 49 33h96q35 0 47 -33z M504 492h536l-268 675z" glyph-name="Agrave" horiz-adv-x="1531" unicode="À"/><glyph d="M639 1669l-41 78q-20 37 18 59l326 176q41 23 62 -20l43 -76q23 -39 -19 -61l-330 -174q-39 -27 -59 18zM1440 47q8 -20 -1 -33.5t-32 -13.5h-137q-37 0 -49 33l-101 254h-698l-103 -254q-12 -33 -47 -33h-139q-49 0 -33 47l572 1436q12 33 49 33h96q35 0 47 -33z M504 492h536l-268 675z" glyph-name="Aacute" horiz-adv-x="1531" unicode="Á"/><glyph d="M1042 1624h-127q-33 0 -53 25l-100 118l-98 -118q-18 -25 -52 -25h-120q-27 0 -34 15.5t9 35.5l213 236q16 20 47 20h80q31 0 45 -20l213 -236q16 -20 10 -35.5t-33 -15.5zM1440 47q8 -20 -1 -33.5t-32 -13.5h-137q-37 0 -49 33l-101 254h-698l-103 -254q-12 -33 -47 -33 h-139q-49 0 -33 47l572 1436q12 33 49 33h96q35 0 47 -33zM504 492h536l-268 675z" glyph-name="Acircumflex" horiz-adv-x="1531" unicode="Â"/><glyph d="M530 1647l-75 51q-37 23 -11 59q78 92 189 92q45 0 110.5 -27.5t96.5 -27.5q51 0 90 43q27 33 57 10l80 -49q37 -25 8 -59q-92 -109 -217 -109q-57 0 -117.5 28t-83.5 28q-37 0 -69 -29q-31 -28 -58 -10zM1440 47q8 -20 -1 -33.5t-32 -13.5h-137q-37 0 -49 33l-101 254 h-698l-103 -254q-12 -33 -47 -33h-139q-49 0 -33 47l572 1436q12 33 49 33h96q35 0 47 -33zM504 492h536l-268 675z" glyph-name="Atilde" horiz-adv-x="1531" unicode="Ã"/><glyph d="M719 1716q0 -37 -27.5 -64.5t-66.5 -27.5t-66 27.5t-27 64.5q0 39 27 66.5t66 27.5t66.5 -27.5t27.5 -66.5zM1001 1716q0 -37 -26.5 -64.5t-65.5 -27.5t-65.5 27.5t-26.5 64.5q0 39 26.5 66.5t65.5 27.5t65.5 -27.5t26.5 -66.5zM1440 47q8 -20 -1 -33.5t-32 -13.5h-137 q-37 0 -49 33l-101 254h-698l-103 -254q-12 -33 -47 -33h-139q-49 0 -33 47l572 1436q12 33 49 33h96q35 0 47 -33zM504 492h536l-268 675z" glyph-name="Adieresis" horiz-adv-x="1531" unicode="Ä"/><glyph d="M768 2046q88 0 149.5 -61.5t61.5 -149.5q0 -86 -61.5 -148.5t-149.5 -62.5t-149.5 62.5t-61.5 148.5q0 88 61.5 149.5t149.5 61.5zM768 1923q-35 0 -61.5 -25.5t-26.5 -62.5t25.5 -61.5t62.5 -24.5t62.5 24.5t25.5 61.5t-25.5 62.5t-62.5 25.5zM1440 47q8 -20 -1 -33.5 t-32 -13.5h-137q-37 0 -49 33l-101 254h-698l-103 -254q-12 -33 -47 -33h-139q-49 0 -33 47l572 1436q12 33 49 33h96q35 0 47 -33zM504 492h536l-268 675z" glyph-name="Aring" horiz-adv-x="1531" unicode="Å"/><glyph d="M1581 207q45 0 45 -45v-117q0 -45 -45 -45h-674q-45 0 -45 45v244h-416l-110 -258q-16 -31 -47 -31h-146q-23 0 -30 14.5t2 34.5l633 1436q12 31 47 31h786q45 0 45 -46v-116q0 -45 -45 -45h-516v-461h483q41 0 41 -41v-98q0 -41 -41 -41h-483v-461h516zM862 494v759 l-338 -759h338z" glyph-name="AE" horiz-adv-x="1714" unicode="Æ"/><glyph d="M1360 240q25 -37 -8 -64q-215 -180 -478 -188v-49q68 -25 111 -83.5t43 -131.5q0 -94 -65.5 -159t-159.5 -65q-82 0 -144.5 50.5t-76.5 130.5q-6 39 36 38h70q23 0 39 -28q20 -49 76 -49q33 0 57.5 23.5t24.5 58t-23.5 58t-58.5 23.5h-35q-37 0 -37 39v152 q-281 43 -468 259t-187 503q0 317 225 543.5t539 226.5q279 0 512 -201q33 -29 6 -61l-66 -82q-29 -39 -63 -6q-182 145 -385 145q-231 0 -397 -166t-166 -399.5t165.5 -399t397.5 -165.5q209 0 385 143q35 29 63 -6z" glyph-name="Ccedilla" horiz-adv-x="1480" unicode="Ç"/><glyph d="M582 1651l-330 174q-39 23 -19 61l43 76q25 41 64 20l324 -176q39 -20 20 -59l-41 -78q-22 -43 -61 -18zM874 207q45 0 46 -45v-117q0 -45 -46 -45h-712q-45 0 -45 45v1425q0 45 45 46h712q45 0 46 -46v-116q0 -45 -46 -45h-552v-459h518q41 0 41 -41v-100q0 -41 -41 -41 h-518v-461h552z" glyph-name="Egrave" horiz-adv-x="1015" unicode="È"/><glyph d="M393 1669l-39 78q-20 37 19 59l325 176q41 23 62 -20l43 -76q20 -39 -19 -61l-329 -174q-39 -25 -62 18zM874 207q45 0 46 -45v-117q0 -45 -46 -45h-712q-45 0 -45 45v1425q0 45 45 46h712q45 0 46 -46v-116q0 -45 -46 -45h-552v-459h518q41 0 41 -41v-100q0 -41 -41 -41 h-518v-461h552z" glyph-name="Eacute" horiz-adv-x="1015" unicode="É"/><glyph d="M797 1624h-127q-31 0 -52 25l-100 118l-98 -118q-18 -25 -51 -25h-121q-27 0 -34 15.5t9 35.5l213 236q14 20 47 20h80q31 0 45 -20l213 -236q16 -20 9.5 -35.5t-33.5 -15.5zM874 207q45 0 46 -45v-117q0 -45 -46 -45h-712q-45 0 -45 45v1425q0 45 45 46h712q45 0 46 -46 v-116q0 -45 -46 -45h-552v-459h518q41 0 41 -41v-100q0 -41 -41 -41h-518v-461h552z" glyph-name="Ecircumflex" horiz-adv-x="1015" unicode="Ê"/><glyph d="M475 1716q0 -37 -27.5 -64.5t-66.5 -27.5t-65.5 27.5t-26.5 64.5q0 39 26.5 66.5t65.5 27.5t66.5 -27.5t27.5 -66.5zM758 1716q0 -37 -26.5 -64.5t-65.5 -27.5t-66 27.5t-27 64.5q0 39 27 66.5t66 27.5t65.5 -27.5t26.5 -66.5zM874 207q45 0 46 -45v-117q0 -45 -46 -45 h-712q-45 0 -45 45v1425q0 45 45 46h712q45 0 46 -46v-116q0 -45 -46 -45h-552v-459h518q41 0 41 -41v-100q0 -41 -41 -41h-518v-461h552z" glyph-name="Edieresis" horiz-adv-x="1015" unicode="Ë"/><glyph d="M272 1638l-327 177q-39 20 -19 61l43 76q23 43 62 20l325 -176q37 -23 19 -61l-41 -78q-21 -42 -62 -19zM117 45v1425q0 45 45 46h112q45 0 45 -46v-1425q0 -45 -45 -45h-112q-45 0 -45 45z" glyph-name="Igrave" horiz-adv-x="425" unicode="Ì"/><glyph d="M86 1657l-41 78q-18 41 21 61l323 176q39 20 64 -20l41 -76q23 -39 -17 -61l-330 -177q-41 -22 -61 19zM117 45v1425q0 45 45 46h112q45 0 45 -46v-1425q0 -45 -45 -45h-112q-45 0 -45 45z" glyph-name="Iacute" horiz-adv-x="425" unicode="Í"/><glyph d="M489 1614h-127q-31 0 -51 24l-100 117l-100 -119q-16 -23 -52 -22h-120q-27 0 -34 15.5t11 35.5l213 236q18 20 45 20h80q29 0 47 -20l211 -236q18 -20 11 -35.5t-34 -15.5zM117 45v1425q0 45 45 46h112q45 0 45 -46v-1425q0 -45 -45 -45h-112q-45 0 -45 45z" glyph-name="Icircumflex" horiz-adv-x="425" unicode="Î"/><glyph d="M166 1706q0 -39 -27.5 -65.5t-66.5 -26.5t-65.5 26.5t-26.5 65.5t26.5 66.5t65.5 27.5t66.5 -27.5t27.5 -66.5zM449 1706q0 -39 -27 -65.5t-66 -26.5t-65.5 26.5t-26.5 65.5t26.5 66.5t65.5 27.5t66 -27.5t27 -66.5zM117 45v1425q0 45 45 46h112q45 0 45 -46v-1425 q0 -45 -45 -45h-112q-45 0 -45 45z" glyph-name="Idieresis" horiz-adv-x="425" unicode="Ï"/><glyph d="M674 1516q313 0 535.5 -222.5t222.5 -536t-222.5 -535.5t-535.5 -222h-371q-47 0 -47 45v631h-147q-41 0 -41 41v108q0 43 41 43h147v602q0 45 47 46h371zM674 207q227 0 389 161.5t162 389t-162 389.5t-389 162h-211v-441h166q41 0 41 -43v-108q0 -41 -41 -41h-166v-469 h211z" glyph-name="Eth" horiz-adv-x="1507" unicode="Ð"/><glyph d="M432 1647l-76 51q-37 25 -8 59q78 92 189 92q43 0 108.5 -27.5t97.5 -27.5q51 0 88 43q29 31 58 10l80 -49q39 -25 10 -59q-92 -109 -219 -109q-57 0 -117.5 28t-83.5 28q-35 0 -70 -29q-28 -28 -57 -10zM1069 1470q0 45 45 46h115q45 0 45 -46v-1425q0 -45 -45 -45h-82 q-33 0 -49 25l-776 1108v-1088q0 -45 -46 -45h-114q-45 0 -45 45v1425q0 45 45 46h80q33 0 49 -25l778 -1110v1089z" glyph-name="Ntilde" horiz-adv-x="1380" unicode="Ñ"/><glyph d="M909 1651l-329 174q-39 23 -19 61l43 76q23 43 62 20l325 -176q39 -23 19 -59l-39 -78q-23 -43 -62 -18zM856 1530q319 0 544.5 -226.5t225.5 -543.5q0 -319 -225 -545.5t-545 -226.5q-317 0 -543.5 226t-226.5 546q0 317 226.5 543.5t543.5 226.5zM856 1323 q-233 0 -399 -166t-166 -397q0 -236 166 -401.5t399 -165.5q231 0 398 166.5t167 400.5q0 231 -167 397t-398 166z" glyph-name="Ograve" horiz-adv-x="1712" unicode="Ò"/><glyph d="M721 1669l-39 78q-20 37 18 59l324 176q43 20 63 -20l43 -76q20 -39 -18 -61l-330 -174q-38 -25 -61 18zM856 1530q319 0 544.5 -226.5t225.5 -543.5q0 -319 -225 -545.5t-545 -226.5q-317 0 -543.5 226t-226.5 546q0 317 226.5 543.5t543.5 226.5zM856 1323 q-233 0 -399 -166t-166 -397q0 -236 166 -401.5t399 -165.5q231 0 398 166.5t167 400.5q0 231 -167 397t-398 166z" glyph-name="Oacute" horiz-adv-x="1712" unicode="Ó"/><glyph d="M1124 1624h-127q-31 0 -51 25l-100 118l-98 -118q-18 -25 -52 -25h-121q-27 0 -33.5 15.5t9.5 35.5l213 236q14 20 45 20h80q33 0 47 -20l213 -236q16 -20 9 -35.5t-34 -15.5zM856 1530q319 0 544.5 -226.5t225.5 -543.5q0 -319 -225 -545.5t-545 -226.5 q-317 0 -543.5 226t-226.5 546q0 317 226.5 543.5t543.5 226.5zM856 1323q-233 0 -399 -166t-166 -397q0 -236 166 -401.5t399 -165.5q231 0 398 166.5t167 400.5q0 231 -167 397t-398 166z" glyph-name="Ocircumflex" horiz-adv-x="1712" unicode="Ô"/><glyph d="M614 1647l-75 51q-39 25 -11 59q78 92 189 92q45 0 110.5 -27.5t96.5 -27.5q51 0 90 43q25 31 57 10l80 -49q37 -25 8 -59q-92 -109 -217 -109q-57 0 -118.5 28t-82.5 28q-37 0 -69 -29q-31 -28 -58 -10zM856 1530q319 0 544.5 -226.5t225.5 -543.5q0 -319 -225 -545.5 t-545 -226.5q-317 0 -543.5 226t-226.5 546q0 317 226.5 543.5t543.5 226.5zM856 1323q-233 0 -399 -166t-166 -397q0 -236 166 -401.5t399 -165.5q231 0 398 166.5t167 400.5q0 231 -167 397t-398 166z" glyph-name="Otilde" horiz-adv-x="1712" unicode="Õ"/><glyph d="M801 1716q0 -37 -26.5 -64.5t-65.5 -27.5t-66 27.5t-27 64.5q0 39 27 66.5t66 27.5t65.5 -27.5t26.5 -66.5zM1085 1716q0 -37 -26.5 -64.5t-65.5 -27.5t-66.5 27.5t-27.5 64.5q0 39 27.5 66.5t66.5 27.5t65.5 -27.5t26.5 -66.5zM856 1530q319 0 544.5 -226.5 t225.5 -543.5q0 -319 -225 -545.5t-545 -226.5q-317 0 -543.5 226t-226.5 546q0 317 226.5 543.5t543.5 226.5zM856 1323q-233 0 -399 -166t-166 -397q0 -236 166 -401.5t399 -165.5q231 0 398 166.5t167 400.5q0 231 -167 397t-398 166z" glyph-name="Odieresis" horiz-adv-x="1712" unicode="Ö"/><glyph d="M983 227q33 -29 0 -63l-68 -68q-31 -33 -63 0l-293 293l-299 -299q-33 -33 -65 0l-68 66q-31 31 0 65l301 299l-291 293q-33 33 0 66l66 65q31 31 65 0l291 -291l285 283q33 33 63 0l68 -68q33 -33 0 -63l-285 -285z" glyph-name="multiply" horiz-adv-x="1099" unicode="×"/><glyph d="M1305 1384q150 -106 235.5 -271t85.5 -353q0 -319 -225 -545.5t-545 -226.5q-193 0 -369 94l-34 -55q-18 -31 -52 -13l-63 37q-31 18 -12 53l39 62q-131 109 -205 263.5t-74 330.5q0 317 226.5 543.5t543.5 226.5q164 0 320 -70l28 45q20 33 53 13l62 -39q31 -18 12 -52z M291 760q0 -248 184 -418l590 940q-98 41 -209 41q-233 0 -399 -166t-166 -397zM856 193q231 0 398 166.5t167 400.5q0 133 -60.5 251.5t-164.5 196.5l-598 -952q117 -63 258 -63z" glyph-name="Oslash" horiz-adv-x="1712" unicode="Ø"/><glyph d="M641 1651l-330 174q-39 23 -18 61l43 76q23 43 63 20l324 -176q41 -23 18 -59l-39 -78q-22 -43 -61 -18zM585.5 -12q-198.5 0 -339 140t-140.5 339v1003q0 45 46 46h114q45 0 45 -46v-1003q0 -113 81 -192.5t193.5 -79.5t193.5 79.5t81 192.5v1003q0 45 45 46h115 q47 0 47 -46v-1003q0 -199 -141.5 -339t-340 -140z" glyph-name="Ugrave" horiz-adv-x="1161" unicode="Ù"/><glyph d="M453 1669l-39 78q-20 37 18 59l326 176q41 23 61 -20l43 -76q23 -39 -18 -61l-330 -174q-38 -25 -61 18zM585.5 -12q-198.5 0 -339 140t-140.5 339v1003q0 45 46 46h114q45 0 45 -46v-1003q0 -113 81 -192.5t193.5 -79.5t193.5 79.5t81 192.5v1003q0 45 45 46h115 q47 0 47 -46v-1003q0 -199 -141.5 -339t-340 -140z" glyph-name="Uacute" horiz-adv-x="1161" unicode="Ú"/><glyph d="M856 1624h-127q-29 0 -51 25l-100 118l-99 -118q-18 -25 -51 -25h-121q-27 0 -34 15.5t10 35.5l213 236q16 20 47 20h80q31 0 45 -20l213 -236q16 -20 9 -35.5t-34 -15.5zM585.5 -12q-198.5 0 -339 140t-140.5 339v1003q0 45 46 46h114q45 0 45 -46v-1003 q0 -113 81 -192.5t193.5 -79.5t193.5 79.5t81 192.5v1003q0 45 45 46h115q47 0 47 -46v-1003q0 -199 -141.5 -339t-340 -140z" glyph-name="Ucircumflex" horiz-adv-x="1161" unicode="Û"/><glyph d="M535 1716q0 -37 -28 -64.5t-67 -27.5t-65.5 27.5t-26.5 64.5q0 39 26.5 66.5t65.5 27.5t67 -27.5t28 -66.5zM817 1716q0 -37 -26.5 -64.5t-65.5 -27.5t-65.5 27.5t-26.5 64.5q0 39 26.5 66.5t65.5 27.5t65.5 -27.5t26.5 -66.5zM585.5 -12q-198.5 0 -339 140t-140.5 339 v1003q0 45 46 46h114q45 0 45 -46v-1003q0 -113 81 -192.5t193.5 -79.5t193.5 79.5t81 192.5v1003q0 45 45 46h115q47 0 47 -46v-1003q0 -199 -141.5 -339t-340 -140z" glyph-name="Udieresis" horiz-adv-x="1161" unicode="Ü"/><glyph d="M512 1669l-41 78q-18 39 21 59l323 176q39 20 64 -20l41 -76q23 -39 -17 -61l-330 -174q-41 -27 -61 18zM1167 1516q25 0 33 -14.5t-4 -35.5l-444 -761v-660q0 -45 -45 -45h-113q-45 0 -45 45v660l-445 761q-12 20 -3.5 35t32.5 15h158q35 0 49 -29l309 -535l309 535 q16 29 50 29h159z" glyph-name="Yacute" horiz-adv-x="1290" unicode="Ý"/><glyph d="M569 1225q184 0 314.5 -129t130.5 -311.5t-130 -313.5t-315 -131h-247v-295q0 -45 -46 -45h-114q-45 0 -45 45v1425q0 45 45 46h114q45 0 46 -46v-245h247zM569 547q98 0 168 68.5t70 168.5q0 96 -69.5 165t-168.5 69h-247v-471h247z" glyph-name="Thorn" horiz-adv-x="1067" unicode="Þ"/><glyph d="M774 782q82 -59 130 -151t48 -197q0 -172 -121.5 -303t-279.5 -131h-55q-47 0 -47 45v109q0 45 47 45h47q86 0 148.5 70.5t62.5 162.5q0 94 -63.5 167t-147.5 73h-47q-47 0 -47 45v106q0 45 45 45h43q78 2 124 70t46 149q0 98 -67 164t-163 66h-162v-1272q0 -45 -47 -45 h-106q-45 0 -45 45v1425q0 45 45 46h315q176 0 302 -124t126 -300q0 -185 -131 -310z" glyph-name="germandbls" horiz-adv-x="1038" unicode="ß"/><glyph d="M342 1339q-39 23 -18 62l43 76q23 43 61 20l326 -176q39 -23 18 -59l-39 -78q-23 -41 -61 -19zM1096 1024q45 0 45 -45v-934q0 -45 -45 -45h-88q-41 0 -41 41v86q-150 -143 -353 -143q-219 0 -373.5 155.5t-154.5 374.5q0 217 154.5 371.5t373.5 154.5q205 0 351 -141v84 q0 41 43 41h88zM616 190q135 0 229.5 94.5t94.5 229.5q0 133 -94 227.5t-230 94.5q-133 0 -227 -94.5t-94 -227.5q0 -135 94 -229.5t227 -94.5z" glyph-name="agrave" horiz-adv-x="1247" unicode="à"/><glyph d="M483 1184l-39 78q-20 37 19 59l323 176q43 20 64 -20l43 -76q20 -39 -19 -62l-329 -174q-39 -22 -62 19zM1096 1024q45 0 45 -45v-934q0 -45 -45 -45h-88q-41 0 -41 41v86q-150 -143 -353 -143q-219 0 -373.5 155.5t-154.5 374.5q0 217 154.5 371.5t373.5 154.5 q205 0 351 -141v84q0 41 43 41h88zM616 190q135 0 229.5 94.5t94.5 229.5q0 133 -94 227.5t-230 94.5q-133 0 -227 -94.5t-94 -227.5q0 -135 94 -229.5t227 -94.5z" glyph-name="aacute" horiz-adv-x="1247" unicode="á"/><glyph d="M338 1139q-27 0 -34 15t9 36l213 235q14 20 45 21h80q33 0 47 -21l213 -235q16 -20 9 -35.5t-33 -15.5h-127q-31 0 -51 24l-101 119l-98 -119q-18 -25 -51 -24h-121zM1096 1024q45 0 45 -45v-934q0 -45 -45 -45h-88q-41 0 -41 41v86q-150 -143 -353 -143 q-219 0 -373.5 155.5t-154.5 374.5q0 217 154.5 371.5t373.5 154.5q205 0 351 -141v84q0 41 43 41h88zM616 190q135 0 229.5 94.5t94.5 229.5q0 133 -94 227.5t-230 94.5q-133 0 -227 -94.5t-94 -227.5q0 -135 94 -229.5t227 -94.5z" glyph-name="acircumflex" horiz-adv-x="1247" unicode="â"/><glyph d="M301 1212q-39 25 -10 60q78 92 188 92q45 0 110.5 -27.5t96.5 -27.5q51 0 90 43q25 31 58 10l79 -49q37 -25 9 -60q-92 -109 -217 -108q-57 0 -118 27.5t-83 27.5q-37 0 -70 -29q-31 -29 -57 -10zM1096 1024q45 0 45 -45v-934q0 -45 -45 -45h-88q-41 0 -41 41v86 q-150 -143 -353 -143q-219 0 -373.5 155.5t-154.5 374.5q0 217 154.5 371.5t373.5 154.5q205 0 351 -141v84q0 41 43 41h88zM616 190q135 0 229.5 94.5t94.5 229.5q0 133 -94 227.5t-230 94.5q-133 0 -227 -94.5t-94 -227.5q0 -135 94 -229.5t227 -94.5z" glyph-name="atilde" horiz-adv-x="1247" unicode="ã"/><glyph d="M471 1139q-39 0 -65.5 27.5t-26.5 64.5q0 39 26.5 66.5t65.5 27.5t65.5 -27.5t26.5 -66.5q0 -37 -26.5 -64.5t-65.5 -27.5zM756 1139q-39 0 -66.5 27.5t-27.5 64.5q0 39 27.5 66.5t66.5 27.5t65.5 -27.5t26.5 -66.5q0 -37 -26.5 -64.5t-65.5 -27.5zM1096 1024 q45 0 45 -45v-934q0 -45 -45 -45h-88q-41 0 -41 41v86q-150 -143 -353 -143q-219 0 -373.5 155.5t-154.5 374.5q0 217 154.5 371.5t373.5 154.5q205 0 351 -141v84q0 41 43 41h88zM616 190q135 0 229.5 94.5t94.5 229.5q0 133 -94 227.5t-230 94.5q-133 0 -227 -94.5 t-94 -227.5q0 -135 94 -229.5t227 -94.5z" glyph-name="adieresis" horiz-adv-x="1247" unicode="ä"/><glyph d="M614 1139q-88 0 -149.5 62.5t-61.5 148.5q0 88 61.5 149.5t149.5 61.5t149.5 -61.5t61.5 -149.5q0 -86 -61.5 -148.5t-149.5 -62.5zM614 1438q-35 0 -61.5 -26t-26.5 -62.5t26 -61t62.5 -24.5t62 24.5t25.5 61t-25.5 62.5t-62.5 26zM1096 1024q45 0 45 -45v-934 q0 -45 -45 -45h-88q-41 0 -41 41v86q-150 -143 -353 -143q-219 0 -373.5 155.5t-154.5 374.5q0 217 154.5 371.5t373.5 154.5q205 0 351 -141v84q0 41 43 41h88zM616 190q135 0 229.5 94.5t94.5 229.5q0 133 -94 227.5t-230 94.5q-133 0 -227 -94.5t-94 -227.5 q0 -135 94 -229.5t227 -94.5z" glyph-name="aring" horiz-adv-x="1247" unicode="å"/><glyph d="M1968 492q0 -45 -45 -46h-780q29 -121 120 -192.5t203 -71.5q141 0 275 107q35 29 61 -6l66 -80q29 -37 -4 -64q-172 -156 -398 -155q-190 0 -325 125v-68q0 -41 -41 -41h-92q-41 0 -41 41v86q-150 -143 -353 -143q-219 0 -373.5 155.5t-154.5 374.5q0 217 154.5 371.5 t373.5 154.5q205 0 351 -141v84q0 41 43 41h92q41 0 41 -41v-57q131 115 317 114q207 0 351.5 -151t158.5 -397zM1143 610h602q-18 106 -102 179t-197 73q-111 0 -197 -69.5t-106 -182.5zM616 190q135 0 229.5 94.5t94.5 229.5q0 133 -94 227.5t-230 94.5q-133 0 -227 -94.5 t-94 -227.5q0 -135 94 -229.5t227 -94.5z" glyph-name="ae" horiz-adv-x="2043" unicode="æ"/><glyph d="M965 184q27 -37 -7 -63q-127 -111 -276 -133v-49q68 -25 111 -84.5t43 -130.5q0 -94 -65.5 -159t-160.5 -65q-82 0 -144.5 50.5t-76.5 130.5q-4 18 6.5 28t28.5 10h70q27 0 38 -28q20 -49 76 -49q35 0 59.5 23.5t24.5 58t-24.5 58t-59.5 23.5h-33q-39 0 -38 39v146 q-193 27 -322 175t-129 347q0 219 153.5 373.5t372.5 154.5q197 0 346 -133q33 -27 7 -63l-70 -82q-27 -37 -64 -6q-100 80 -219 80q-133 0 -227 -94.5t-94 -227.5t95 -228.5t226 -95.5q119 0 222 82q33 31 61 -4z" glyph-name="ccedilla" horiz-adv-x="1062" unicode="ç"/><glyph d="M657 1165l-329 174q-39 23 -19 62l43 76q23 43 62 20l325 -176q39 -23 19 -59l-39 -78q-23 -42 -62 -19zM1120 492q0 -45 -45 -46h-780q29 -121 120 -192.5t203 -71.5q141 0 275 107q35 29 61 -6l66 -80q29 -37 -4 -64q-172 -156 -400 -155q-229 0 -381.5 160.5 t-152.5 381.5q0 219 150.5 366.5t367.5 147.5q215 0 360.5 -150t159.5 -398zM295 610h602q-18 106 -102 179t-197 73q-111 0 -197 -69.5t-106 -182.5z" glyph-name="egrave" horiz-adv-x="1196" unicode="è"/><glyph d="M469 1184l-39 78q-20 37 19 59l325 176q41 23 62 -20l43 -76q20 -39 -19 -62l-330 -174q-38 -22 -61 19zM1120 492q0 -45 -45 -46h-780q29 -121 120 -192.5t203 -71.5q141 0 275 107q35 29 61 -6l66 -80q29 -37 -4 -64q-172 -156 -400 -155q-229 0 -381.5 160.5 t-152.5 381.5q0 219 150.5 366.5t367.5 147.5q215 0 360.5 -150t159.5 -398zM295 610h602q-18 106 -102 179t-197 73q-111 0 -197 -69.5t-106 -182.5z" glyph-name="eacute" horiz-adv-x="1196" unicode="é"/><glyph d="M872 1139h-127q-29 0 -51 24l-100 119l-98 -119q-18 -25 -52 -24h-120q-27 0 -34 15t9 36l213 235q16 20 45 21h80q33 0 47 -21l213 -235q16 -20 9 -35.5t-34 -15.5zM1120 492q0 -45 -45 -46h-780q29 -121 120 -192.5t203 -71.5q141 0 275 107q35 29 61 -6l66 -80 q29 -37 -4 -64q-172 -156 -400 -155q-229 0 -381.5 160.5t-152.5 381.5q0 219 150.5 366.5t367.5 147.5q215 0 360.5 -150t159.5 -398zM295 610h602q-18 106 -102 179t-197 73q-111 0 -197 -69.5t-106 -182.5z" glyph-name="ecircumflex" horiz-adv-x="1196" unicode="ê"/><glyph d="M549 1231q0 -37 -26.5 -64.5t-65.5 -27.5t-65.5 27.5t-26.5 64.5q0 39 26.5 66.5t65.5 27.5t65.5 -27.5t26.5 -66.5zM834 1231q0 -37 -27 -64.5t-66 -27.5t-66.5 27.5t-27.5 64.5q0 39 27.5 66.5t66.5 27.5t66 -27.5t27 -66.5zM1120 492q0 -45 -45 -46h-780 q29 -121 120 -192.5t203 -71.5q141 0 275 107q35 29 61 -6l66 -80q29 -37 -4 -64q-172 -156 -400 -155q-229 0 -381.5 160.5t-152.5 381.5q0 219 150.5 366.5t367.5 147.5q215 0 360.5 -150t159.5 -398zM295 610h602q-18 106 -102 179t-197 73q-111 0 -197 -69.5 t-106 -182.5z" glyph-name="edieresis" horiz-adv-x="1196" unicode="ë"/><glyph d="M262 1165l-328 174q-41 20 -18 62l43 76q23 43 61 20l326 -176q37 -23 19 -59l-41 -78q-19 -42 -62 -19zM264 0h-112q-45 0 -46 45v934q0 45 46 45h112q47 0 47 -45v-934q0 -45 -47 -45z" glyph-name="igrave" horiz-adv-x="405" unicode="ì"/><glyph d="M76 1184l-41 78q-18 39 20 59l324 176q39 20 63 -20l41 -76q23 -39 -16 -62l-330 -174q-43 -22 -61 19zM264 0h-112q-45 0 -46 45v934q0 45 46 45h112q47 0 47 -45v-934q0 -45 -47 -45z" glyph-name="iacute" horiz-adv-x="405" unicode="í"/><glyph d="M479 1139h-127q-29 0 -51 24l-100 119l-101 -119q-18 -25 -51 -24h-121q-27 0 -34 15t12 36l213 235q16 20 45 21h80q29 0 47 -21l211 -235q18 -20 11 -35.5t-34 -15.5zM264 0h-112q-45 0 -46 45v934q0 45 46 45h112q47 0 47 -45v-934q0 -45 -47 -45z" glyph-name="icircumflex" horiz-adv-x="405" unicode="î"/><glyph d="M156 1231q0 -37 -28 -64.5t-66.5 -27.5t-65.5 27.5t-27 64.5q0 39 27 66.5t65.5 27.5t66.5 -27.5t28 -66.5zM438 1231q0 -37 -26.5 -64.5t-65.5 -27.5t-65.5 27.5t-26.5 64.5q0 39 26.5 66.5t65.5 27.5t65.5 -27.5t26.5 -66.5zM264 0h-112q-45 0 -46 45v934q0 45 46 45 h112q47 0 47 -45v-934q0 -45 -47 -45z" glyph-name="idieresis" horiz-adv-x="405" unicode="ï"/><glyph d="M1096 745q57 -102 57 -241q0 -213 -151.5 -364.5t-362.5 -151.5q-213 0 -364.5 151.5t-151.5 364.5t150.5 365.5t363.5 152.5q20 0 61 -4l-92 151l-76 -47q-37 -18 -57 15l-43 71q-18 35 16 58l76 45l-39 63q-23 39 17 62l96 57q39 23 61 -16l39 -64l80 47q35 23 55 -14 l43 -72q23 -35 -16 -55l-78 -47zM639 193q129 0 220 92t91 219t-90 220t-221 93q-129 0 -221 -92t-92 -221q0 -127 91 -219t222 -92z" glyph-name="eth" horiz-adv-x="1243" unicode="ð"/><glyph d="M227 1212q-37 23 -10 60q82 92 191 92q43 0 108.5 -27.5t95.5 -27.5q55 0 90 43q27 33 58 10l80 -49q39 -25 10 -60q-92 -109 -219 -108q-57 0 -117.5 27.5t-83.5 27.5q-37 0 -70 -29q-29 -29 -57 -10zM551 1040q178 0 302 -127t124 -307v-561q0 -45 -45 -45h-115 q-45 0 -45 45v561q0 94 -67.5 162t-163.5 68q-94 0 -162 -68t-68 -162v-561q0 -45 -45 -45h-114q-45 0 -46 45v934q0 45 46 45h81q41 0 41 -41v-45q123 102 277 102z" glyph-name="ntilde" horiz-adv-x="1062" unicode="ñ"/><glyph d="M659 1165l-327 174q-41 20 -19 62l43 76q23 43 62 20l325 -176q37 -23 19 -59l-41 -78q-19 -42 -62 -19zM604 1040q219 0 374 -155.5t155 -372.5t-155 -372.5t-374 -155.5t-373.5 155.5t-154.5 372.5t154.5 372.5t373.5 155.5zM604 834q-133 0 -228 -94.5t-95 -227.5 t95 -227.5t228 -94.5t226.5 94.5t93.5 227.5t-93.5 227.5t-226.5 94.5z" glyph-name="ograve" horiz-adv-x="1206" unicode="ò"/><glyph d="M473 1184l-41 78q-18 39 21 59l323 176q39 20 64 -20l41 -76q23 -39 -17 -62l-329 -174q-44 -22 -62 19zM604 1040q219 0 374 -155.5t155 -372.5t-155 -372.5t-374 -155.5t-373.5 155.5t-154.5 372.5t154.5 372.5t373.5 155.5zM604 834q-133 0 -228 -94.5t-95 -227.5 t95 -227.5t228 -94.5t226.5 94.5t93.5 227.5t-93.5 227.5t-226.5 94.5z" glyph-name="oacute" horiz-adv-x="1206" unicode="ó"/><glyph d="M877 1139h-127q-29 0 -52 24l-100 119l-100 -119q-16 -25 -52 -24h-120q-27 0 -34 15t11 36l213 235q16 20 45 21h80q31 0 47 -21l211 -235q18 -20 11.5 -35.5t-33.5 -15.5zM604 1040q219 0 374 -155.5t155 -372.5t-155 -372.5t-374 -155.5t-373.5 155.5t-154.5 372.5 t154.5 372.5t373.5 155.5zM604 834q-133 0 -228 -94.5t-95 -227.5t95 -227.5t228 -94.5t226.5 94.5t93.5 227.5t-93.5 227.5t-226.5 94.5z" glyph-name="ocircumflex" horiz-adv-x="1206" unicode="ô"/><glyph d="M365 1161l-76 51q-37 25 -8 60q78 92 188 92q43 0 108.5 -27.5t98.5 -27.5q53 0 88 43q29 31 57 10l80 -49q39 -25 10 -60q-92 -109 -219 -108q-57 0 -117.5 27.5t-82.5 27.5q-35 0 -70 -29q-28 -28 -57 -10zM604 1040q219 0 374 -155.5t155 -372.5t-155 -372.5 t-374 -155.5t-373.5 155.5t-154.5 372.5t154.5 372.5t373.5 155.5zM604 834q-133 0 -228 -94.5t-95 -227.5t95 -227.5t228 -94.5t226.5 94.5t93.5 227.5t-93.5 227.5t-226.5 94.5z" glyph-name="otilde" horiz-adv-x="1206" unicode="õ"/><glyph d="M553 1231q0 -37 -27.5 -64.5t-66.5 -27.5t-65.5 27.5t-26.5 64.5q0 39 26.5 66.5t65.5 27.5t66.5 -27.5t27.5 -66.5zM836 1231q0 -37 -27 -64.5t-65.5 -27.5t-65.5 27.5t-27 64.5q0 39 27 66.5t65.5 27.5t65.5 -27.5t27 -66.5zM604 1040q219 0 374 -155.5t155 -372.5 t-155 -372.5t-374 -155.5t-373.5 155.5t-154.5 372.5t154.5 372.5t373.5 155.5zM604 834q-133 0 -228 -94.5t-95 -227.5t95 -227.5t228 -94.5t226.5 94.5t93.5 227.5t-93.5 227.5t-226.5 94.5z" glyph-name="odieresis" horiz-adv-x="1206" unicode="ö"/><glyph d="M700 921.5q0 -49.5 -35.5 -84t-84.5 -34.5q-51 0 -85 33.5t-34 85.5q0 49 33.5 83.5t85.5 34.5q49 0 84.5 -34.5t35.5 -84zM1040 504h-919q-45 0 -45 45v96q0 45 45 45h919q45 0 45 -45v-96q0 -45 -45 -45zM700 272q0 -49 -35.5 -82.5t-84.5 -33.5q-51 0 -85 33.5 t-34 82.5q0 51 33.5 86t85.5 35q49 0 84.5 -35t35.5 -86z" glyph-name="divide" horiz-adv-x="1148" unicode="÷"/><glyph d="M938 926q201 -158 201 -414q0 -217 -156 -372.5t-373 -155.5q-123 0 -229 53l-10 -17q-18 -35 -52 -12l-63 37q-33 20 -12 51l14 23q-176 160 -176 393q0 217 155.5 372.5t372.5 155.5q102 0 199 -39l10 15q18 35 51 12l64 -39q31 -20 12 -51zM289 512q0 -123 80 -213 l327 522q-41 12 -86 13q-133 0 -227 -94.5t-94 -227.5zM610 190q133 0 227.5 94.5t94.5 227.5q0 139 -105 238l-335 -537q57 -23 118 -23z" glyph-name="oslash" horiz-adv-x="1220" unicode="ø"/><glyph d="M592 1165l-330 174q-37 23 -16 62l41 76q25 43 63 20l324 -176q39 -20 20 -59l-41 -78q-18 -42 -61 -19zM540.5 -16q-180.5 0 -307.5 127t-127 307v561q0 45 46 45h112q45 0 45 -45v-561q0 -94 68.5 -162t163 -68t162 68t67.5 162v561q0 45 45 45h115q45 0 45 -45v-561 q0 -180 -127 -307t-307.5 -127z" glyph-name="ugrave" horiz-adv-x="1060" unicode="ù"/><glyph d="M406 1184l-41 78q-18 37 18 59l326 176q41 23 61 -20l43 -76q25 -39 -18 -62l-328 -174q-43 -22 -61 19zM540.5 -16q-180.5 0 -307.5 127t-127 307v561q0 45 46 45h112q45 0 45 -45v-561q0 -94 68.5 -162t163 -68t162 68t67.5 162v561q0 45 45 45h115q45 0 45 -45v-561 q0 -180 -127 -307t-307.5 -127z" glyph-name="uacute" horiz-adv-x="1060" unicode="ú"/><glyph d="M809 1139h-127q-33 0 -51 24l-103 119l-98 -119q-18 -25 -51 -24h-121q-27 0 -34 15t12 36l210 235q16 20 48 21h79q31 0 45 -21l213 -235q18 -20 11.5 -35.5t-33.5 -15.5zM540.5 -16q-180.5 0 -307.5 127t-127 307v561q0 45 46 45h112q45 0 45 -45v-561q0 -94 68.5 -162 t163 -68t162 68t67.5 162v561q0 45 45 45h115q45 0 45 -45v-561q0 -180 -127 -307t-307.5 -127z" glyph-name="ucircumflex" horiz-adv-x="1060" unicode="û"/><glyph d="M485 1231q0 -37 -27.5 -64.5t-66.5 -27.5t-65.5 27.5t-26.5 64.5q0 39 26.5 66.5t65.5 27.5t66.5 -27.5t27.5 -66.5zM768 1231q0 -37 -26.5 -64.5t-65.5 -27.5t-65.5 27.5t-26.5 64.5q0 39 26.5 66.5t65.5 27.5t65.5 -27.5t26.5 -66.5zM540.5 -16q-180.5 0 -307.5 127 t-127 307v561q0 45 46 45h112q45 0 45 -45v-561q0 -94 68.5 -162t163 -68t162 68t67.5 162v561q0 45 45 45h115q45 0 45 -45v-561q0 -180 -127 -307t-307.5 -127z" glyph-name="udieresis" horiz-adv-x="1060" unicode="ü"/><glyph d="M406 1184l-41 78q-18 37 18 59l326 176q41 23 61 -20l43 -76q23 -39 -16 -62l-330 -174q-43 -22 -61 19zM995 1024q49 0 33 -47l-418 -1014q-117 -285 -391 -379q-41 -12 -57 31l-37 98q-14 43 29 60q201 74 286 311l-366 893q-16 47 32 47h136q37 0 49 -33l260 -635 l258 635q12 33 47 33h139z" glyph-name="yacute" horiz-adv-x="1132" unicode="ý"/><glyph d="M633 -16q-188 0 -324 122v-471q0 -45 -45 -45h-112q-45 0 -46 45v1754q0 45 46 45h112q45 0 45 -45v-469q133 121 324 120q219 0 373.5 -155.5t154.5 -372.5q0 -219 -154.5 -373.5t-373.5 -154.5zM631 831q-133 0 -227.5 -94t-94.5 -225q0 -133 94.5 -227.5t227.5 -94.5 t227 94.5t94 227.5q0 131 -94 225t-227 94z" glyph-name="thorn" horiz-adv-x="1214" unicode="þ"/><glyph d="M485 1231q0 -37 -27.5 -64.5t-66.5 -27.5t-65.5 27.5t-26.5 64.5q0 39 26.5 66.5t65.5 27.5t66.5 -27.5t27.5 -66.5zM768 1231q0 -37 -26.5 -64.5t-65.5 -27.5t-65.5 27.5t-26.5 64.5q0 39 26.5 66.5t65.5 27.5t65.5 -27.5t26.5 -66.5zM995 1024q49 0 33 -47l-418 -1014 q-117 -285 -391 -379q-41 -12 -57 31l-37 98q-14 43 29 60q201 74 286 311l-366 893q-16 47 32 47h136q37 0 49 -33l260 -635l258 635q12 33 47 33h139z" glyph-name="ydieresis" horiz-adv-x="1132" unicode="ÿ"/><glyph d="M1010 1624h-463q-43 0 -43 43v92q0 41 43 41h463q41 0 41 -41v-92q0 -43 -41 -43zM1440 47q8 -20 -1 -33.5t-32 -13.5h-137q-37 0 -49 33l-101 254h-698l-103 -254q-12 -33 -47 -33h-139q-49 0 -33 47l572 1436q12 33 49 33h96q35 0 47 -33zM504 492h536l-268 675z" glyph-name="Amacron" horiz-adv-x="1531" unicode="Ā"/><glyph d="M391 1139q-41 0 -41 43v92q0 41 41 41h465q41 0 41 -41v-92q0 -43 -41 -43h-465zM1096 1024q45 0 45 -45v-934q0 -45 -45 -45h-88q-41 0 -41 41v86q-150 -143 -353 -143q-219 0 -373.5 155.5t-154.5 374.5q0 217 154.5 371.5t373.5 154.5q205 0 351 -141v84q0 41 43 41 h88zM616 190q135 0 229.5 94.5t94.5 229.5q0 133 -94 227.5t-230 94.5q-133 0 -227 -94.5t-94 -227.5q0 -135 94 -229.5t227 -94.5z" glyph-name="amacron" horiz-adv-x="1247" unicode="ā"/><glyph d="M766 1622q-106 0 -177 65.5t-71 155.5v29q0 41 41 41h68q37 0 37 -39v-14q0 -39 29.5 -66t72.5 -27t72.5 27t29.5 66v14q0 39 37 39h68q41 0 41 -41v-29q0 -90 -69.5 -155.5t-178.5 -65.5zM1440 47q8 -20 -1 -33.5t-32 -13.5h-137q-37 0 -49 33l-101 254h-698l-103 -254 q-12 -33 -47 -33h-139q-49 0 -33 47l572 1436q12 33 49 33h96q35 0 47 -33zM504 492h536l-268 675z" glyph-name="Abreve" horiz-adv-x="1531" unicode="Ă"/><glyph d="M612.5 1137q-108.5 0 -178 65.5t-69.5 155.5v28q0 41 41 41h67q37 0 37 -36v-17q0 -39 29.5 -65.5t72.5 -26.5t72 26.5t29 65.5v17q0 37 39 36h65q43 0 43 -41v-28q0 -90 -69.5 -155.5t-178 -65.5zM1096 1024q45 0 45 -45v-934q0 -45 -45 -45h-88q-41 0 -41 41v86 q-150 -143 -353 -143q-219 0 -373.5 155.5t-154.5 374.5q0 217 154.5 371.5t373.5 154.5q205 0 351 -141v84q0 41 43 41h88zM616 190q135 0 229.5 94.5t94.5 229.5q0 133 -94 227.5t-230 94.5q-133 0 -227 -94.5t-94 -227.5q0 -135 94 -229.5t227 -94.5z" glyph-name="abreve" horiz-adv-x="1247" unicode="ă"/><glyph d="M1544 -319q16 -29 -16 -41q-53 -16 -96 -17q-102 0 -173 72t-71 174q0 84 39 151l-6 13l-101 254h-698l-103 -254q-12 -33 -47 -33h-139q-49 0 -33 47l572 1436q12 33 49 33h96q35 0 47 -33l576 -1436q8 -20 -1 -33.5t-32 -13.5h-55q-43 -68 -43 -133q0 -74 55 -116 t125 -25q27 4 37 -15zM504 492h536l-268 675z" glyph-name="Aogonek" horiz-adv-x="1533" unicode="Ą"/><glyph d="M1284 -319q16 -29 -16 -41q-53 -16 -97 -17q-102 0 -172.5 72t-70.5 174q0 86 43 156q-4 12 -4 16v86q-150 -143 -353 -143q-219 0 -373.5 155.5t-154.5 374.5q0 217 154.5 371.5t373.5 154.5q205 0 351 -141v84q0 41 43 41h88q45 0 45 -45v-934q0 -45 -45 -45h-4 q-43 -68 -43 -133q0 -74 55 -116t125 -25q27 4 37 -15zM616 190q135 0 229.5 94.5t94.5 229.5q0 133 -94 227.5t-230 94.5q-133 0 -227 -94.5t-94 -227.5q0 -135 94 -229.5t227 -94.5z" glyph-name="aogonek" horiz-adv-x="1247" unicode="ą"/><glyph d="M682 1669l-41 78q-18 39 21 59l323 176q39 20 64 -20l41 -76q23 -39 -17 -61l-330 -174q-41 -25 -61 18zM848 -12q-319 0 -545.5 225t-226.5 545q0 317 225 543.5t539 226.5q279 0 512 -201q33 -29 6 -61l-66 -82q-29 -39 -63 -6q-182 145 -385 145q-231 0 -397 -166 t-166 -399.5t165.5 -399t397.5 -165.5q209 0 385 143q35 29 63 -6l68 -90q25 -37 -8 -64q-223 -188 -504 -188z" glyph-name="Cacute" horiz-adv-x="1480" unicode="Ć"/><glyph d="M481 1184l-41 78q-18 39 21 59l323 176q39 20 64 -20l41 -76q23 -39 -17 -62l-329 -174q-44 -22 -62 19zM610 -16q-217 0 -370.5 154.5t-153.5 373.5t153.5 373.5t372.5 154.5q197 0 346 -133q33 -27 7 -63l-70 -82q-27 -37 -64 -6q-100 80 -219 80q-133 0 -227 -94.5 t-94 -227.5t95 -228.5t226 -95.5q119 0 222 82q33 31 61 -4l70 -84q27 -37 -7 -63q-158 -137 -348 -137z" glyph-name="cacute" horiz-adv-x="1062" unicode="ć"/><glyph d="M1110 1880l-213 -235q-18 -20 -47 -21h-80q-27 0 -45 21l-213 235q-16 20 -9 35.5t34 15.5h120q31 0 52 -22l98 -119l100 119q20 23 51 22h127q27 0 34 -15.5t-9 -35.5zM848 -12q-319 0 -545.5 225t-226.5 545q0 317 225 543.5t539 226.5q279 0 512 -201q33 -29 6 -61 l-66 -82q-29 -39 -63 -6q-182 145 -385 145q-231 0 -397 -166t-166 -399.5t165.5 -399t397.5 -165.5q209 0 385 143q35 29 63 -6l68 -90q25 -37 -8 -64q-223 -188 -504 -188z" glyph-name="Ccaron" horiz-adv-x="1480" unicode="Č"/><glyph d="M909 1395l-213 -236q-18 -20 -47 -20h-80q-27 0 -45 20l-213 236q-16 20 -9 35.5t34 15.5h121q31 0 51 -23l98 -118l101 118q20 23 51 23h127q27 0 33.5 -15.5t-9.5 -35.5zM610 -16q-217 0 -370.5 154.5t-153.5 373.5t153.5 373.5t372.5 154.5q197 0 346 -133 q33 -27 7 -63l-70 -82q-27 -37 -64 -6q-100 80 -219 80q-133 0 -227 -94.5t-94 -227.5t95 -228.5t226 -95.5q119 0 222 82q33 31 61 -4l70 -84q27 -37 -7 -63q-158 -137 -348 -137z" glyph-name="ccaron" horiz-adv-x="1062" unicode="č"/><glyph d="M766 1624h-465q-41 0 -41 43v92q0 41 41 41h465q41 0 41 -41v-92q0 -43 -41 -43zM874 207q45 0 46 -45v-117q0 -45 -46 -45h-712q-45 0 -45 45v1425q0 45 45 46h712q45 0 46 -46v-116q0 -45 -46 -45h-552v-459h518q41 0 41 -41v-100q0 -41 -41 -41h-518v-461h552z" glyph-name="Emacron" horiz-adv-x="1015" unicode="Ē"/><glyph d="M842 1139h-465q-41 0 -41 43v92q0 41 41 41h465q41 0 41 -41v-92q0 -43 -41 -43zM1120 492q0 -45 -45 -46h-780q29 -121 120 -192.5t203 -71.5q141 0 275 107q35 29 61 -6l66 -80q29 -37 -4 -64q-172 -156 -400 -155q-229 0 -381.5 160.5t-152.5 381.5q0 219 150.5 366.5 t367.5 147.5q215 0 360.5 -150t159.5 -398zM295 610h602q-18 106 -102 179t-197 73q-111 0 -197 -69.5t-106 -182.5z" glyph-name="emacron" horiz-adv-x="1196" unicode="ē"/><glyph d="M612 1716q0 -37 -27.5 -64.5t-66.5 -27.5t-65.5 27.5t-26.5 64.5q0 39 26.5 66.5t65.5 27.5t66.5 -27.5t27.5 -66.5zM874 207q45 0 46 -45v-117q0 -45 -46 -45h-712q-45 0 -45 45v1425q0 45 45 46h712q45 0 46 -46v-116q0 -45 -46 -45h-552v-459h518q41 0 41 -41v-100 q0 -41 -41 -41h-518v-461h552z" glyph-name="Edotaccent" horiz-adv-x="1015" unicode="Ė"/><glyph d="M688 1231q0 -37 -27.5 -64.5t-66.5 -27.5t-65.5 27.5t-26.5 64.5q0 39 26.5 66.5t65.5 27.5t66.5 -27.5t27.5 -66.5zM1120 492q0 -45 -45 -46h-780q29 -121 120 -192.5t203 -71.5q141 0 275 107q35 29 61 -6l66 -80q29 -37 -4 -64q-172 -156 -400 -155 q-229 0 -381.5 160.5t-152.5 381.5q0 219 150.5 366.5t367.5 147.5q215 0 360.5 -150t159.5 -398zM295 610h602q-18 106 -102 179t-197 73q-111 0 -197 -69.5t-106 -182.5z" glyph-name="edotaccent" horiz-adv-x="1196" unicode="ė"/><glyph d="M1081 -319q16 -29 -16 -41q-49 -16 -94 -17q-104 0 -175 72t-71 174q0 70 29 131h-592q-45 0 -45 45v1425q0 45 45 46h712q45 0 46 -46v-116q0 -45 -46 -45h-552v-459h518q41 0 41 -41v-100q0 -41 -41 -41h-518v-461h552q45 0 46 -45v-117q0 -33 -29 -43 q-45 -66 -45 -135q0 -74 55 -116t125 -25q27 4 37 -15z" glyph-name="Eogonek" horiz-adv-x="1013" unicode="Ę"/><glyph d="M1120 492q0 -45 -45 -46h-780q29 -121 120 -192.5t203 -71.5q141 0 275 107q35 29 61 -6l66 -80q29 -37 -4 -64q-123 -109 -281 -143q-41 -66 -41 -129q0 -74 55.5 -116t124.5 -25q27 4 35 -15l19 -30q16 -29 -15 -41q-53 -16 -96 -17q-102 0 -173 72t-71 174 q0 59 23 115q-221 8 -367.5 167.5t-146.5 374.5q0 219 150.5 366.5t367.5 147.5q215 0 360.5 -150t159.5 -398zM295 610h602q-18 106 -102 179t-197 73q-111 0 -197 -69.5t-106 -182.5z" glyph-name="eogonek" horiz-adv-x="1196" unicode="ę"/><glyph d="M821 1880l-213 -235q-18 -20 -45 -21h-80q-27 0 -47 21l-211 235q-18 20 -11 35.5t34 15.5h121q31 0 51 -22l98 -119l103 119q16 23 51 22h127q27 0 33.5 -15.5t-11.5 -35.5zM874 207q45 0 46 -45v-117q0 -45 -46 -45h-712q-45 0 -45 45v1425q0 45 45 46h712q45 0 46 -46 v-116q0 -45 -46 -45h-552v-459h518q41 0 41 -41v-100q0 -41 -41 -41h-518v-461h552z" glyph-name="Ecaron" horiz-adv-x="1015" unicode="Ě"/><glyph d="M897 1395l-213 -236q-18 -20 -45 -20h-80q-29 0 -47 20l-211 236q-18 20 -11 35.5t34 15.5h120q31 0 52 -23l98 -118l102 118q16 23 52 23h126q27 0 33 -15.5t-10 -35.5zM1120 492q0 -45 -45 -46h-780q29 -121 120 -192.5t203 -71.5q141 0 275 107q35 29 61 -6l66 -80 q29 -37 -4 -64q-172 -156 -400 -155q-229 0 -381.5 160.5t-152.5 381.5q0 219 150.5 366.5t367.5 147.5q215 0 360.5 -150t159.5 -398zM295 610h602q-18 106 -102 179t-197 73q-111 0 -197 -69.5t-106 -182.5z" glyph-name="ecaron" horiz-adv-x="1196" unicode="ě"/><glyph d="M459 1614h-465q-41 0 -41 41v94q0 41 41 41h465q41 0 41 -41v-94q0 -41 -41 -41zM117 45v1425q0 45 45 46h112q45 0 45 -46v-1425q0 -45 -45 -45h-112q-45 0 -45 45z" glyph-name="Imacron" horiz-adv-x="425" unicode="Ī"/><glyph d="M446 1139h-462q-41 0 -41 43v92q0 41 41 41h462q43 0 43 -41v-92q0 -43 -43 -43zM264 0h-112q-45 0 -46 45v934q0 45 46 45h112q47 0 47 -45v-934q0 -45 -47 -45z" glyph-name="imacron" horiz-adv-x="405" unicode="ī"/><glyph d="M487 -319q16 -29 -16 -41q-49 -16 -94 -17q-104 0 -175 72t-71 174q0 70 29 131q-43 0 -43 45v1425q0 45 45 46h112q45 0 45 -46v-1425q0 -27 -18 -39q-49 -70 -49 -139q0 -74 55 -116t125 -25q27 4 37 -15z" glyph-name="Iogonek" horiz-adv-x="425" unicode="Į"/><glyph d="M201 1139q-39 0 -67 27.5t-28 64.5q0 39 28 66.5t67 27.5t65.5 -27.5t26.5 -66.5q0 -37 -26.5 -64.5t-65.5 -27.5zM422 -319q16 -29 -14 -41q-53 -16 -97 -17q-102 0 -172.5 72t-70.5 174q0 90 41 156q-2 6 -3 20v934q0 45 46 45h112q47 0 47 -45v-934q0 -45 -47 -45h-33 q-43 -68 -43 -133q0 -74 55.5 -116t125.5 -25q27 4 34 -15z" glyph-name="iogonek" horiz-adv-x="405" unicode="į"/><glyph d="M264 0h-112q-45 0 -46 45v934q0 45 46 45h112q47 0 47 -45v-934q0 -45 -47 -45z" glyph-name="dotlessi" horiz-adv-x="405" unicode="ı"/><glyph d="M197 1673l-41 78q-18 41 20 61l324 177q39 20 63 -21l41 -76q23 -39 -16 -61l-330 -176q-41 -23 -61 18zM840 0h-678q-45 0 -45 45v1425q0 45 45 46h114q45 0 46 -46v-1263h518q45 0 45 -45v-117q0 -45 -45 -45z" glyph-name="Lacute" horiz-adv-x="950" unicode="Ĺ"/><glyph d="M1063 207q45 0 45 -45v-117q0 -45 -45 -45h-680q-45 0 -45 45v498l-113 -144q-29 -35 -63 -6l-72 56q-33 27 -6 63l254 324v634q0 45 45 46h117q45 0 45 -46v-374l133 168q25 37 61 6l74 -56q33 -27 6 -63l-274 -348v-596h518z" glyph-name="Lslash" horiz-adv-x="1171" unicode="Ł"/><glyph d="M819 1049l-266 -338v-363q0 -70 35 -105.5t92 -35.5h25q35 0 34 -45v-117q0 -45 -45 -45h-18q-330 0 -330 348v103l-121 -154q-29 -39 -63 -6l-72 55q-33 27 -6 64l262 333v646q0 45 45 45h117q45 0 45 -45v-385l125 157q27 35 61 6l74 -57q35 -26 6 -61z" glyph-name="lslash" horiz-adv-x="923" unicode="ł"/><glyph d="M541 1669l-41 78q-18 39 20 59l324 176q39 20 63 -20l41 -76q23 -39 -16 -61l-330 -174q-41 -25 -61 18zM1069 1470q0 45 45 46h115q45 0 45 -46v-1425q0 -45 -45 -45h-82q-33 0 -49 25l-776 1108v-1088q0 -45 -46 -45h-114q-45 0 -45 45v1425q0 45 45 46h80q33 0 49 -25 l778 -1110v1089z" glyph-name="Nacute" horiz-adv-x="1380" unicode="Ń"/><glyph d="M412 1184l-41 78q-18 37 18 59l326 176q41 23 61 -20l43 -76q20 -41 -18 -62l-328 -174q-43 -22 -61 19zM551 1040q178 0 302 -127t124 -307v-561q0 -45 -45 -45h-115q-45 0 -45 45v561q0 94 -67.5 162t-163.5 68q-94 0 -162 -68t-68 -162v-561q0 -45 -45 -45h-114 q-45 0 -46 45v934q0 45 46 45h81q41 0 41 -41v-45q123 102 277 102z" glyph-name="nacute" horiz-adv-x="1062" unicode="ń"/><glyph d="M969 1880l-213 -235q-18 -20 -45 -21h-80q-29 0 -47 21l-213 235q-16 20 -9 35.5t33 15.5h121q31 0 51 -22l99 -119l100 119q20 23 51 22h127q27 0 34 -15.5t-9 -35.5zM1069 1470q0 45 45 46h115q45 0 45 -46v-1425q0 -45 -45 -45h-82q-33 0 -49 25l-776 1108v-1088 q0 -45 -46 -45h-114q-45 0 -45 45v1425q0 45 45 46h80q33 0 49 -25l778 -1110v1089z" glyph-name="Ncaron" horiz-adv-x="1380" unicode="Ň"/><glyph d="M455 1159l-213 236q-16 20 -10 35.5t32 15.5h123q33 0 49 -23l101 -118l100 118q20 23 51 23h127q27 0 34 -15.5t-11 -35.5l-211 -236q-18 -20 -47 -20h-80q-27 0 -45 20zM551 1040q178 0 302 -127t124 -307v-561q0 -45 -45 -45h-115q-45 0 -45 45v561q0 94 -67.5 162 t-163.5 68q-94 0 -162 -68t-68 -162v-561q0 -45 -45 -45h-114q-45 0 -46 45v934q0 45 46 45h81q41 0 41 -41v-45q123 102 277 102z" glyph-name="ncaron" horiz-adv-x="1062" unicode="ň"/><glyph d="M1094 1624h-465q-41 0 -41 43v92q0 41 41 41h465q41 0 41 -41v-92q0 -43 -41 -43zM856 1530q319 0 544.5 -226.5t225.5 -543.5q0 -319 -225 -545.5t-545 -226.5q-317 0 -543.5 226t-226.5 546q0 317 226.5 543.5t543.5 226.5zM856 1323q-233 0 -399 -166t-166 -397 q0 -236 166 -401.5t399 -165.5q231 0 398 166.5t167 400.5q0 231 -167 397t-398 166z" glyph-name="Omacron" horiz-adv-x="1712" unicode="Ō"/><glyph d="M846 1139h-465q-41 0 -41 43v92q0 41 41 41h465q41 0 41 -41v-92q0 -43 -41 -43zM604 1040q219 0 374 -155.5t155 -372.5t-155 -372.5t-374 -155.5t-373.5 155.5t-154.5 372.5t154.5 372.5t373.5 155.5zM604 834q-133 0 -228 -94.5t-95 -227.5t95 -227.5t228 -94.5 t226.5 94.5t93.5 227.5t-93.5 227.5t-226.5 94.5z" glyph-name="omacron" horiz-adv-x="1206" unicode="ō"/><glyph d="M678 1620l-57 53q-35 31 -5 64l248 276q33 33 64 2l57 -51q37 -31 4 -63l-248 -279q-32 -33 -63 -2zM969 1620l-58 53q-35 31 -2 64l246 276q33 33 64 2l59 -51q35 -33 4 -63l-250 -279q-30 -35 -63 -2zM856 1530q319 0 544.5 -226.5t225.5 -543.5q0 -319 -225 -545.5 t-545 -226.5q-317 0 -543.5 226t-226.5 546q0 317 226.5 543.5t543.5 226.5zM856 1323q-233 0 -399 -166t-166 -397q0 -236 166 -401.5t399 -165.5q231 0 398 166.5t167 400.5q0 231 -167 397t-398 166z" glyph-name="Ohungarumlaut" horiz-adv-x="1712" unicode="Ő"/><glyph d="M428 1135l-57 53q-31 31 -2 63l247 277q31 33 62 2l59 -51q35 -33 4 -64l-247 -278q-35 -35 -66 -2zM721 1135l-57 53q-35 31 -5 63l248 277q33 33 64 2l59 -51q35 -31 4 -64l-250 -278q-32 -33 -63 -2zM604 1040q219 0 374 -155.5t155 -372.5t-155 -372.5t-374 -155.5 t-373.5 155.5t-154.5 372.5t154.5 372.5t373.5 155.5zM604 834q-133 0 -228 -94.5t-95 -227.5t95 -227.5t228 -94.5t226.5 94.5t93.5 227.5t-93.5 227.5t-226.5 94.5z" glyph-name="ohungarumlaut" horiz-adv-x="1206" unicode="ő"/><glyph d="M2142 207q45 0 45 -45v-117q0 -45 -45 -45h-676q-45 0 -45 45v199q-102 -123 -249.5 -191.5t-315.5 -68.5q-319 0 -544.5 225t-225.5 544.5t225.5 546t544.5 226.5q168 0 314.5 -70t250.5 -190v204q0 45 45 46h676q45 0 45 -46v-114q0 -45 -45 -45h-516v-463h481 q41 0 41 -41v-98q0 -41 -41 -41h-481v-461h516zM1421 754q0 236 -164.5 400.5t-400.5 164.5q-233 0 -399 -166t-166 -399q0 -236 165 -401t400 -165q233 0 399 166.5t166 399.5z" glyph-name="OE" horiz-adv-x="2283" unicode="Œ"/><glyph d="M82 512q0 217 155.5 372.5t372.5 155.5q125 0 234.5 -56t181.5 -155q68 98 177.5 154.5t238.5 56.5q215 0 360.5 -150.5t159.5 -397.5q0 -45 -45 -46h-780q31 -123 121 -193.5t204 -70.5q139 0 273 107q35 29 63 -6l66 -80q29 -35 -4 -64q-176 -156 -400 -155 q-133 0 -243.5 59t-182.5 160q-72 -100 -184.5 -159.5t-239.5 -59.5q-217 0 -372.5 155.5t-155.5 372.5zM1139 610h602q-18 106 -103.5 179t-197.5 73q-111 0 -197 -69.5t-104 -182.5zM289 512q0 -133 94 -227.5t227 -94.5t227.5 94.5t94.5 227.5t-94.5 227.5t-227.5 94.5 t-227 -94.5t-94 -227.5z" glyph-name="oe" horiz-adv-x="2037" unicode="œ"/><glyph d="M338 1657l-41 78q-18 39 18 61l326 176q41 23 61 -20l43 -76q23 -39 -16 -61l-330 -177q-41 -22 -61 19zM1042 49q12 -20 4 -34.5t-32 -14.5h-144q-35 0 -49 29l-350 604h-149v-588q0 -45 -46 -45h-116q-45 0 -45 45v1425q0 45 45 46h409q182 0 311.5 -129.5 t129.5 -311.5q0 -152 -91.5 -269.5t-232.5 -156.5zM322 1309v-469h247q96 0 166 68.5t70 166.5q0 96 -69.5 165t-166.5 69h-247z" glyph-name="Racute" horiz-adv-x="1126" unicode="Ŕ"/><glyph d="M217 1176l-41 77q-18 41 19 62l325 176q41 23 62 -21l43 -75q25 -39 -19 -62l-327 -176q-42 -22 -62 19zM610 1024q45 0 45 -45v-107q0 -45 -45 -45h-69q-98 0 -164 -58t-66 -153v-571q0 -45 -45 -45h-114q-45 0 -46 45v934q0 45 46 45h81q41 0 41 -41v-43q88 84 242 84 h94z" glyph-name="racute" horiz-adv-x="710" unicode="ŕ"/><glyph d="M381 1634l-213 236q-16 20 -10 35.5t32 15.5h123q33 0 49 -23l101 -118l100 116q23 25 51 25h127q27 0 34 -15.5t-9 -35.5l-213 -236q-18 -20 -47 -20h-80q-27 0 -45 20zM1042 49q12 -20 4 -34.5t-32 -14.5h-144q-35 0 -49 29l-350 604h-149v-588q0 -45 -46 -45h-116 q-45 0 -45 45v1425q0 45 45 46h409q182 0 311.5 -129.5t129.5 -311.5q0 -152 -91.5 -269.5t-232.5 -156.5zM322 1309v-469h247q96 0 166 68.5t70 166.5q0 96 -69.5 165t-166.5 69h-247z" glyph-name="Rcaron" horiz-adv-x="1126" unicode="Ř"/><glyph d="M305 1133q-27 0 -45 20l-213 236q-16 20 -10 35.5t33 15.5h123q33 0 49 -23l100 -119l100 117q20 25 52 25h127q27 0 34 -15.5t-10 -35.5l-213 -236q-18 -20 -47 -20h-80zM610 1024q45 0 45 -45v-107q0 -45 -45 -45h-69q-98 0 -164 -58t-66 -153v-571q0 -45 -45 -45h-114 q-45 0 -46 45v934q0 45 46 45h81q41 0 41 -41v-43q88 84 242 84h94z" glyph-name="rcaron" horiz-adv-x="710" unicode="ř"/><glyph d="M365 1669l-41 78q-18 37 18 59l326 176q41 23 61 -20l43 -76q23 -39 -16 -61l-330 -174q-41 -25 -61 18zM526 -16q-205 0 -405 155q-35 31 -15 64l64 106q23 35 59 10q156 -117 287 -116q94 0 158.5 59.5t64.5 145.5q0 92 -88 167q-53 45 -237 138q-154 76 -241 172 t-79 245q8 178 136 290t311 108q147 -2 278 -82q33 -25 12 -57l-61 -91q-23 -33 -57 -14q-96 53 -181 53q-92 0 -158.5 -62.5t-66.5 -152.5q0 -45 17.5 -79.5t60.5 -64.5t70.5 -45t95.5 -46q74 -33 129 -64.5t128 -91t114 -142.5t41 -183q0 -178 -124.5 -300t-312.5 -122z " glyph-name="Sacute" horiz-adv-x="1040" unicode="Ś"/><glyph d="M289 1184l-41 78q-18 39 20 59l324 176q39 20 63 -20l43 -76q20 -39 -18 -62l-330 -174q-38 -22 -61 19zM692 911l-43 -73q-23 -37 -61 -15q-86 45 -162 45q-61 0 -104 -28.5t-43 -73.5q0 -33 28.5 -58.5t56 -38t95.5 -36.5q135 -47 221 -132t86 -204q0 -131 -100.5 -222 t-253.5 -91q-150 0 -303 82q-37 20 -19 61l43 90q18 39 60 21q119 -57 213 -58q72 0 109.5 36t37.5 85t-46 85t-159 79q-55 23 -88 39t-82 51t-73.5 86t-24.5 115q0 127 96 205.5t244 78.5q129 0 254 -69q41 -19 18 -60z" glyph-name="sacute" horiz-adv-x="833" unicode="ś"/><glyph d="M963 406q0 -158 -100.5 -275t-260.5 -141v-51q68 -25 111 -83.5t43 -131.5q0 -94 -65.5 -159t-160.5 -65q-82 0 -144 50.5t-77 130.5q-6 39 37 38h70q23 0 39 -28q20 -49 75 -49q35 0 58.5 23.5t23.5 58t-23.5 58t-58.5 23.5h-34q-39 0 -39 39v144q-170 25 -336 151 q-35 31 -15 64l64 106q23 35 59 10q156 -117 287 -116q94 0 158.5 59.5t64.5 145.5q0 66 -51 125t-94 84.5t-150 78.5q-20 10 -30 17q-154 76 -241 172t-79 245q8 178 136 290t311 108q147 -2 278 -82q33 -25 12 -57l-61 -91q-23 -33 -57 -14q-96 53 -181 53 q-92 0 -158.5 -62.5t-66.5 -152.5q0 -45 17.5 -79.5t60.5 -64.5t70.5 -45t95.5 -46q74 -33 129 -64.5t128 -91t114 -142.5t41 -183z" glyph-name="Scedilla" horiz-adv-x="1040" unicode="Ş"/><glyph d="M766 297q0 -111 -74 -196t-194 -109v-53q68 -25 110.5 -84.5t42.5 -130.5q0 -94 -65.5 -159t-159.5 -65q-82 0 -145.5 50.5t-77.5 130.5q-6 39 37 38h69q27 0 39 -28q20 -49 76 -49q35 0 59.5 23.5t24.5 58t-24.5 58t-59.5 23.5h-35q-37 0 -37 39v144q-125 14 -243 78 q-37 20 -19 61l43 90q18 39 60 21q119 -57 213 -58q72 0 109.5 36t37.5 85t-46 85t-159 79q-55 23 -88 39t-82 51t-73.5 86t-24.5 115q0 127 96 205.5t244 78.5q129 0 254 -69q41 -18 18 -60l-43 -73q-23 -37 -61 -15q-86 45 -162 45q-61 0 -104 -28.5t-43 -73.5 q0 -33 28.5 -58.5t56 -38t95.5 -36.5q135 -47 221 -132t86 -204z" glyph-name="scedilla" horiz-adv-x="833" unicode="ş"/><glyph d="M793 1880l-213 -235q-18 -20 -48 -21h-79q-27 0 -45 21l-213 235q-16 20 -10.5 35.5t32.5 15.5h123q33 0 49 -22l100 -119l101 119q20 23 51 22h127q27 0 34 -15.5t-9 -35.5zM526 -16q-205 0 -405 155q-35 31 -15 64l64 106q23 35 59 10q156 -117 287 -116 q94 0 158.5 59.5t64.5 145.5q0 92 -88 167q-53 45 -237 138q-154 76 -241 172t-79 245q8 178 136 290t311 108q147 -2 278 -82q33 -25 12 -57l-61 -91q-23 -33 -57 -14q-96 53 -181 53q-92 0 -158.5 -62.5t-66.5 -152.5q0 -45 17.5 -79.5t60.5 -64.5t70.5 -45t95.5 -46 q74 -33 129 -64.5t128 -91t114 -142.5t41 -183q0 -178 -124.5 -300t-312.5 -122z" glyph-name="Scaron" horiz-adv-x="1040" unicode="Š"/><glyph d="M717 1395l-213 -236q-18 -20 -45 -20h-80q-29 0 -47 20l-213 236q-16 20 -9 35.5t33 15.5h121q31 0 51 -23l99 -118l102 118q16 23 51 23h127q27 0 33 -15.5t-10 -35.5zM692 911l-43 -73q-23 -37 -61 -15q-86 45 -162 45q-61 0 -104 -28.5t-43 -73.5q0 -33 28.5 -58.5 t56 -38t95.5 -36.5q135 -47 221 -132t86 -204q0 -131 -100.5 -222t-253.5 -91q-150 0 -303 82q-37 20 -19 61l43 90q18 39 60 21q119 -57 213 -58q72 0 109.5 36t37.5 85t-46 85t-159 79q-55 23 -88 39t-82 51t-73.5 86t-24.5 115q0 127 96 205.5t244 78.5q129 0 254 -69 q41 -19 18 -60z" glyph-name="scaron" horiz-adv-x="833" unicode="š"/><glyph d="M940 1516q45 0 45 -46v-116q0 -45 -45 -45h-313v-1264q0 -37 -31 -43v-63q68 -25 111 -84.5t43 -130.5q0 -94 -67 -159t-161 -65q-82 0 -144.5 50.5t-76.5 130.5q-6 39 37 38h70q27 0 38 -28q20 -49 76 -49q35 0 59.5 23.5t24.5 58t-24.5 58t-59.5 23.5h-35q-37 0 -36 39 v158q-29 10 -29 43v1264h-311q-45 0 -45 45v116q0 45 45 46h829z" glyph-name="Tcommaaccent" horiz-adv-x="1038" unicode="Ţ"/><glyph d="M606 844h-295v-479q0 -66 46 -112t114 -46h127q45 0 45 -45v-117q0 -45 -45 -45h-111v-61q68 -25 111 -83.5t43 -131.5q0 -94 -65.5 -159t-159.5 -65q-82 0 -144.5 50.5t-76.5 130.5q-6 39 36 38h70q23 0 39 -28q20 -49 76 -49q35 0 58.5 23.5t23.5 58t-23.5 58 t-58.5 23.5h-35q-39 0 -39 39v172q-111 35 -173.5 126t-62.5 225v938q0 45 46 45h114q45 0 45 -45v-281h295q41 0 41 -41v-98q0 -41 -41 -41z" glyph-name="tcommaaccent" horiz-adv-x="702" unicode="ţ"/><glyph d="M819 1870l-213 -236q-18 -20 -45 -20h-80q-29 0 -47 20l-213 236q-16 20 -9 35.5t34 15.5h121q31 0 51 -23l98 -118l100 116q23 25 52 25h127q27 0 33.5 -15.5t-9.5 -35.5zM940 1516q45 0 45 -46v-116q0 -45 -45 -45h-313v-1264q0 -45 -45 -45h-115q-45 0 -45 45v1264 h-311q-45 0 -45 45v116q0 45 45 46h829z" glyph-name="Tcaron" horiz-adv-x="1038" unicode="Ť"/><glyph d="M825 1624h-465q-41 0 -41 43v92q0 41 41 41h465q41 0 41 -41v-92q0 -43 -41 -43zM585.5 -12q-198.5 0 -339 140t-140.5 339v1003q0 45 46 46h114q45 0 45 -46v-1003q0 -113 81 -192.5t193.5 -79.5t193.5 79.5t81 192.5v1003q0 45 45 46h115q47 0 47 -46v-1003 q0 -199 -141.5 -339t-340 -140z" glyph-name="Umacron" horiz-adv-x="1161" unicode="Ū"/><glyph d="M776 1139h-463q-43 0 -43 43v92q0 41 43 41h463q43 0 43 -41v-92q0 -43 -43 -43zM540.5 -16q-180.5 0 -307.5 127t-127 307v561q0 45 46 45h112q45 0 45 -45v-561q0 -94 68.5 -162t163 -68t162 68t67.5 162v561q0 45 45 45h115q45 0 45 -45v-561q0 -180 -127 -307 t-307.5 -127z" glyph-name="umacron" horiz-adv-x="1060" unicode="ū"/><glyph d="M584 2046q88 0 149.5 -61.5t61.5 -149.5q0 -86 -61.5 -148.5t-149.5 -62.5t-149.5 62.5t-61.5 148.5q0 88 61.5 149.5t149.5 61.5zM584 1923q-35 0 -61.5 -25.5t-26.5 -62.5t25.5 -61.5t62.5 -24.5t62.5 24.5t25.5 61.5t-25.5 62.5t-62.5 25.5zM585.5 -12 q-198.5 0 -339 140t-140.5 339v1003q0 45 46 46h114q45 0 45 -46v-1003q0 -113 81 -192.5t193.5 -79.5t193.5 79.5t81 192.5v1003q0 45 45 46h115q47 0 47 -46v-1003q0 -199 -141.5 -339t-340 -140z" glyph-name="Uring" horiz-adv-x="1161" unicode="Ů"/><glyph d="M535 1561q88 0 149 -61.5t61 -149.5q0 -86 -61 -148.5t-149 -62.5q-86 0 -148.5 62.5t-62.5 148.5q0 88 62.5 149.5t148.5 61.5zM535 1438q-35 0 -62 -26t-27 -62.5t26 -61t62.5 -24.5t63.5 24.5t27 61t-26.5 62.5t-63.5 26zM540.5 -16q-180.5 0 -307.5 127t-127 307v561 q0 45 46 45h112q45 0 45 -45v-561q0 -94 68.5 -162t163 -68t162 68t67.5 162v561q0 45 45 45h115q45 0 45 -45v-561q0 -180 -127 -307t-307.5 -127z" glyph-name="uring" horiz-adv-x="1060" unicode="ů"/><glyph d="M410 1620l-58 53q-35 31 -4 64l248 276q33 33 63 2l60 -51q35 -31 4 -63l-250 -279q-32 -33 -63 -2zM700 1620l-57 53q-35 31 -2 64l246 276q33 33 63 2l60 -51q35 -33 4 -63l-250 -279q-31 -35 -64 -2zM585.5 -12q-198.5 0 -339 140t-140.5 339v1003q0 45 46 46h114 q45 0 45 -46v-1003q0 -113 81 -192.5t193.5 -79.5t193.5 79.5t81 192.5v1003q0 45 45 46h115q47 0 47 -46v-1003q0 -199 -141.5 -339t-340 -140z" glyph-name="Uhungarumlaut" horiz-adv-x="1161" unicode="Ű"/><glyph d="M360 1135l-57 53q-35 31 -2 63l246 277q33 33 63 2l60 -51q35 -33 4 -64l-250 -278q-31 -35 -64 -2zM653 1135l-57 53q-35 31 -4 63l248 277q29 33 63 2l58 -51q35 -33 4 -64l-248 -278q-33 -33 -64 -2zM540.5 -16q-180.5 0 -307.5 127t-127 307v561q0 45 46 45h112 q45 0 45 -45v-561q0 -94 68.5 -162t163 -68t162 68t67.5 162v561q0 45 45 45h115q45 0 45 -45v-561q0 -180 -127 -307t-307.5 -127z" glyph-name="uhungarumlaut" horiz-adv-x="1073" unicode="ű"/><glyph d="M1067 467q0 -154 -90 -279t-232 -174q-55 -72 -55 -147q0 -74 55.5 -116t124.5 -25q27 4 37 -15l19 -30q16 -29 -17 -41q-49 -16 -94 -17q-102 0 -173 72t-71 174q0 61 23 119h-8q-199 0 -339.5 140t-140.5 339v1003q0 45 46 46h114q45 0 45 -46v-1003q0 -113 81 -192.5 t193.5 -79.5t193.5 79.5t81 192.5v1003q0 45 45 46h115q47 0 47 -46v-1003z" glyph-name="Uogonek" horiz-adv-x="1161" unicode="Ų"/><glyph d="M975 418q0 -133 -73 -241.5t-191 -158.5q-57 -76 -58 -151q0 -74 55.5 -116t125.5 -25q27 4 36 -15l19 -30q16 -29 -17 -41q-49 -16 -94 -17q-102 0 -172.5 72t-70.5 174q0 61 20 115h-14q-180 0 -307.5 127t-127.5 307v561q0 45 46 45h112q45 0 45 -45v-561 q0 -94 68.5 -162t163 -68t162 68t67.5 162v561q0 45 45 45h115q45 0 45 -45v-561z" glyph-name="uogonek" horiz-adv-x="1060" unicode="ų"/><glyph d="M1217 1624h-127q-33 0 -52 25l-102 118l-98 -118q-18 -25 -52 -25h-120q-27 0 -34 15.5t11 35.5l213 236q16 20 45 20h80q31 0 45 -20l213 -236q18 -20 11.5 -35.5t-33.5 -15.5zM1763 1516q23 0 32 -13.5t3 -34.5l-399 -1433q-8 -35 -47 -35h-90q-39 0 -45 35l-275 1030 l-270 -1030q-10 -35 -47 -35h-90q-37 0 -46 35l-401 1433q-6 20 3 34t32 14h137q37 0 45 -35l291 -1035l270 1027q8 29 39 28h76q31 0 39 -28l270 -1027l291 1035q8 35 45 35h137z" glyph-name="Wcircumflex" horiz-adv-x="1875" unicode="Ŵ"/><glyph d="M1130 1139h-126q-29 0 -52 24l-100 119l-100 -119q-18 -25 -52 -24h-120q-27 0 -34 15t11 36l213 235q16 20 45 21h80q29 0 47 -21l211 -235q18 -20 11 -35.5t-34 -15.5zM786 963q8 27 39 26h68q31 0 39 -26l244 -641l249 669q10 33 45 33h132q49 0 32 -47l-364 -944 q-12 -33 -49 -33h-72q-35 0 -47 33l-242 643l-246 -643q-12 -33 -47 -33h-71q-35 0 -47 33l-369 944q-16 47 33 47h135q35 0 45 -33l250 -669z" glyph-name="wcircumflex" horiz-adv-x="1703" unicode="ŵ"/><glyph d="M915 1624h-127q-31 0 -51 25l-100 118l-100 -118q-16 -25 -50 -25h-122q-27 0 -33 15.5t10 35.5l213 236q14 20 45 20h80q33 0 47 -20l211 -236q18 -20 11 -35.5t-34 -15.5zM1167 1516q25 0 33 -14.5t-4 -35.5l-444 -761v-660q0 -45 -45 -45h-113q-45 0 -45 45v660 l-445 761q-12 20 -3.5 35t32.5 15h158q35 0 49 -29l309 -535l309 535q16 29 50 29h159z" glyph-name="Ycircumflex" horiz-adv-x="1290" unicode="Ŷ"/><glyph d="M809 1139h-127q-31 0 -51 24l-103 119l-98 -119q-18 -25 -51 -24h-121q-27 0 -34 15t12 36l213 235q14 20 45 21h79q31 0 45 -21l213 -235q18 -20 11.5 -35.5t-33.5 -15.5zM995 1024q49 0 33 -47l-418 -1014q-117 -285 -391 -379q-41 -12 -57 31l-37 98q-14 43 29 60 q201 74 286 311l-366 893q-16 47 32 47h136q37 0 49 -33l260 -635l258 635q12 33 47 33h139z" glyph-name="ycircumflex" horiz-adv-x="1132" unicode="ŷ"/><glyph d="M592 1716q0 -37 -26.5 -64.5t-65.5 -27.5t-66.5 27.5t-27.5 64.5q0 39 27.5 66.5t66.5 27.5t65.5 -27.5t26.5 -66.5zM874 1716q0 -37 -26.5 -64.5t-65.5 -27.5t-65.5 27.5t-26.5 64.5q0 39 26.5 66.5t65.5 27.5t65.5 -27.5t26.5 -66.5zM1167 1516q25 0 33 -14.5t-4 -35.5 l-444 -761v-660q0 -45 -45 -45h-113q-45 0 -45 45v660l-445 761q-12 20 -3.5 35t32.5 15h158q35 0 49 -29l309 -535l309 535q16 29 50 29h159z" glyph-name="Ydieresis" horiz-adv-x="1290" unicode="Ÿ"/><glyph d="M465 1673l-41 78q-18 41 20 61l324 177q39 20 63 -21l41 -76q23 -39 -16 -61l-330 -176q-41 -23 -61 18zM1135 207q45 0 45 -45v-117q0 -45 -45 -45h-979q-45 0 -45 45v131q0 29 18 55l766 1092h-774q-45 0 -45 45v102q0 45 45 46h983q45 0 45 -46v-110q0 -29 -16 -55 l-771 -1098h773z" glyph-name="Zacute" horiz-adv-x="1243" unicode="Ź"/><glyph d="M344 1184l-41 78q-18 37 19 59l325 176q41 23 62 -20l43 -76q23 -41 -19 -62l-330 -174q-41 -22 -59 19zM860 205q45 0 45 -45v-115q0 -45 -45 -45h-735q-45 0 -45 45v127q0 33 22 57l545 613h-530q-41 0 -41 41v100q0 41 41 41h725q45 0 45 -45v-107q0 -33 -23 -57 l-530 -610h526z" glyph-name="zacute" horiz-adv-x="970" unicode="ź"/><glyph d="M682 1722q0 -39 -26.5 -65.5t-65.5 -26.5t-66.5 26.5t-27.5 65.5t27.5 67t66.5 28t65.5 -28t26.5 -67zM1135 207q45 0 45 -45v-117q0 -45 -45 -45h-979q-45 0 -45 45v131q0 29 18 55l766 1092h-774q-45 0 -45 45v102q0 45 45 46h983q45 0 45 -46v-110q0 -29 -16 -55 l-771 -1098h773z" glyph-name="Zdotaccent" horiz-adv-x="1243" unicode="Ż"/><glyph d="M561 1231q0 -37 -27.5 -64.5t-66.5 -27.5t-65.5 27.5t-26.5 64.5q0 39 26.5 66.5t65.5 27.5t66.5 -27.5t27.5 -66.5zM860 205q45 0 45 -45v-115q0 -45 -45 -45h-735q-45 0 -45 45v127q0 33 22 57l545 613h-530q-41 0 -41 41v100q0 41 41 41h725q45 0 45 -45v-107 q0 -33 -23 -57l-530 -610h526z" glyph-name="zdotaccent" horiz-adv-x="970" unicode="ż"/><glyph d="M893 1886l-213 -235q-18 -20 -47 -21h-80q-27 0 -45 21l-213 235q-16 20 -10 35.5t32 15.5h123q33 0 49 -22l101 -119l100 117q23 25 51 24h127q27 0 34 -15.5t-9 -35.5zM1135 207q45 0 45 -45v-117q0 -45 -45 -45h-979q-45 0 -45 45v131q0 29 18 55l766 1092h-774 q-45 0 -45 45v102q0 45 45 46h983q45 0 45 -46v-110q0 -29 -16 -55l-771 -1098h773z" glyph-name="Zcaron" horiz-adv-x="1243" unicode="Ž"/><glyph d="M770 1395l-211 -236q-18 -20 -47 -20h-80q-27 0 -45 20l-213 236q-16 20 -10 35.5t33 15.5h122q33 0 50 -23l100 -118l100 118q20 23 52 23h127q27 0 33.5 -15.5t-11.5 -35.5zM860 205q45 0 45 -45v-115q0 -45 -45 -45h-735q-45 0 -45 45v127q0 33 22 57l545 613h-530 q-41 0 -41 41v100q0 41 41 41h725q45 0 45 -45v-107q0 -33 -23 -57l-530 -610h526z" glyph-name="zcaron" horiz-adv-x="970" unicode="ž"/><glyph d="M674 1229q-68 0 -115 -48t-47 -116v-219h283q41 0 41 -41v-94q0 -41 -41 -41h-283v-746q0 -147 -98.5 -240.5t-235.5 -93.5h-57q-45 0 -45 45v117q0 45 45 45h57q53 0 91 38t38 89v1141q0 170 104.5 269.5t262.5 99.5h117q45 0 45 -45v-115q0 -45 -45 -45h-117z" glyph-name="florin" horiz-adv-x="901" unicode="ƒ"/><glyph d="M477 53q0 -311 -268 -459q-41 -23 -66 17l-59 98q-23 37 18 62q168 115 168 282v926q0 45 45 45h117q45 0 45 -45v-926z" glyph-name="uni0237" horiz-adv-x="575" unicode="ȷ"/><glyph d="M705 1167h-127q-33 0 -52 25l-102 117l-98 -119q-20 -23 -52 -23h-120q-27 0 -34 15.5t11 36.5l211 235q20 20 47 21h80q27 0 45 -21l213 -235q18 -20 11.5 -36t-33.5 -16z" glyph-name="circumflex" horiz-adv-x="858" unicode="ˆ"/><glyph d="M727 1423l-213 -235q-18 -20 -45 -21h-80q-27 0 -47 21l-211 235q-18 20 -11 36t34 16h120q31 0 52 -23l98 -119l102 117q18 25 52 25h127q27 0 33.5 -16t-11.5 -36z" glyph-name="caron" horiz-adv-x="858" unicode="ˇ"/><glyph d="M333.5 1165q-108.5 0 -178 65.5t-69.5 155.5v27q0 43 41 43h66q39 0 38 -39v-14q0 -39 30 -65.5t73 -26.5q41 0 70.5 26.5t29.5 65.5v14q0 39 39 39h66q41 0 41 -41v-29q0 -90 -69 -155.5t-177.5 -65.5z" glyph-name="breve" horiz-adv-x="665" unicode="˘"/><glyph d="M270 1259.5q0 -38.5 -26.5 -65.5t-65.5 -27t-65.5 27t-26.5 65.5t26.5 66.5t65.5 28t65.5 -28t26.5 -66.5z" glyph-name="dotaccent" horiz-adv-x="356" unicode="˙"/><glyph d="M297 1589q88 0 149.5 -61.5t61.5 -149.5t-61.5 -149.5t-149.5 -61.5t-149.5 61.5t-61.5 149.5t61.5 149.5t149.5 61.5zM297 1466q-37 0 -62.5 -25.5t-25.5 -62.5t25.5 -62.5t62.5 -25.5q35 0 61.5 25.5t26.5 62.5t-26.5 62.5t-61.5 25.5z" glyph-name="ring" horiz-adv-x="591" unicode="˚"/><glyph d="M330 -389q-102 0 -173 71.5t-71 174.5q0 94 43 157h139q-63 -78 -63 -159q0 -74 55 -116t125 -26q27 4 37 -14l18 -31q16 -29 -16 -41q-49 -16 -94 -16z" glyph-name="ogonek" horiz-adv-x="540" unicode="˛"/><glyph d="M195 1190l-76 51q-39 25 -8 57q78 94 188 95q43 0 108.5 -28t98.5 -28q51 0 88 43q29 29 57 11l80 -50q39 -25 10 -59q-88 -109 -219 -108q-57 0 -117.5 26.5t-82.5 26.5q-37 0 -70 -29q-28 -28 -57 -8z" glyph-name="tilde" horiz-adv-x="854" unicode="˜"/><glyph d="M182 1161l-57 53q-33 33 -4 66l248 274q33 33 63 5l60 -54q33 -29 4 -61l-250 -279q-33 -35 -64 -4zM473 1161l-57 53q-35 35 -2 66l245 274q33 33 64 5l59 -54q35 -31 4 -61l-249 -279q-31 -37 -64 -4z" glyph-name="hungarumlaut" horiz-adv-x="786" unicode="˝"/><glyph d="M-207 1192l-330 176q-37 23 -16 62l41 75q25 41 63 21l324 -176q39 -20 21 -62l-41 -78q-21 -41 -62 -18z" glyph-name="gravecomb" unicode="̀"/><glyph d="M-393 1210l-39 78q-20 39 18 62l326 176q41 23 61 -21l43 -75q20 -39 -18 -62l-330 -176q-36 -23 -61 18z" glyph-name="acutecomb" unicode="́"/><glyph d="M-154 1167h-127q-33 0 -51 25l-102 117l-98 -119q-20 -23 -52 -23h-121q-27 0 -33.5 15.5t11.5 36.5l211 235q20 20 47 21h80q27 0 45 -21l213 -235q18 -20 11 -36t-34 -16z" glyph-name="uni0302" unicode="̂"/><glyph d="M-659 1190l-76 51q-39 25 -8 57q78 94 188 95q43 0 108.5 -28t98.5 -28q51 0 88 43q29 29 57 11l80 -50q39 -25 10 -59q-88 -109 -219 -108q-57 0 -117.5 26.5t-82.5 26.5q-37 0 -70 -29q-28 -28 -57 -8z" glyph-name="tildecomb" unicode="̃"/><glyph d="M-127 1167h-465q-41 0 -41 41v95q0 41 41 40h465q41 0 41 -40v-95q0 -41 -41 -41z" glyph-name="uni0304" unicode="̄"/><glyph d="M-331.5 1165q-108.5 0 -178.5 65.5t-70 155.5v27q0 43 41 43h66q39 0 39 -39v-14q0 -39 29.5 -65.5t72.5 -26.5q41 0 71 26.5t30 65.5v14q0 39 38 39h66q41 0 41 -41v-29q0 -90 -68.5 -155.5t-177 -65.5z" glyph-name="uni0306" unicode="̆"/><glyph d="M-86 1259.5q0 -38.5 -26.5 -65.5t-65.5 -27t-65.5 27t-26.5 65.5t26.5 66.5t65.5 28t65.5 -28t26.5 -66.5z" glyph-name="uni0307" unicode="̇"/><glyph d="M-369 1259.5q0 -38.5 -26.5 -65.5t-65.5 -27t-65.5 27t-26.5 65.5t26.5 66.5t65.5 28t65.5 -28t26.5 -66.5zM-84 1259.5q0 -38.5 -26.5 -65.5t-65.5 -27t-65.5 27t-26.5 65.5t26.5 66.5t65.5 28t65.5 -28t26.5 -66.5z" glyph-name="uni0308" unicode="̈"/><glyph d="M-295 1589q88 0 149.5 -61.5t61.5 -149.5t-61.5 -149.5t-149.5 -61.5t-149.5 61.5t-61.5 149.5t61.5 149.5t149.5 61.5zM-295 1466q-37 0 -62.5 -25.5t-25.5 -62.5t25.5 -62.5t62.5 -25.5q35 0 61.5 25.5t26.5 62.5t-26.5 62.5t-61.5 25.5z" glyph-name="uni030A" unicode="̊"/><glyph d="M-604 1161l-58 53q-33 33 -4 66l248 274q33 33 64 5l59 -54q33 -29 4 -61l-250 -279q-32 -35 -63 -4zM-313 1161l-58 53q-35 35 -2 66l246 274q33 33 64 5l59 -54q35 -31 4 -61l-250 -279q-30 -37 -63 -4z" glyph-name="uni030B" unicode="̋"/><glyph d="M-131 1423l-213 -235q-18 -20 -45 -21h-80q-27 0 -47 21l-211 235q-18 20 -11 36t33 16h121q31 0 52 -23l98 -119l102 117q18 25 51 25h127q27 0 34 -16t-11 -36z" glyph-name="uni030C" unicode="̌"/><glyph d="M-311 -500q-82 0 -144.5 50.5t-76.5 130.5q-6 39 36 38h70q23 0 39 -28q20 -49 76 -49q35 0 59.5 23.5t24.5 58t-24.5 58t-59.5 23.5h-35q-37 0 -37 39v181h145v-86q68 -25 111 -84.5t43 -130.5q0 -94 -66.5 -159t-160.5 -65z" glyph-name="uni0327" unicode="̧"/><glyph d="M-211 -389q-102 0 -173 71.5t-71 174.5q0 94 43 157h140q-63 -78 -64 -159q0 -74 55.5 -116t124.5 -26q27 4 37 -14l19 -31q16 -29 -17 -41q-49 -16 -94 -16z" glyph-name="uni0328" unicode="̨"/><glyph d="M-127 477h-465q-41 0 -41 41v92q0 43 41 43h465q41 0 41 -43v-92q0 -41 -41 -41z" glyph-name="uni0335" unicode="̵"/><glyph d="M-815 49l555 1434q12 33 47 33h96q23 0 32 -14.5t1 -35.5l-557 -1433q-12 -33 -47 -33h-94q-23 0 -32 14.5t-1 34.5z" glyph-name="uni0338" unicode="̸"/><glyph d="M1014 45v1266h-703v-1266q0 -45 -45 -45h-114q-45 0 -46 45v1425q0 45 46 46h1024q45 0 45 -46v-1425q0 -45 -45 -45h-115q-47 0 -47 45z" glyph-name="Pi" horiz-adv-x="1314" unicode="Π"/><glyph d="M1769 195q45 0 46 -48v-102q0 -45 -46 -45h-534q-45 0 -45 45v117q0 33 33 53q135 80 210.5 220t75.5 300q0 246 -163.5 420t-395 174t-395.5 -174t-164 -420q0 -164 77 -303t210 -217q33 -20 33 -55v-115q0 -45 -45 -45h-535q-45 0 -45 45v102q0 47 45 48h260 q-207 225 -207 540q0 330 224.5 564.5t542 234.5t541.5 -234.5t224 -564.5q0 -315 -207 -540h260z" glyph-name="Omega" horiz-adv-x="1900" unicode="Ω"/><glyph d="M772 979q0 45 47 45h113q45 0 45 -45v-561q0 -180 -127 -308t-307 -128q-135 0 -234 79v-426q0 -45 -45 -45h-112q-45 0 -46 45v1344q0 45 46 45h112q45 0 45 -45v-561q0 -94 68.5 -162t165.5 -68q94 0 161.5 68t67.5 162v561z" glyph-name="mu" horiz-adv-x="1052" unicode="μ"/><glyph d="M1227 205h49q45 0 45 -45v-115q0 -45 -45 -45h-49q-139 0 -237.5 98.5t-98.5 237.5v483h-338l-176 -780q-8 -39 -51 -39h-119q-51 0 -39 49l176 770h-192q-45 0 -46 45v115q0 45 46 45h897q45 0 45 -45v-643q0 -55 39 -93t94 -38z" glyph-name="pi" horiz-adv-x="1394" unicode="π"/><glyph d="M999 1651l-329 174q-37 23 -17 61l43 76q23 43 62 20l325 -176q37 -23 19 -59l-41 -78q-21 -43 -62 -18zM1763 1516q23 0 32 -13.5t3 -34.5l-399 -1433q-8 -35 -47 -35h-90q-39 0 -45 35l-275 1030l-270 -1030q-10 -35 -47 -35h-90q-37 0 -46 35l-401 1433q-6 20 3 34 t32 14h137q37 0 45 -35l291 -1035l270 1027q8 29 39 28h76q31 0 39 -28l270 -1027l291 1035q8 35 45 35h137z" glyph-name="Wgrave" horiz-adv-x="1875" unicode="Ẁ"/><glyph d="M913 1165l-327 174q-41 20 -19 62l43 76q23 43 62 20l325 -176q37 -23 19 -59l-41 -78q-19 -42 -62 -19zM786 963q8 27 39 26h68q31 0 39 -26l244 -641l249 669q10 33 45 33h132q49 0 32 -47l-364 -944q-12 -33 -49 -33h-72q-35 0 -47 33l-242 643l-246 -643 q-12 -33 -47 -33h-71q-35 0 -47 33l-369 944q-16 47 33 47h135q35 0 45 -33l250 -669z" glyph-name="wgrave" horiz-adv-x="1703" unicode="ẁ"/><glyph d="M813 1669l-41 78q-18 37 19 59l325 176q41 23 62 -20l43 -76q23 -39 -17 -61l-330 -174q-41 -25 -61 18zM1763 1516q23 0 32 -13.5t3 -34.5l-399 -1433q-8 -35 -47 -35h-90q-39 0 -45 35l-275 1030l-270 -1030q-10 -35 -47 -35h-90q-37 0 -46 35l-401 1433q-6 20 3 34 t32 14h137q37 0 45 -35l291 -1035l270 1027q8 29 39 28h76q31 0 39 -28l270 -1027l291 1035q8 35 45 35h137z" glyph-name="Wacute" horiz-adv-x="1875" unicode="Ẃ"/><glyph d="M727 1184l-41 78q-18 39 21 59l323 176q39 20 64 -20l41 -76q23 -39 -17 -62l-330 -174q-43 -22 -61 19zM786 963q8 27 39 26h68q31 0 39 -26l244 -641l249 669q10 33 45 33h132q49 0 32 -47l-364 -944q-12 -33 -49 -33h-72q-35 0 -47 33l-242 643l-246 -643 q-12 -33 -47 -33h-71q-35 0 -47 33l-369 944q-16 47 33 47h135q35 0 45 -33l250 -669z" glyph-name="wacute" horiz-adv-x="1703" unicode="ẃ"/><glyph d="M893 1716q0 -37 -27.5 -64.5t-66.5 -27.5t-65.5 27.5t-26.5 64.5q0 39 26.5 66.5t65.5 27.5t66.5 -27.5t27.5 -66.5zM1176 1716q0 -37 -27 -64.5t-66 -27.5t-65.5 27.5t-26.5 64.5q0 39 26.5 66.5t65.5 27.5t66 -27.5t27 -66.5zM1763 1516q23 0 32 -13.5t3 -34.5 l-399 -1433q-8 -35 -47 -35h-90q-39 0 -45 35l-275 1030l-270 -1030q-10 -35 -47 -35h-90q-37 0 -46 35l-401 1433q-6 20 3 34t32 14h137q37 0 45 -35l291 -1035l270 1027q8 29 39 28h76q31 0 39 -28l270 -1027l291 1035q8 35 45 35h137z" glyph-name="Wdieresis" horiz-adv-x="1875" unicode="Ẅ"/><glyph d="M807 1231q0 -37 -27.5 -64.5t-66.5 -27.5t-65.5 27.5t-26.5 64.5q0 39 26.5 66.5t65.5 27.5t66.5 -27.5t27.5 -66.5zM1090 1231q0 -37 -27 -64.5t-66 -27.5t-65.5 27.5t-26.5 64.5q0 39 26.5 66.5t65.5 27.5t66 -27.5t27 -66.5zM786 963q8 27 39 26h68q31 0 39 -26 l244 -641l249 669q10 33 45 33h132q49 0 32 -47l-364 -944q-12 -33 -49 -33h-72q-35 0 -47 33l-242 643l-246 -643q-12 -33 -47 -33h-71q-35 0 -47 33l-369 944q-16 47 33 47h135q35 0 45 -33l250 -669z" glyph-name="wdieresis" horiz-adv-x="1703" unicode="ẅ"/><glyph d="M700 1651l-329 174q-39 23 -19 61l43 76q23 43 62 20l325 -176q39 -23 19 -59l-41 -78q-21 -45 -60 -18zM1167 1516q25 0 33 -14.5t-4 -35.5l-444 -761v-660q0 -45 -45 -45h-113q-45 0 -45 45v660l-445 761q-12 20 -3.5 35t32.5 15h158q35 0 49 -29l309 -535l309 535 q16 29 50 29h159z" glyph-name="Ygrave" horiz-adv-x="1290" unicode="Ỳ"/><glyph d="M592 1165l-330 174q-37 23 -16 62l43 76q23 43 61 20l326 -176q37 -23 18 -59l-41 -78q-18 -42 -61 -19zM995 1024q49 0 33 -47l-418 -1014q-117 -285 -391 -379q-41 -12 -57 31l-37 98q-14 43 29 60q201 74 286 311l-366 893q-16 47 32 47h136q37 0 49 -33l260 -635 l258 635q12 33 47 33h139z" glyph-name="ygrave" horiz-adv-x="1132" unicode="ỳ"/><glyph d="M1294 506h-1142q-45 0 -46 45v123q0 45 46 45h1142q47 0 47 -45v-123q0 -45 -47 -45z" glyph-name="endash" horiz-adv-x="1445" unicode="–"/><glyph d="M219 1133q-43 0 -49 41l-72 292q-12 49 39 50h84q41 0 49 -39l74 -293q6 -23 -5 -37t-34 -14h-86z" glyph-name="quoteleft" horiz-adv-x="432" unicode="‘"/><glyph d="M262 1174q-6 -41 -49 -41h-86q-23 0 -34 14t-5 37l74 293q8 39 49 39h84q51 0 39 -50z" glyph-name="quoteright" horiz-adv-x="432" unicode="’"/><glyph d="M219 1133q-43 0 -49 41l-72 292q-12 49 39 50h84q41 0 49 -39l74 -293q6 -23 -5 -37t-34 -14h-86zM492 1133q-41 0 -52 41l-71 292q-12 49 39 50h84q43 0 51 -39l73 -293q10 -51 -38 -51h-86z" glyph-name="quotedblleft" horiz-adv-x="704" unicode="“"/><glyph d="M262 1174q-6 -41 -49 -41h-86q-23 0 -34 14t-5 37l74 293q8 39 49 39h84q51 0 39 -50zM535 1174q-10 -41 -52 -41h-84q-51 0 -41 51l74 293q8 39 51 39h84q51 0 39 -50z" glyph-name="quotedblright" horiz-adv-x="704" unicode="”"/><glyph d="M252 -113q-6 -39 -49 -39h-86q-51 0 -39 50l74 292q8 39 49 39h84q51 0 39 -49zM524 -113q-8 -39 -51 -39h-84q-51 0 -41 50l74 292q8 39 51 39h84q51 0 39 -49z" glyph-name="quotedblbase" horiz-adv-x="694" unicode="„"/><glyph d="M1059 975q45 0 45 -45v-101q0 -47 -45 -47h-381v-1132q0 -45 -45 -45h-101q-45 0 -45 45v1132h-376q-45 0 -45 47v101q0 45 45 45h376v495q0 45 45 46h101q45 0 45 -46v-495h381z" glyph-name="dagger" horiz-adv-x="1159" unicode="†"/><glyph d="M1059 623q45 0 45 -45v-101q0 -47 -45 -47h-381v-780q0 -45 -45 -45h-101q-45 0 -45 45v780h-376q-45 0 -45 47v101q0 45 45 45h376v159h-376q-45 0 -45 47v101q0 45 45 45h376v495q0 45 45 46h101q45 0 45 -46v-495h381q45 0 45 -45v-101q0 -47 -45 -47h-381v-159h381z " glyph-name="daggerdbl" horiz-adv-x="1159" unicode="‡"/><glyph d="M606 505.5q0 -108.5 -75.5 -184t-184 -75.5t-184.5 75.5t-76 184t76 184.5t184.5 76t184 -76t75.5 -184.5z" glyph-name="bullet" horiz-adv-x="692" unicode="•"/><glyph d="M422 844q-139 0 -237.5 98t-98.5 237.5t98.5 239t237.5 99.5t239.5 -99.5t100.5 -239t-100.5 -237.5t-239.5 -98zM477 0h-104q-27 0 -36 15.5t3 37.5l752 1430q14 33 53 33h104q27 0 35 -15.5t-2 -38.5l-752 -1429q-14 -33 -53 -33zM422 1337q-66 0 -112 -46t-46 -111 q0 -63 47 -110.5t111 -47.5q68 0 115 47t47 111q0 66 -47 111.5t-115 45.5zM1198 -2q-139 0 -238.5 98.5t-99.5 237.5t99.5 237.5t238.5 98.5t239.5 -98.5t100.5 -237.5t-100.5 -237.5t-239.5 -98.5zM1956 -2q-139 0 -238.5 98.5t-99.5 237.5t99.5 237.5t238.5 98.5 q141 0 239.5 -98.5t98.5 -237.5t-98.5 -237.5t-239.5 -98.5zM1198 492q-68 0 -114 -45.5t-46 -112.5q0 -66 47.5 -112t113 -46t112.5 46t47 112q0 68 -46 113t-114 45zM1955.5 492q-65.5 0 -111.5 -45.5t-46 -112.5q0 -66 46 -112t111.5 -46t112 46t46.5 112q0 68 -46.5 113 t-112 45z" glyph-name="perthousand" horiz-adv-x="2347" unicode="‰"/><glyph d="M614 186l-69 -67q-33 -33 -66 2l-362 364q-31 33 0 64l362 360q31 31 64 2l69 -65q33 -33 2 -64l-266 -266l268 -266q31 -31 -2 -64z" glyph-name="guilsinglleft" horiz-adv-x="722" unicode="‹"/><glyph d="M106 250l269 266l-266 266q-33 33 2 64l69 65q33 29 64 -2l362 -360q31 -31 0 -64l-362 -364q-33 -35 -66 -2l-69 67q-34 33 -3 64z" glyph-name="guilsinglright" horiz-adv-x="722" unicode="›"/><glyph d="M238 0h-111q-27 0 -35 16.5t6 38.5l881 1430q16 31 53 31h109q27 0 36 -16.5t-6 -39.5l-880 -1429q-16 -31 -53 -31z" glyph-name="fraction" horiz-adv-x="1259" unicode="⁄"/><glyph d="M410 614q-119 0 -206 86t-87 207v328q0 121 87 207t206 86q123 0 209 -86t86 -207v-328q0 -121 -86 -207t-209 -86zM270 1235v-328q0 -57 41 -99t98.5 -42t99.5 42t42 99v328q0 57 -42 99t-99.5 42t-98.5 -42t-41 -99z" glyph-name="uni2070" horiz-adv-x="821" unicode="⁰"/><glyph d="M686 918q33 0 33 -33v-78q0 -35 -33 -35h-65v-135q0 -35 -35 -35h-86q-35 0 -35 35v135h-356q-33 0 -33 35v88q0 23 14 43l393 555q16 23 43 23h60q35 0 35 -35v-563h65zM244 918h221v311z" glyph-name="uni2074" horiz-adv-x="794" unicode="⁴"/><glyph d="M365 1231q131 0 221 -91t90 -222q0 -129 -92 -222.5t-219 -93.5q-137 0 -236 109q-25 25 4 47l68 59q25 23 47 -4q49 -49 117 -49q66 0 111.5 45t45.5 110.5t-46 111.5t-111 46q-41 0 -76 -18q-27 -12 -47 0l-78 59q-20 12 -17 41l50 326q6 31 36 31h340q35 0 35 -35v-86 q0 -35 -35 -35h-241l-21 -137q38 8 54 8z" glyph-name="uni2075" horiz-adv-x="749" unicode="⁵"/><glyph d="M426 1231q127 0 219 -92t90 -221q0 -131 -92 -222.5t-223 -91.5q-129 0 -221.5 92t-92.5 224q0 84 37 145l254 424q18 29 47 12l74 -45q31 -14 12 -47l-108 -178h4zM420 758q68 0 115 47t47 112.5t-47.5 113.5t-113 48t-112.5 -48t-47 -111q0 -66 46 -114t112 -48z" glyph-name="uni2076" horiz-adv-x="831" unicode="⁶"/><glyph d="M573 1380q0 -23 -8 -41l-243 -710q-10 -27 -39 -27h-97q-39 0 -28 39l250 717h-320q-33 0 -33 35v88q0 35 33 35h451q35 0 34 -35v-101z" glyph-name="uni2077" horiz-adv-x="659" unicode="⁷"/><glyph d="M569 1124q109 -82 109 -223q0 -119 -84 -203t-203 -84t-202 84t-83 203q0 141 109 223q-63 68 -63 162q0 100 70.5 171t168.5 71q100 0 172 -71t72 -171q0 -92 -66 -162zM391 1380q-39 0 -66.5 -27.5t-27.5 -66.5t27.5 -66.5t66.5 -27.5q41 0 68.5 26.5t27.5 67.5 q0 39 -27.5 66.5t-68.5 27.5zM391 762q59 0 100 41t41 98t-40.5 99t-100.5 42q-57 0 -98 -42t-41 -99t41 -98t98 -41z" glyph-name="uni2078" horiz-adv-x="784" unicode="⁸"/><glyph d="M401 1528q129 0 221.5 -93.5t92.5 -222.5q0 -84 -37 -145l-254 -424q-16 -29 -47 -12l-74 43q-31 18 -12 47l108 178h-4q-127 0 -219 93t-90 222q0 129 92 221.5t223 92.5zM399.5 1053q65.5 0 112.5 47t47 112.5t-46 112.5t-112 47q-68 2 -114.5 -46t-46.5 -113.5 t47 -112.5t112.5 -47z" glyph-name="uni2079" horiz-adv-x="821" unicode="⁹"/><glyph d="M1290 96q12 -45 -28 -59q-147 -49 -285 -49q-246 0 -441.5 140t-279.5 361h-125q-45 0 -45 46v94q0 45 45 45h80q-4 29 -4 84t4 84h-80q-45 0 -45 45v94q0 45 45 45h125q84 221 281.5 361.5t441.5 140.5q141 0 272 -51q41 -18 25 -60l-33 -104q-16 -43 -57 -27 q-104 35 -207 35q-156 0 -288 -81t-206 -214h486q45 0 45 -45v-94q0 -45 -45 -45h-551q-8 -57 -8 -86q0 -47 8 -82h551q45 0 45 -45v-94q0 -45 -45 -46h-486q74 -131 204 -212.5t286 -81.5q100 0 221 38q43 14 57 -26z" glyph-name="Euro" horiz-adv-x="1378" unicode="€"/><glyph d="M498 1516q35 0 34 -35v-64q0 -33 -34 -33h-140v-602q0 -35 -34 -34h-62q-35 0 -35 34v602h-139q-33 0 -33 33v64q0 35 33 35h410zM1350 1516q33 0 32 -35v-699q0 -35 -32 -34h-64q-35 0 -35 34v424l-202 -409q-12 -23 -37 -23h-21q-23 0 -35 23l-204 409v-424 q0 -35 -33 -34h-64q-35 0 -34 34v699q0 35 34 35h47q27 0 39 -25l260 -530l263 530q10 25 39 25h47z" glyph-name="trademark" horiz-adv-x="1458" unicode="™"/><glyph d="M1075 483q0 -209 -144.5 -352t-350.5 -143q-205 0 -349.5 145.5t-144.5 347.5q0 207 145.5 352.5t350.5 145.5q162 0 288 -107v134q0 125 -89 215t-216 90h-178q-45 0 -45 45v114q0 45 45 46h160q223 0 374.5 -145.5t153.5 -364.5v-523zM579.5 193q120.5 0 205.5 84.5 t85 203.5q0 121 -85 206t-205.5 85t-205.5 -85t-85 -206t85 -204.5t205.5 -83.5z" glyph-name="partialdiff" horiz-adv-x="1179" unicode="∂"/><glyph d="M1141 219q8 -25 8 -55v-119q0 -45 -45 -45h-963q-45 0 -45 45v119q0 31 8 55l437 1260q12 37 51 37h61q39 0 52 -37zM297 193h651l-325 933z" glyph-name="uni2206" horiz-adv-x="1234" unicode="∆"/><glyph d="M1540 1516q45 0 45 -46v-116q0 -45 -45 -45h-219v-1659q0 -45 -47 -45h-115q-45 0 -45 45v1659h-559v-1659q0 -45 -45 -45h-117q-45 0 -45 45v1659h-217q-45 0 -45 45v116q0 45 45 46h1409z" glyph-name="product" horiz-adv-x="1658" unicode="∏"/><glyph d="M1034 -287h-913q-45 0 -45 45v131q0 25 18 56l461 688l-463 651q-16 27 -16 55v131q0 45 45 46h913q45 0 45 -46v-114q0 -45 -45 -45h-708l458 -647q25 -33 0 -64l-465 -682h715q45 0 45 -45v-115q0 -45 -45 -45z" glyph-name="summation" horiz-adv-x="1142" unicode="∑"/><glyph d="M1327 1516q23 0 32 -13.5t1 -34.5l-580 -1435q-12 -33 -49 -33h-61q-35 0 -47 33l-301 798h-211q-45 0 -45 46v102q0 45 45 45h307q39 0 51 -35l236 -629l456 1123q12 33 47 33h119z" glyph-name="radical" horiz-adv-x="1443" unicode="√"/><glyph d="M1430 965q164 0 282.5 -128t118.5 -307q0 -180 -119 -307t-285 -127q-225 0 -469 281q-236 -281 -469 -281q-166 0 -284.5 128t-118.5 306.5t119 306.5t280 128q240 0 473 -281q243 281 472 281zM487 289q160 0 351 241q-190 242 -351 242q-86 0 -148.5 -70.5t-62.5 -171 t62.5 -171t148.5 -70.5zM1427 289q86 0 147.5 70.5t61.5 171t-61.5 171t-147.5 70.5t-180 -74.5t-166 -167.5q72 -92 166 -166.5t180 -74.5z" glyph-name="infinity" horiz-adv-x="1904" unicode="∞"/><glyph d="M172 -397h-51q-45 0 -45 45v102q0 45 45 45h51q66 0 111 45t45 111v1179q0 166 112.5 276t270.5 110h53q45 0 45 -46v-102q0 -45 -45 -45h-53q-80 0 -136.5 -56.5t-56.5 -136.5v-1179q0 -152 -101.5 -250t-244.5 -98z" glyph-name="integral" horiz-adv-x="872" unicode="∫"/><glyph d="M1067 674q-225 -121 -498 -58q-4 0 -38.5 9.5t-51 12.5t-55.5 10t-66.5 8t-64.5 1t-72 -6t-67 -16q-47 -14 -48 33v86q0 37 33 49q82 29 170 30t140.5 -9.5t162.5 -37.5q219 -57 435 50q23 10 36 1.5t13 -30.5v-86q0 -33 -29 -47zM1067 340q-225 -121 -498 -55 q-2 0 -32.5 7t-44 10t-47 9t-55 8.5t-55.5 4.5t-60.5 0t-59.5 -7.5t-61 -15.5q-47 -14 -48 35v86q0 35 33 47q84 29 169 31t142.5 -9.5t161.5 -37.5q223 -55 435 49q23 10 36 2t13 -31v-84q0 -35 -29 -49z" glyph-name="approxequal" horiz-adv-x="1189" unicode="≈"/><glyph d="M1065 649h-328l-75 -153h403q45 0 45 -45v-97q0 -45 -45 -45h-496l-163 -329q-18 -41 -60 -19l-76 35q-39 23 -20 61l125 252h-223q-45 0 -46 45v97q0 45 46 45h315l78 153h-393q-45 0 -46 47v95q0 45 46 45h485l158 317q18 41 59 21l74 -37q39 -18 20 -60l-119 -241h236 q45 0 45 -45v-95q0 -47 -45 -47z" glyph-name="notequal" horiz-adv-x="1206" unicode="≠"/><glyph d="M926 305l-779 328q-29 10 -28 41v59q0 31 28 43l779 326q20 8 34.5 0t14.5 -31v-115q0 -33 -33 -47l-483 -204l483 -211q33 -12 33 -48v-110q0 -23 -14.5 -31t-34.5 0zM106 45v92q0 45 46 45h778q45 0 45 -45v-92q0 -45 -45 -45h-778q-46 0 -46 45z" glyph-name="lessequal" horiz-adv-x="1069" unicode="≤"/><glyph d="M96 336v110q0 35 31 48l485 211l-485 204q-31 14 -31 47v115q0 23 13.5 31t33.5 0l781 -326q29 -12 28 -43v-59q0 -31 -28 -41l-781 -328q-20 -8 -33.5 0t-13.5 31zM920 0h-779q-45 0 -45 45v92q0 45 45 45h779q45 0 45 -45v-92q0 -45 -45 -45z" glyph-name="greaterequal" horiz-adv-x="1069" unicode="≥"/><glyph d="M606 0h-53q-29 0 -39 23l-422 702q-18 31 0 61l422 707q10 23 39 23h53q29 0 41 -23l418 -707q18 -31 0 -61l-418 -702q-12 -23 -41 -23zM301 756l279 -471l280 471l-280 475z" glyph-name="lozenge" horiz-adv-x="1146" unicode="◊"/><glyph d="M121 0q-45 0 -45 45v1030q0 164 103.5 261.5t260.5 97.5h119q45 0 45 -45v-101q0 -47 -45 -47h-119q-68 0 -114.5 -47t-46.5 -113v-57h442v51q0 164 103.5 261.5t260.5 97.5h119q45 0 45 -45v-101q0 -47 -45 -47h-119q-66 0 -113.5 -47t-47.5 -113v-57h284q41 0 41 -41 v-92q0 -43 -41 -43h-284v-803q0 -45 -45 -45h-113q-45 0 -45 45v803h-442v-803q0 -45 -46 -45h-112z" glyph-name="f_f.dlig" horiz-adv-x="1312"/><glyph d="M121 0q-45 0 -45 45v1030q0 164 103.5 261.5t260.5 97.5h119q45 0 45 -45v-101q0 -47 -45 -47h-119q-68 0 -114.5 -47t-46.5 -113v-57h442v51q0 164 103.5 261.5t260.5 97.5h119q45 0 45 -45v-101q0 -47 -45 -47h-119q-66 0 -113.5 -47t-47.5 -113v-57h667q45 0 45 -45 v-934q0 -45 -45 -45h-114q-45 0 -45 45v803h-508v-803q0 -45 -45 -45h-113q-45 0 -45 45v803h-442v-803q0 -45 -46 -45h-112zM1407 1237q0 49 38 87t87 38q55 0 91 -37t36 -88q0 -55 -35 -90t-92 -35q-51 0 -88 36t-37 89z" glyph-name="f_f_i.dlig" horiz-adv-x="1746"/><glyph d="M121 0q-45 0 -45 45v1030q0 164 103.5 261.5t260.5 97.5h119q45 0 45 -45v-101q0 -47 -45 -47h-119q-68 0 -114.5 -47t-46.5 -113v-57h659q45 0 45 -45v-934q0 -45 -45 -45h-115q-45 0 -45 45v805h-499v-805q0 -45 -46 -45h-112zM879 1112q-49 0 -87 36t-38 89 q0 49 38.5 87t86.5 38q57 0 93 -37t36 -88q0 -55 -36 -90t-93 -35z" glyph-name="f_i.dlig" horiz-adv-x="1216"/><glyph d="M106 367v938q0 45 46 45h114q45 0 45 -45v-281h471v281q0 45 45 45h117q45 0 45 -45v-281h295q41 0 41 -41v-98q0 -41 -41 -41h-295v-479q0 -66 46 -112t112 -46h129q45 0 45 -45v-117q0 -45 -45 -45h-131q-164 0 -263.5 99.5t-99.5 267.5v477h-471v-479q0 -66 46 -112 t114 -46h127q45 0 45 -45v-117q0 -45 -45 -45h-131q-164 0 -262.5 98.5t-98.5 268.5z" glyph-name="t_t.dlig" horiz-adv-x="1380"/></font>
</defs>
</svg>
