<?xml version="1.0" encoding="utf-8"?>
<!-- Generator: Adobe Illustrator 19.2.1, SVG Export Plug-In . SVG Version: 6.00 Build 0)  -->
<!DOCTYPE svg PUBLIC "-//W3C//DTD SVG 1.1//EN" "http://www.w3.org/Graphics/SVG/1.1/DTD/svg11.dtd">
<svg version="1.1" id="Layer_1" xmlns="http://www.w3.org/2000/svg" xmlns:xlink="http://www.w3.org/1999/xlink" x="0px" y="0px"
	 viewBox="0 0 424 560" style="enable-background:new 0 0 424 560;" xml:space="preserve">
<metadata><?xpacket begin="﻿" id="W5M0MpCehiHzreSzNTczkc9d"?>
<x:xmpmeta xmlns:x="adobe:ns:meta/" x:xmptk="Adobe XMP Core 5.6-c111 79.158366, 2015/09/25-01:12:00        ">
   <rdf:RDF xmlns:rdf="http://www.w3.org/1999/02/22-rdf-syntax-ns#">
      <rdf:Description rdf:about=""/>
   </rdf:RDF>
</x:xmpmeta>
                                                                                                    
                                                                                                    
                                                                                                    
                                                                                                    
                                                                                                    
                                                                                                    
                                                                                                    
                                                                                                    
                                                                                                    
                                                                                                    
                                                                                                    
                                                                                                    
                                                                                                    
                                                                                                    
                                                                                                    
                                                                                                    
                                                                                                    
                                                                                                    
                                                                                                    
                                                                                                    
                           
<?xpacket end="w"?></metadata>
<g>
	<path d="M387.3,147.8h-51.9V75.6c0-5.3-4.3-9.6-9.6-9.6H95.7c-5.3,0-9.6,4.3-9.6,9.6v354.7c0,5.3,4.3,9.6,9.6,9.6h230.2
		c5.3,0,9.6-4.3,9.6-9.6v-90.9h51.9c5.3,0,9.6-4.3,9.6-9.6V157.4C396.9,152.1,392.6,147.8,387.3,147.8z M316.3,172.3l-3.9-5.3h3.9
		V172.3z M316.2,327.6c0,1.4-0.1,2.9-0.2,4.3l-38.2-51.8v-12.8l38.5,52.1v6.8C316.3,326.8,316.2,327.2,316.2,327.6z M119.4,363.2
		c-6.6-6.8-11-15-13-24l24,32.5C126.4,369.5,122.7,366.6,119.4,363.2z M134.2,373.6L105.7,335c-0.3-2.1-0.4-4.2-0.4-6.4v-7l41,55.5
		C142.1,376.6,138,375.4,134.2,373.6z M153.4,377.7c-1.5,0-3-0.1-4.5-0.2l-43.6-59.1v-12.8l53.2,72.1H153.4z M160.9,377.7
		l-55.6-75.3v-12.8l38.5,52.1v6.1c0,5.3,4.3,9.6,9.6,9.6c0.6,0,1.2-0.1,1.8-0.2l15.1,20.5H160.9z M109.2,167l34.6,46.9v12.8
		l-38.5-52.1V167H109.2z M258.7,167v7.2l-5.4-7.2H258.7z M250.9,167l7.7,10.5v12.8L241.5,167H250.9z M239.1,167l19.5,26.5v12.8
		l-29-39.2H239.1z M220.6,167h6.7l31.4,42.5v12.8l-38-51.5V167z M220.6,173.9l38,51.5v12.8l-38-51.5V173.9z M162.9,268.5v-12.8
		l38.5,52.2v12.8L162.9,268.5z M201.5,323.9v12.8l-38.5-52.2v-12.8L201.5,323.9z M162.9,252.6v-12.8l38.5,52.2v12.8L162.9,252.6z
		 M162.9,236.6v-12.8l38.5,52.2v12.8L162.9,236.6z M162.9,220.6v-12.8l38.5,52.2v12.8L162.9,220.6z M162.9,204.6v-12.8l38.5,52.2
		v12.8L162.9,204.6z M220.6,285.9l38,51.5v10.5c0,1,0.2,2,0.5,2.9l-38.5-52.1V285.9z M220.6,282.7v-12.8l38,51.5v12.8L220.6,282.7z
		 M220.6,266.7v-12.8l38,51.5v12.8L220.6,266.7z M220.6,250.7v-12.8l38,51.5v12.8L220.6,250.7z M220.6,234.7v-12.8l38,51.5v12.8
		L220.6,234.7z M220.6,218.7v-12.8l38,51.5v12.8L220.6,218.7z M220.6,202.7v-12.8l38,51.5v12.8L220.6,202.7z M201.5,167v9.8
		l-7.2-9.8H201.5z M191.9,167l9.6,13v12.8l-19-25.8H191.9z M180,167l21.4,29v12.8L170.6,167H180z M162.9,167h5.3l33.2,45v12.8
		l-38.5-52.2V167z M162.9,175.8l38.5,52.2v12.8l-38.5-52.2V175.8z M143.8,167v11.7l-8.6-11.7H143.8z M132.8,167l11,14.9v12.8
		L123.4,167H132.8z M121,167l22.8,30.9v12.8L111.5,167H121z M143.8,229.8v12.8l-38.5-52.1v-12.8L143.8,229.8z M143.8,245.8v12.8
		l-38.5-52.1v-12.8L143.8,245.8z M143.8,261.8v12.8l-38.5-52.1v-12.8L143.8,261.8z M143.8,277.8v12.8l-38.5-52.1v-12.8L143.8,277.8z
		 M143.8,293.8v12.8l-38.5-52.1v-12.8L143.8,293.8z M143.8,309.8v12.8l-38.5-52.1v-12.8L143.8,309.8z M143.8,325.8v12.8l-38.5-52.1
		v-12.8L143.8,325.8z M172.7,377.7l-15.6-21.1c2.5-1.1,4.4-3.1,5.3-5.6l19.7,26.7H172.7z M184.5,377.7l-21.6-29.3c0-0.2,0-0.4,0-0.6
		v-12.1l31,42H184.5z M196.3,377.7l-33.4-45.2v-12.8l42.8,58H196.3z M208.1,377.7l-45.2-61.2v-12.8l54.6,74H208.1z M219.9,377.7
		l-57-77.2v-12.8l38.5,52.2v7.9c0,5.3,4.3,9.6,9.6,9.6c1,0,2.1-0.2,3-0.5l15.3,20.8H219.9z M231.8,377.7l-15.9-21.6
		c2.4-1.4,4.1-3.7,4.6-6.5l20.7,28.1H231.8z M243.6,377.7l-23-31.1v-12.8l32.4,43.9H243.6z M255.4,377.7l-34.8-47.1v-12.8l44.2,59.9
		H255.4z M268.2,377.7h-1l-46.6-63.1v-12.8l55.5,75.1C273.5,377.5,270.9,377.7,268.2,377.7z M278.2,376.6l-15.4-20.9
		c1.6,1.1,3.5,1.7,5.5,1.7c1.6,0,3.1-0.4,4.4-1.1l13.1,17.7C283.3,375.2,280.8,376,278.2,376.6z M287.6,373.3l-13.3-18
		c2.2-1.8,3.6-4.4,3.6-7.4v-0.5l16.3,22.1C292.1,370.9,289.9,372.2,287.6,373.3z M295.7,368.4l-17.9-24.2v-12.8l23.6,32
		C299.7,365.2,297.8,366.9,295.7,368.4z M302.8,362l-25-33.8v-12.8l29.8,40.4C306.2,358,304.6,360,302.8,362z M308.8,354l-30.9-41.9
		v-12.8l34.7,47.1C311.5,349.1,310.2,351.6,308.8,354z M277.8,296.1v-12.8l37.9,51.3c-0.5,3.3-1.3,6.5-2.3,9.6L277.8,296.1z
		 M277.8,264.1v-12.8l38.5,52.1v12.8L277.8,264.1z M277.8,248.1v-12.8l38.5,52.1v12.8L277.8,248.1z M277.8,232.2v-12.8l38.5,52.1
		v12.8L277.8,232.2z M277.8,216.2v-12.8l38.5,52.1v12.8L277.8,216.2z M277.8,200.2v-12.8l38.5,52.1v12.8L277.8,200.2z M277.8,184.2
		v-12.8l38.5,52.1v12.8L277.8,184.2z M277.8,168.2V167h8.5l30,40.6v12.8L277.8,168.2z M288.7,167h9.4l18.1,24.6v12.8L288.7,167z
		 M300.6,167h9.4l6.3,8.6v12.8L300.6,167z M105.3,85.2h211.1v62.6H105.3V85.2z M316.3,420.7H105.3v-44.6c0.1,0.2,0.3,0.3,0.4,0.5
		c12.8,13.1,29.7,20.3,47.6,20.3h114.8c17.9,0,34.9-7.4,47.7-20.9c0.2-0.2,0.3-0.3,0.5-0.5V420.7z M377.8,320.3h-42.3V167h42.3
		V320.3z"/>
	<path d="M96.1,58.4c5.3,0,9.6-4.3,9.6-9.6c0-16,13-29,29-29c14.3,0,26.4,10.3,28.6,24.4c0.7,4.7,4.8,8.1,9.5,8.1
		c4.7,0,8.7-3.4,9.5-8.1c2.2-14.1,14.3-24.4,28.6-24.4c14.3,0,26.4,10.3,28.6,24.4c0.7,4.7,4.8,8.1,9.5,8.1c4.7,0,8.7-3.4,9.5-8.1
		c2.2-14.1,14.3-24.4,28.6-24.4c16,0,29,13,29,29c0,5.3,4.3,9.6,9.6,9.6s9.6-4.3,9.6-9.6c0-26.5-21.6-48.1-48.1-48.1
		c-15.4,0-29.2,7.2-38.1,18.6C240,7.9,226.2,0.7,210.8,0.7s-29.2,7.2-38.1,18.6c-8.8-11.4-22.7-18.6-38.1-18.6
		c-26.5,0-48.1,21.6-48.1,48.1C86.5,54.2,90.8,58.4,96.1,58.4z"/>
</g>
<g>
	<path d="M67.8,531.8H50.1c-2.4,0-4-0.9-5.2-2.7l-15.2-20.7l-2.4,3.1v16c0,2.7-1.6,4.3-4.2,4.3H8.6c-2.7,0-4.2-1.6-4.2-4.3v-90.7
		c0-2.7,1.6-4.2,4.2-4.2H23c2.7,0,4.2,1.6,4.2,4.2v42.9l14.3-16.4c1.4-1.7,3.1-2.4,5.4-2.4h16.9c3.7,0,5,2.6,2.4,5.2l-22.1,25.6
		l26.4,34.7C72.6,529.4,71.5,531.8,67.8,531.8z"/>
	<path d="M141.8,465.3v62.1c0,2.4-2,4.4-4.5,4.4h-10.9c-1.8,0-3.4-1.6-3.5-3.4c-5.4,2.7-11.1,4.5-17.6,4.5
		c-20.1,0-36.4-16.4-36.4-36.7c0-20.1,16.3-36.4,36.4-36.4c6.2,0,11.9,1.6,17.3,4.4c0.1-1.8,1.7-3.3,3.5-3.3h11.2
		C139.8,460.9,141.8,462.9,141.8,465.3z M119.4,496.2c0-7.5-6-13.6-13.6-13.6c-7.5,0-13.5,6.1-13.5,13.6c0,7.7,6,13.7,13.5,13.7
		C113.4,509.9,119.4,503.9,119.4,496.2z"/>
	<path d="M216.8,491v36.6c0,2.7-1.6,4.3-4.2,4.3h-14.2c-2.8,0-4.4-1.6-4.4-4.3V491c0-4.7-3.7-8.4-8.4-8.4c-4.7,0-8.5,3.7-8.5,8.4
		v36.6c0,2.7-1.6,4.3-4.3,4.3h-14.2c-2.7,0-4.2-1.6-4.2-4.3v-62.3c0-2.7,1.6-4.3,4.2-4.3h9.8c2.1,0,3.4,1.1,3.5,3.3
		c4.8-3,9.9-4.4,15.3-4.4C204,459.8,216.8,473.8,216.8,491z"/>
	<path d="M301.1,496.3c0,20.1-16.4,36.6-36.6,36.6c-4.7,0-9.6-0.8-13.6-2.5v25.5c0,2.7-1.6,4.2-4.2,4.2h-14.3
		c-2.7,0-4.2-1.6-4.2-4.2v-90.7c0-2.7,1.6-4.3,4.2-4.3h10.9c2.3,0,3.4,1.1,3.5,3.3c5.2-2.8,11.5-4.4,17.7-4.4
		C284.7,459.8,301.1,476.2,301.1,496.3z M277.6,496.3c0-7.2-6.2-13.5-13.5-13.5s-13.5,6.2-13.5,13.5c0,7.4,6.2,13.5,13.5,13.5
		S277.6,503.7,277.6,496.3z"/>
	<path d="M381.9,465.3v62.1c0,2.4-2,4.4-4.5,4.4h-10.9c-1.8,0-3.4-1.6-3.5-3.4c-5.4,2.7-11.1,4.5-17.6,4.5
		c-20.1,0-36.4-16.4-36.4-36.7c0-20.1,16.3-36.4,36.4-36.4c6.2,0,11.9,1.6,17.3,4.4c0.1-1.8,1.7-3.3,3.5-3.3h11.2
		C379.9,460.9,381.9,462.9,381.9,465.3z M359.5,496.2c0-7.5-6-13.6-13.6-13.6c-7.5,0-13.5,6.1-13.5,13.6c0,7.7,6,13.7,13.5,13.7
		C353.6,509.9,359.5,503.9,359.5,496.2z"/>
	<path d="M419.4,443.9c0,7.8-5.4,13-13.2,13c-6.8,0-12.9-5.2-12.9-13c0-6.7,6.1-12.8,12.9-12.8C414.1,431.2,419.4,437.3,419.4,443.9
		z M413.2,531.8h-13.7c-2.7,0-4.2-1.6-4.2-4.3v-62.3c0-2.7,1.6-4.3,4.2-4.3h13.7c2.7,0,4.4,1.6,4.4,4.3v62.3
		C417.6,530.2,415.9,531.8,413.2,531.8z"/>
</g>
</svg>
