<?xml version="1.0" encoding="utf-8"?>
<!-- Generator: Adobe Illustrator 19.2.1, SVG Export Plug-In . SVG Version: 6.00 Build 0)  -->
<!DOCTYPE svg PUBLIC "-//W3C//DTD SVG 1.1//EN" "http://www.w3.org/Graphics/SVG/1.1/DTD/svg11.dtd">
<svg version="1.1" id="Layer_1" xmlns="http://www.w3.org/2000/svg" xmlns:xlink="http://www.w3.org/1999/xlink" x="0px" y="0px"
	 viewBox="0 0 560 560" style="enable-background:new 0 0 560 560;" xml:space="preserve">
<metadata><?xpacket begin="﻿" id="W5M0MpCehiHzreSzNTczkc9d"?>
<x:xmpmeta xmlns:x="adobe:ns:meta/" x:xmptk="Adobe XMP Core 5.6-c111 79.158366, 2015/09/25-01:12:00        ">
   <rdf:RDF xmlns:rdf="http://www.w3.org/1999/02/22-rdf-syntax-ns#">
      <rdf:Description rdf:about=""/>
   </rdf:RDF>
</x:xmpmeta>
                                                                                                    
                                                                                                    
                                                                                                    
                                                                                                    
                                                                                                    
                                                                                                    
                                                                                                    
                                                                                                    
                                                                                                    
                                                                                                    
                                                                                                    
                                                                                                    
                                                                                                    
                                                                                                    
                                                                                                    
                                                                                                    
                                                                                                    
                                                                                                    
                                                                                                    
                                                                                                    
                           
<?xpacket end="w"?></metadata>
<style type="text/css">
	.st0{fill:#35E8B1;}
</style>
<g>
	<path class="st0" d="M168.7,219.2c5.2,0,7.8-1.8,10.2-3.4c2.1-1.4,3.8-2.6,7.4-2.6c3.6,0,5.3,1.1,7.4,2.6c2.4,1.6,5,3.4,10.2,3.4
		s7.8-1.8,10.2-3.4c2.1-1.4,3.8-2.6,7.4-2.6c3.6,0,5.3,1.1,7.4,2.6c2.4,1.6,5,3.4,10.2,3.4s7.8-1.8,10.2-3.4
		c2.1-1.4,3.8-2.6,7.4-2.6c3.6,0,5.3,1.1,7.4,2.6c2.4,1.6,5,3.4,10.2,3.4c5.2,0,7.8-1.8,10.2-3.4c2.1-1.4,3.8-2.6,7.4-2.6
		c3.6,0,5.3,1.1,7.4,2.6c2.4,1.6,5,3.4,10.2,3.4c5.2,0,7.8-1.8,10.2-3.4c2.1-1.4,3.8-2.6,7.4-2.6s5.3,1.1,7.4,2.6
		c2.4,1.6,5,3.4,10.2,3.4s7.8-1.8,10.2-3.4c2.1-1.4,3.8-2.6,7.4-2.6c3.6,0,5.3,1.1,7.4,2.6c2.4,1.6,5,3.4,10.2,3.4
		c5.2,0,7.8-1.8,10.2-3.4c2.1-1.4,3.8-2.6,7.4-2.6c0.2,0,0.4,0,0.7,0V212h-11.4c-1.9,1.3-3.6,2.2-6.9,2.2c-3.3,0-5-1-6.9-2.2h-21.4
		c-1.9,1.3-3.6,2.2-6.9,2.2c-3.3,0-5-1-6.9-2.2h-21.4c-1.9,1.3-3.6,2.2-6.9,2.2c-3.3,0-5-1-6.9-2.2h-21.4c-1.9,1.3-3.6,2.2-6.9,2.2
		c-3.3,0-5-1-6.9-2.2H246c-1.9,1.3-3.6,2.2-6.9,2.2s-5-1-6.9-2.2h-21.4c-1.9,1.3-3.6,2.2-6.9,2.2s-5-1-6.9-2.2h-21.4
		c-1.9,1.3-3.6,2.2-6.9,2.2s-5-1-6.9-2.2h-3.7v3.5c0.1,0.1,0.2,0.2,0.4,0.3C160.8,217.4,163.5,219.2,168.7,219.2z"/>
	<path class="st0" d="M168.7,230c5.2,0,7.8-1.8,10.2-3.4c2.1-1.4,3.8-2.6,7.4-2.6c3.6,0,5.3,1.1,7.4,2.6c2.4,1.6,5,3.4,10.2,3.4
		s7.8-1.8,10.2-3.4c2.1-1.4,3.8-2.6,7.4-2.6c3.6,0,5.3,1.1,7.4,2.6c2.4,1.6,5,3.4,10.2,3.4s7.8-1.8,10.2-3.4
		c2.1-1.4,3.8-2.6,7.4-2.6c3.6,0,5.3,1.1,7.4,2.6c2.4,1.6,5,3.4,10.2,3.4c5.2,0,7.8-1.8,10.2-3.4c2.1-1.4,3.8-2.6,7.4-2.6
		c3.6,0,5.3,1.1,7.4,2.6c2.4,1.6,5,3.4,10.2,3.4c5.2,0,7.8-1.8,10.2-3.4c2.1-1.4,3.8-2.6,7.4-2.6s5.3,1.1,7.4,2.6
		c2.4,1.6,5,3.4,10.2,3.4s7.8-1.8,10.2-3.4c2.1-1.4,3.8-2.6,7.4-2.6c3.6,0,5.3,1.1,7.4,2.6c2.4,1.6,5,3.4,10.2,3.4
		c5.2,0,7.8-1.8,10.2-3.4c2.1-1.4,3.8-2.6,7.4-2.6c0.2,0,0.4,0,0.7,0v-5c-0.2,0-0.4,0-0.7,0c-5.2,0-7.8,1.8-10.2,3.4
		c-2.1,1.4-3.8,2.6-7.4,2.6c-3.6,0-5.3-1.1-7.4-2.6c-2.4-1.6-5-3.4-10.2-3.4c-5.2,0-7.8,1.8-10.2,3.4c-2.1,1.4-3.8,2.6-7.4,2.6
		c-3.6,0-5.3-1.1-7.4-2.6c-2.4-1.6-5-3.4-10.2-3.4s-7.8,1.8-10.2,3.4c-2.1,1.4-3.8,2.6-7.4,2.6c-3.6,0-5.3-1.1-7.4-2.6
		c-2.4-1.6-5-3.4-10.2-3.4c-5.2,0-7.8,1.8-10.2,3.4c-2.1,1.4-3.8,2.6-7.4,2.6c-3.6,0-5.3-1.1-7.4-2.6c-2.4-1.6-5-3.4-10.2-3.4
		c-5.2,0-7.8,1.8-10.2,3.4c-2.1,1.4-3.8,2.6-7.4,2.6s-5.3-1.1-7.4-2.6c-2.4-1.6-5-3.4-10.2-3.4c-5.2,0-7.8,1.8-10.2,3.4
		c-2.1,1.4-3.8,2.6-7.4,2.6s-5.3-1.1-7.4-2.6c-2.4-1.6-5-3.4-10.2-3.4c-5.2,0-7.8,1.8-10.2,3.4c-2.1,1.4-3.8,2.6-7.4,2.6
		s-5.3-1.1-7.4-2.6c-1-0.7-2-1.3-3.2-1.9v5.8c0.1,0.1,0.2,0.2,0.4,0.3C160.8,228.1,163.5,230,168.7,230z"/>
	<path class="st0" d="M168.7,240.7c5.2,0,7.8-1.8,10.2-3.4c2.1-1.4,3.8-2.6,7.4-2.6c3.6,0,5.3,1.1,7.4,2.6c2.4,1.6,5,3.4,10.2,3.4
		s7.8-1.8,10.2-3.4c2.1-1.4,3.8-2.6,7.4-2.6c3.6,0,5.3,1.1,7.4,2.6c2.4,1.6,5,3.4,10.2,3.4s7.8-1.8,10.2-3.4
		c2.1-1.4,3.8-2.6,7.4-2.6c3.6,0,5.3,1.1,7.4,2.6c2.4,1.6,5,3.4,10.2,3.4c5.2,0,7.8-1.8,10.2-3.4c2.1-1.4,3.8-2.6,7.4-2.6
		c3.6,0,5.3,1.1,7.4,2.6c2.4,1.6,5,3.4,10.2,3.4c5.2,0,7.8-1.8,10.2-3.4c2.1-1.4,3.8-2.6,7.4-2.6s5.3,1.1,7.4,2.6
		c2.4,1.6,5,3.4,10.2,3.4s7.8-1.8,10.2-3.4c2.1-1.4,3.8-2.6,7.4-2.6c3.6,0,5.3,1.1,7.4,2.6c2.4,1.6,5,3.4,10.2,3.4
		c5.2,0,7.8-1.8,10.2-3.4c2.1-1.4,3.8-2.6,7.4-2.6c0.2,0,0.4,0,0.7,0v-5c-0.2,0-0.4,0-0.7,0c-5.2,0-7.8,1.8-10.2,3.4
		c-2.1,1.4-3.8,2.6-7.4,2.6c-3.6,0-5.3-1.1-7.4-2.6c-2.4-1.6-5-3.4-10.2-3.4c-5.2,0-7.8,1.8-10.2,3.4c-2.1,1.4-3.8,2.6-7.4,2.6
		c-3.6,0-5.3-1.1-7.4-2.6c-2.4-1.6-5-3.4-10.2-3.4s-7.8,1.8-10.2,3.4c-2.1,1.4-3.8,2.6-7.4,2.6c-3.6,0-5.3-1.1-7.4-2.6
		c-2.4-1.6-5-3.4-10.2-3.4c-5.2,0-7.8,1.8-10.2,3.4c-2.1,1.4-3.8,2.6-7.4,2.6c-3.6,0-5.3-1.1-7.4-2.6c-2.4-1.6-5-3.4-10.2-3.4
		c-5.2,0-7.8,1.8-10.2,3.4c-2.1,1.4-3.8,2.6-7.4,2.6s-5.3-1.1-7.4-2.6c-2.4-1.6-5-3.4-10.2-3.4c-5.2,0-7.8,1.8-10.2,3.4
		c-2.1,1.4-3.8,2.6-7.4,2.6s-5.3-1.1-7.4-2.6c-2.4-1.6-5-3.4-10.2-3.4c-5.2,0-7.8,1.8-10.2,3.4c-2.1,1.4-3.8,2.6-7.4,2.6
		s-5.3-1.1-7.4-2.6c-1-0.7-2-1.3-3.2-1.9v5.8c0.1,0.1,0.2,0.2,0.4,0.3C160.8,238.9,163.5,240.7,168.7,240.7z"/>
	<path class="st0" d="M168.7,251.4c5.2,0,7.8-1.8,10.2-3.4c2.1-1.4,3.8-2.6,7.4-2.6c3.6,0,5.3,1.1,7.4,2.6c2.4,1.6,5,3.4,10.2,3.4
		s7.8-1.8,10.2-3.4c2.1-1.4,3.8-2.6,7.4-2.6c3.6,0,5.3,1.1,7.4,2.6c2.4,1.6,5,3.4,10.2,3.4s7.8-1.8,10.2-3.4
		c2.1-1.4,3.8-2.6,7.4-2.6c3.6,0,5.3,1.1,7.4,2.6c2.4,1.6,5,3.4,10.2,3.4c5.2,0,7.8-1.8,10.2-3.4c2.1-1.4,3.8-2.6,7.4-2.6
		c3.6,0,5.3,1.1,7.4,2.6c2.4,1.6,5,3.4,10.2,3.4c5.2,0,7.8-1.8,10.2-3.4c2.1-1.4,3.8-2.6,7.4-2.6s5.3,1.1,7.4,2.6
		c2.4,1.6,5,3.4,10.2,3.4s7.8-1.8,10.2-3.4c2.1-1.4,3.8-2.6,7.4-2.6c3.6,0,5.3,1.1,7.4,2.6c2.4,1.6,5,3.4,10.2,3.4
		c5.2,0,7.8-1.8,10.2-3.4c2.1-1.4,3.8-2.6,7.4-2.6c0.2,0,0.4,0,0.7,0v-5c-0.2,0-0.4,0-0.7,0c-5.2,0-7.8,1.8-10.2,3.4
		c-2.1,1.4-3.8,2.6-7.4,2.6c-3.6,0-5.3-1.1-7.4-2.6c-2.4-1.6-5-3.4-10.2-3.4c-5.2,0-7.8,1.8-10.2,3.4c-2.1,1.4-3.8,2.6-7.4,2.6
		c-3.6,0-5.3-1.1-7.4-2.6c-2.4-1.6-5-3.4-10.2-3.4s-7.8,1.8-10.2,3.4c-2.1,1.4-3.8,2.6-7.4,2.6c-3.6,0-5.3-1.1-7.4-2.6
		c-2.4-1.6-5-3.4-10.2-3.4c-5.2,0-7.8,1.8-10.2,3.4c-2.1,1.4-3.8,2.6-7.4,2.6c-3.6,0-5.3-1.1-7.4-2.6c-2.4-1.6-5-3.4-10.2-3.4
		c-5.2,0-7.8,1.8-10.2,3.4c-2.1,1.4-3.8,2.6-7.4,2.6s-5.3-1.1-7.4-2.6c-2.4-1.6-5-3.4-10.2-3.4c-5.2,0-7.8,1.8-10.2,3.4
		c-2.1,1.4-3.8,2.6-7.4,2.6s-5.3-1.1-7.4-2.6c-2.4-1.6-5-3.4-10.2-3.4c-5.2,0-7.8,1.8-10.2,3.4c-2.1,1.4-3.8,2.6-7.4,2.6
		s-5.3-1.1-7.4-2.6c-1-0.7-2-1.3-3.2-1.9v5.8c0.1,0.1,0.2,0.2,0.4,0.3C160.8,249.6,163.5,251.4,168.7,251.4z"/>
	<path class="st0" d="M168.7,262.2c5.2,0,7.8-1.8,10.2-3.4c2.1-1.4,3.8-2.6,7.4-2.6c3.6,0,5.3,1.1,7.4,2.6c2.4,1.6,5,3.4,10.2,3.4
		s7.8-1.8,10.2-3.4c2.1-1.4,3.8-2.6,7.4-2.6c3.6,0,5.3,1.1,7.4,2.6c2.4,1.6,5,3.4,10.2,3.4s7.8-1.8,10.2-3.4
		c2.1-1.4,3.8-2.6,7.4-2.6c3.6,0,5.3,1.1,7.4,2.6c2.4,1.6,5,3.4,10.2,3.4c5.2,0,7.8-1.8,10.2-3.4c2.1-1.4,3.8-2.6,7.4-2.6
		c3.6,0,5.3,1.1,7.4,2.6c2.4,1.6,5,3.4,10.2,3.4c5.2,0,7.8-1.8,10.2-3.4c2.1-1.4,3.8-2.6,7.4-2.6s5.3,1.1,7.4,2.6
		c2.4,1.6,5,3.4,10.2,3.4s7.8-1.8,10.2-3.4c2.1-1.4,3.8-2.6,7.4-2.6c3.6,0,5.3,1.1,7.4,2.6c2.4,1.6,5,3.4,10.2,3.4
		c5.2,0,7.8-1.8,10.2-3.4c2.1-1.4,3.8-2.6,7.4-2.6c0.2,0,0.4,0,0.7,0v-5c-0.2,0-0.4,0-0.7,0c-5.2,0-7.8,1.8-10.2,3.4
		c-2.1,1.4-3.8,2.6-7.4,2.6c-3.6,0-5.3-1.1-7.4-2.6c-2.4-1.6-5-3.4-10.2-3.4c-5.2,0-7.8,1.8-10.2,3.4c-2.1,1.4-3.8,2.6-7.4,2.6
		c-3.6,0-5.3-1.1-7.4-2.6c-2.4-1.6-5-3.4-10.2-3.4s-7.8,1.8-10.2,3.4c-2.1,1.4-3.8,2.6-7.4,2.6c-3.6,0-5.3-1.1-7.4-2.6
		c-2.4-1.6-5-3.4-10.2-3.4c-5.2,0-7.8,1.8-10.2,3.4c-2.1,1.4-3.8,2.6-7.4,2.6c-3.6,0-5.3-1.1-7.4-2.6c-2.4-1.6-5-3.4-10.2-3.4
		c-5.2,0-7.8,1.8-10.2,3.4c-2.1,1.4-3.8,2.6-7.4,2.6s-5.3-1.1-7.4-2.6c-2.4-1.6-5-3.4-10.2-3.4c-5.2,0-7.8,1.8-10.2,3.4
		c-2.1,1.4-3.8,2.6-7.4,2.6s-5.3-1.1-7.4-2.6c-2.4-1.6-5-3.4-10.2-3.4c-5.2,0-7.8,1.8-10.2,3.4c-2.1,1.4-3.8,2.6-7.4,2.6
		s-5.3-1.1-7.4-2.6c-1-0.7-2-1.3-3.2-1.9v5.8c0.1,0.1,0.2,0.2,0.4,0.3C160.8,260.3,163.5,262.2,168.7,262.2z"/>
	<path class="st0" d="M168.7,272.9c5.2,0,7.8-1.8,10.2-3.4c2.1-1.4,3.8-2.6,7.4-2.6c3.6,0,5.3,1.1,7.4,2.6c2.4,1.6,5,3.4,10.2,3.4
		s7.8-1.8,10.2-3.4c2.1-1.4,3.8-2.6,7.4-2.6c3.6,0,5.3,1.1,7.4,2.6c2.4,1.6,5,3.4,10.2,3.4s7.8-1.8,10.2-3.4
		c2.1-1.4,3.8-2.6,7.4-2.6c3.6,0,5.3,1.1,7.4,2.6c2.4,1.6,5,3.4,10.2,3.4c5.2,0,7.8-1.8,10.2-3.4c2.1-1.4,3.8-2.6,7.4-2.6
		c3.6,0,5.3,1.1,7.4,2.6c2.4,1.6,5,3.4,10.2,3.4c5.2,0,7.8-1.8,10.2-3.4c2.1-1.4,3.8-2.6,7.4-2.6s5.3,1.1,7.4,2.6
		c2.4,1.6,5,3.4,10.2,3.4s7.8-1.8,10.2-3.4c2.1-1.4,3.8-2.6,7.4-2.6c3.6,0,5.3,1.1,7.4,2.6c2.4,1.6,5,3.4,10.2,3.4
		c5.2,0,7.8-1.8,10.2-3.4c2.1-1.4,3.8-2.6,7.4-2.6c0.2,0,0.4,0,0.7,0v-5c-0.2,0-0.4,0-0.7,0c-5.2,0-7.8,1.8-10.2,3.4
		c-2.1,1.4-3.8,2.6-7.4,2.6c-3.6,0-5.3-1.1-7.4-2.6c-2.4-1.6-5-3.4-10.2-3.4c-5.2,0-7.8,1.8-10.2,3.4c-2.1,1.4-3.8,2.6-7.4,2.6
		c-3.6,0-5.3-1.1-7.4-2.6c-2.4-1.6-5-3.4-10.2-3.4s-7.8,1.8-10.2,3.4c-2.1,1.4-3.8,2.6-7.4,2.6c-3.6,0-5.3-1.1-7.4-2.6
		c-2.4-1.6-5-3.4-10.2-3.4c-5.2,0-7.8,1.8-10.2,3.4c-2.1,1.4-3.8,2.6-7.4,2.6c-3.6,0-5.3-1.1-7.4-2.6c-2.4-1.6-5-3.4-10.2-3.4
		c-5.2,0-7.8,1.8-10.2,3.4c-2.1,1.4-3.8,2.6-7.4,2.6s-5.3-1.1-7.4-2.6c-2.4-1.6-5-3.4-10.2-3.4c-5.2,0-7.8,1.8-10.2,3.4
		c-2.1,1.4-3.8,2.6-7.4,2.6s-5.3-1.1-7.4-2.6c-2.4-1.6-5-3.4-10.2-3.4c-5.2,0-7.8,1.8-10.2,3.4c-2.1,1.4-3.8,2.6-7.4,2.6
		s-5.3-1.1-7.4-2.6c-1-0.7-2-1.3-3.2-1.9v5.8c0.1,0.1,0.2,0.2,0.4,0.3C160.8,271.1,163.5,272.9,168.7,272.9z"/>
	<path class="st0" d="M168.7,283.6c5.2,0,7.8-1.8,10.2-3.4c2.1-1.4,3.8-2.6,7.4-2.6c3.6,0,5.3,1.1,7.4,2.6c2.4,1.6,5,3.4,10.2,3.4
		s7.8-1.8,10.2-3.4c2.1-1.4,3.8-2.6,7.4-2.6c3.6,0,5.3,1.1,7.4,2.6c2.4,1.6,5,3.4,10.2,3.4s7.8-1.8,10.2-3.4
		c2.1-1.4,3.8-2.6,7.4-2.6c3.6,0,5.3,1.1,7.4,2.6c2.4,1.6,5,3.4,10.2,3.4c5.2,0,7.8-1.8,10.2-3.4c2.1-1.4,3.8-2.6,7.4-2.6
		c3.6,0,5.3,1.1,7.4,2.6c2.4,1.6,5,3.4,10.2,3.4c5.2,0,7.8-1.8,10.2-3.4c2.1-1.4,3.8-2.6,7.4-2.6s5.3,1.1,7.4,2.6
		c2.4,1.6,5,3.4,10.2,3.4s7.8-1.8,10.2-3.4c2.1-1.4,3.8-2.6,7.4-2.6c3.6,0,5.3,1.1,7.4,2.6c2.4,1.6,5,3.4,10.2,3.4
		c5.2,0,7.8-1.8,10.2-3.4c2.1-1.4,3.8-2.6,7.4-2.6c0.2,0,0.4,0,0.7,0v-5c-0.2,0-0.4,0-0.7,0c-5.2,0-7.8,1.8-10.2,3.4
		c-2.1,1.4-3.8,2.6-7.4,2.6c-3.6,0-5.3-1.1-7.4-2.6c-2.4-1.6-5-3.4-10.2-3.4c-5.2,0-7.8,1.8-10.2,3.4c-2.1,1.4-3.8,2.6-7.4,2.6
		c-3.6,0-5.3-1.1-7.4-2.6c-2.4-1.6-5-3.4-10.2-3.4s-7.8,1.8-10.2,3.4c-2.1,1.4-3.8,2.6-7.4,2.6c-3.6,0-5.3-1.1-7.4-2.6
		c-2.4-1.6-5-3.4-10.2-3.4c-5.2,0-7.8,1.8-10.2,3.4c-2.1,1.4-3.8,2.6-7.4,2.6c-3.6,0-5.3-1.1-7.4-2.6c-2.4-1.6-5-3.4-10.2-3.4
		c-5.2,0-7.8,1.8-10.2,3.4c-2.1,1.4-3.8,2.6-7.4,2.6s-5.3-1.1-7.4-2.6c-2.4-1.6-5-3.4-10.2-3.4c-5.2,0-7.8,1.8-10.2,3.4
		c-2.1,1.4-3.8,2.6-7.4,2.6s-5.3-1.1-7.4-2.6c-2.4-1.6-5-3.4-10.2-3.4c-5.2,0-7.8,1.8-10.2,3.4c-2.1,1.4-3.8,2.6-7.4,2.6
		s-5.3-1.1-7.4-2.6c-1-0.7-2-1.3-3.2-1.9v5.8c0.1,0.1,0.2,0.2,0.4,0.3C160.8,281.8,163.5,283.6,168.7,283.6z"/>
	<path class="st0" d="M168.7,294.4c5.2,0,7.8-1.8,10.2-3.4c2.1-1.4,3.8-2.6,7.4-2.6c3.6,0,5.3,1.1,7.4,2.6c2.4,1.6,5,3.4,10.2,3.4
		s7.8-1.8,10.2-3.4c2.1-1.4,3.8-2.6,7.4-2.6c3.6,0,5.3,1.1,7.4,2.6c2.4,1.6,5,3.4,10.2,3.4s7.8-1.8,10.2-3.4
		c2.1-1.4,3.8-2.6,7.4-2.6c3.6,0,5.3,1.1,7.4,2.6c2.4,1.6,5,3.4,10.2,3.4c5.2,0,7.8-1.8,10.2-3.4c2.1-1.4,3.8-2.6,7.4-2.6
		c3.6,0,5.3,1.1,7.4,2.6c2.4,1.6,5,3.4,10.2,3.4c5.2,0,7.8-1.8,10.2-3.4c2.1-1.4,3.8-2.6,7.4-2.6s5.3,1.1,7.4,2.6
		c2.4,1.6,5,3.4,10.2,3.4s7.8-1.8,10.2-3.4c2.1-1.4,3.8-2.6,7.4-2.6c3.6,0,5.3,1.1,7.4,2.6c2.4,1.6,5,3.4,10.2,3.4
		c5.2,0,7.8-1.8,10.2-3.4c2.1-1.4,3.8-2.6,7.4-2.6c0.2,0,0.4,0,0.7,0v-5c-0.2,0-0.4,0-0.7,0c-5.2,0-7.8,1.8-10.2,3.4
		c-2.1,1.4-3.8,2.6-7.4,2.6c-3.6,0-5.3-1.1-7.4-2.6c-2.4-1.6-5-3.4-10.2-3.4c-5.2,0-7.8,1.8-10.2,3.4c-2.1,1.4-3.8,2.6-7.4,2.6
		c-3.6,0-5.3-1.1-7.4-2.6c-2.4-1.6-5-3.4-10.2-3.4s-7.8,1.8-10.2,3.4c-2.1,1.4-3.8,2.6-7.4,2.6c-3.6,0-5.3-1.1-7.4-2.6
		c-2.4-1.6-5-3.4-10.2-3.4c-5.2,0-7.8,1.8-10.2,3.4c-2.1,1.4-3.8,2.6-7.4,2.6c-3.6,0-5.3-1.1-7.4-2.6c-2.4-1.6-5-3.4-10.2-3.4
		c-5.2,0-7.8,1.8-10.2,3.4c-2.1,1.4-3.8,2.6-7.4,2.6s-5.3-1.1-7.4-2.6c-2.4-1.6-5-3.4-10.2-3.4c-5.2,0-7.8,1.8-10.2,3.4
		c-2.1,1.4-3.8,2.6-7.4,2.6s-5.3-1.1-7.4-2.6c-2.4-1.6-5-3.4-10.2-3.4c-5.2,0-7.8,1.8-10.2,3.4c-2.1,1.4-3.8,2.6-7.4,2.6
		s-5.3-1.1-7.4-2.6c-1-0.7-2-1.3-3.2-1.9v5.8c0.1,0.1,0.2,0.2,0.4,0.3C160.8,292.6,163.5,294.4,168.7,294.4z"/>
	<path class="st0" d="M168.7,305.1c5.2,0,7.8-1.8,10.2-3.4c2.1-1.4,3.8-2.6,7.4-2.6c3.6,0,5.3,1.1,7.4,2.6c2.4,1.6,5,3.4,10.2,3.4
		s7.8-1.8,10.2-3.4c2.1-1.4,3.8-2.6,7.4-2.6c3.6,0,5.3,1.1,7.4,2.6c2.4,1.6,5,3.4,10.2,3.4s7.8-1.8,10.2-3.4
		c2.1-1.4,3.8-2.6,7.4-2.6c3.6,0,5.3,1.1,7.4,2.6c2.4,1.6,5,3.4,10.2,3.4c5.2,0,7.8-1.8,10.2-3.4c2.1-1.4,3.8-2.6,7.4-2.6
		c3.6,0,5.3,1.1,7.4,2.6c2.4,1.6,5,3.4,10.2,3.4c5.2,0,7.8-1.8,10.2-3.4c2.1-1.4,3.8-2.6,7.4-2.6s5.3,1.1,7.4,2.6
		c2.4,1.6,5,3.4,10.2,3.4s7.8-1.8,10.2-3.4c2.1-1.4,3.8-2.6,7.4-2.6c3.6,0,5.3,1.1,7.4,2.6c2.4,1.6,5,3.4,10.2,3.4
		c5.2,0,7.8-1.8,10.2-3.4c2.1-1.4,3.8-2.6,7.4-2.6c0.2,0,0.4,0,0.7,0v-5c-0.2,0-0.4,0-0.7,0c-5.2,0-7.8,1.8-10.2,3.4
		c-2.1,1.4-3.8,2.6-7.4,2.6c-3.6,0-5.3-1.1-7.4-2.6c-2.4-1.6-5-3.4-10.2-3.4c-5.2,0-7.8,1.8-10.2,3.4c-2.1,1.4-3.8,2.6-7.4,2.6
		c-3.6,0-5.3-1.1-7.4-2.6c-2.4-1.6-5-3.4-10.2-3.4s-7.8,1.8-10.2,3.4c-2.1,1.4-3.8,2.6-7.4,2.6c-3.6,0-5.3-1.1-7.4-2.6
		c-2.4-1.6-5-3.4-10.2-3.4c-5.2,0-7.8,1.8-10.2,3.4c-2.1,1.4-3.8,2.6-7.4,2.6c-3.6,0-5.3-1.1-7.4-2.6c-2.4-1.6-5-3.4-10.2-3.4
		c-5.2,0-7.8,1.8-10.2,3.4c-2.1,1.4-3.8,2.6-7.4,2.6s-5.3-1.1-7.4-2.6c-2.4-1.6-5-3.4-10.2-3.4c-5.2,0-7.8,1.8-10.2,3.4
		c-2.1,1.4-3.8,2.6-7.4,2.6s-5.3-1.1-7.4-2.6c-2.4-1.6-5-3.4-10.2-3.4c-5.2,0-7.8,1.8-10.2,3.4c-2.1,1.4-3.8,2.6-7.4,2.6
		s-5.3-1.1-7.4-2.6c-1-0.7-2-1.3-3.2-1.9v5.8c0.1,0.1,0.2,0.2,0.4,0.3C160.8,303.3,163.5,305.1,168.7,305.1z"/>
	<path class="st0" d="M168.7,315.8c5.2,0,7.8-1.8,10.2-3.4c2.1-1.4,3.8-2.6,7.4-2.6c3.6,0,5.3,1.1,7.4,2.6c2.4,1.6,5,3.4,10.2,3.4
		s7.8-1.8,10.2-3.4c2.1-1.4,3.8-2.6,7.4-2.6c3.6,0,5.3,1.1,7.4,2.6c2.4,1.6,5,3.4,10.2,3.4s7.8-1.8,10.2-3.4
		c2.1-1.4,3.8-2.6,7.4-2.6c3.6,0,5.3,1.1,7.4,2.6c2.4,1.6,5,3.4,10.2,3.4c5.2,0,7.8-1.8,10.2-3.4c2.1-1.4,3.8-2.6,7.4-2.6
		c3.6,0,5.3,1.1,7.4,2.6c2.4,1.6,5,3.4,10.2,3.4c5.2,0,7.8-1.8,10.2-3.4c2.1-1.4,3.8-2.6,7.4-2.6s5.3,1.1,7.4,2.6
		c2.4,1.6,5,3.4,10.2,3.4s7.8-1.8,10.2-3.4c2.1-1.4,3.8-2.6,7.4-2.6c3.6,0,5.3,1.1,7.4,2.6c2.4,1.6,5,3.4,10.2,3.4
		c5.2,0,7.8-1.8,10.2-3.4c2.1-1.4,3.8-2.6,7.4-2.6c0.2,0,0.4,0,0.7,0v-5c-0.2,0-0.4,0-0.7,0c-5.2,0-7.8,1.8-10.2,3.4
		c-2.1,1.4-3.8,2.6-7.4,2.6c-3.6,0-5.3-1.1-7.4-2.6c-2.4-1.6-5-3.4-10.2-3.4c-5.2,0-7.8,1.8-10.2,3.4c-2.1,1.4-3.8,2.6-7.4,2.6
		c-3.6,0-5.3-1.1-7.4-2.6c-2.4-1.6-5-3.4-10.2-3.4s-7.8,1.8-10.2,3.4c-2.1,1.4-3.8,2.6-7.4,2.6c-3.6,0-5.3-1.1-7.4-2.6
		c-2.4-1.6-5-3.4-10.2-3.4c-5.2,0-7.8,1.8-10.2,3.4c-2.1,1.4-3.8,2.6-7.4,2.6c-3.6,0-5.3-1.1-7.4-2.6c-2.4-1.6-5-3.4-10.2-3.4
		c-5.2,0-7.8,1.8-10.2,3.4c-2.1,1.4-3.8,2.6-7.4,2.6s-5.3-1.1-7.4-2.6c-2.4-1.6-5-3.4-10.2-3.4c-5.2,0-7.8,1.8-10.2,3.4
		c-2.1,1.4-3.8,2.6-7.4,2.6s-5.3-1.1-7.4-2.6c-2.4-1.6-5-3.4-10.2-3.4c-5.2,0-7.8,1.8-10.2,3.4c-2.1,1.4-3.8,2.6-7.4,2.6
		s-5.3-1.1-7.4-2.6c-1-0.7-2-1.3-3.2-1.9v5.8c0.1,0.1,0.2,0.2,0.4,0.3C160.8,314,163.5,315.8,168.7,315.8z"/>
	<path class="st0" d="M168.7,326.6c5.2,0,7.8-1.8,10.2-3.4c2.1-1.4,3.8-2.6,7.4-2.6c3.6,0,5.3,1.1,7.4,2.6c2.4,1.6,5,3.4,10.2,3.4
		s7.8-1.8,10.2-3.4c2.1-1.4,3.8-2.6,7.4-2.6c3.6,0,5.3,1.1,7.4,2.6c2.4,1.6,5,3.4,10.2,3.4s7.8-1.8,10.2-3.4
		c2.1-1.4,3.8-2.6,7.4-2.6c3.6,0,5.3,1.1,7.4,2.6c2.4,1.6,5,3.4,10.2,3.4c5.2,0,7.8-1.8,10.2-3.4c2.1-1.4,3.8-2.6,7.4-2.6
		c3.6,0,5.3,1.1,7.4,2.6c2.4,1.6,5,3.4,10.2,3.4c5.2,0,7.8-1.8,10.2-3.4c2.1-1.4,3.8-2.6,7.4-2.6s5.3,1.1,7.4,2.6
		c2.4,1.6,5,3.4,10.2,3.4s7.8-1.8,10.2-3.4c2.1-1.4,3.8-2.6,7.4-2.6c3.6,0,5.3,1.1,7.4,2.6c2.4,1.6,5,3.4,10.2,3.4
		c5.2,0,7.8-1.8,10.2-3.4c2.1-1.4,3.8-2.6,7.4-2.6c0.2,0,0.4,0,0.7,0v-5c-0.2,0-0.4,0-0.7,0c-5.2,0-7.8,1.8-10.2,3.4
		c-2.1,1.4-3.8,2.6-7.4,2.6c-3.6,0-5.3-1.1-7.4-2.6c-2.4-1.6-5-3.4-10.2-3.4c-5.2,0-7.8,1.8-10.2,3.4c-2.1,1.4-3.8,2.6-7.4,2.6
		c-3.6,0-5.3-1.1-7.4-2.6c-2.4-1.6-5-3.4-10.2-3.4s-7.8,1.8-10.2,3.4c-2.1,1.4-3.8,2.6-7.4,2.6c-3.6,0-5.3-1.1-7.4-2.6
		c-2.4-1.6-5-3.4-10.2-3.4c-5.2,0-7.8,1.8-10.2,3.4c-2.1,1.4-3.8,2.6-7.4,2.6c-3.6,0-5.3-1.1-7.4-2.6c-2.4-1.6-5-3.4-10.2-3.4
		c-5.2,0-7.8,1.8-10.2,3.4c-2.1,1.4-3.8,2.6-7.4,2.6s-5.3-1.1-7.4-2.6c-2.4-1.6-5-3.4-10.2-3.4c-5.2,0-7.8,1.8-10.2,3.4
		c-2.1,1.4-3.8,2.6-7.4,2.6s-5.3-1.1-7.4-2.6c-2.4-1.6-5-3.4-10.2-3.4c-5.2,0-7.8,1.8-10.2,3.4c-2.1,1.4-3.8,2.6-7.4,2.6
		s-5.3-1.1-7.4-2.6c-1-0.7-2-1.3-3.2-1.9v5.8c0.1,0.1,0.2,0.2,0.4,0.3C160.8,324.8,163.5,326.6,168.7,326.6z"/>
	<path class="st0" d="M168.7,337.3c5.2,0,7.8-1.8,10.2-3.4c2.1-1.4,3.8-2.6,7.4-2.6c3.6,0,5.3,1.1,7.4,2.6c2.4,1.6,5,3.4,10.2,3.4
		s7.8-1.8,10.2-3.4c2.1-1.4,3.8-2.6,7.4-2.6c3.6,0,5.3,1.1,7.4,2.6c2.4,1.6,5,3.4,10.2,3.4s7.8-1.8,10.2-3.4
		c2.1-1.4,3.8-2.6,7.4-2.6c3.6,0,5.3,1.1,7.4,2.6c2.4,1.6,5,3.4,10.2,3.4c5.2,0,7.8-1.8,10.2-3.4c2.1-1.4,3.8-2.6,7.4-2.6
		c3.6,0,5.3,1.1,7.4,2.6c2.4,1.6,5,3.4,10.2,3.4c5.2,0,7.8-1.8,10.2-3.4c2.1-1.4,3.8-2.6,7.4-2.6s5.3,1.1,7.4,2.6
		c2.4,1.6,5,3.4,10.2,3.4s7.8-1.8,10.2-3.4c2.1-1.4,3.8-2.6,7.4-2.6c3.6,0,5.3,1.1,7.4,2.6c2.4,1.6,5,3.4,10.2,3.4
		c5.2,0,7.8-1.8,10.2-3.4c2.1-1.4,3.8-2.6,7.4-2.6c0.2,0,0.4,0,0.7,0v-5c-0.2,0-0.4,0-0.7,0c-5.2,0-7.8,1.8-10.2,3.4
		c-2.1,1.4-3.8,2.6-7.4,2.6c-3.6,0-5.3-1.1-7.4-2.6c-2.4-1.6-5-3.4-10.2-3.4c-5.2,0-7.8,1.8-10.2,3.4c-2.1,1.4-3.8,2.6-7.4,2.6
		c-3.6,0-5.3-1.1-7.4-2.6c-2.4-1.6-5-3.4-10.2-3.4s-7.8,1.8-10.2,3.4c-2.1,1.4-3.8,2.6-7.4,2.6c-3.6,0-5.3-1.1-7.4-2.6
		c-2.4-1.6-5-3.4-10.2-3.4c-5.2,0-7.8,1.8-10.2,3.4c-2.1,1.4-3.8,2.6-7.4,2.6c-3.6,0-5.3-1.1-7.4-2.6c-2.4-1.6-5-3.4-10.2-3.4
		c-5.2,0-7.8,1.8-10.2,3.4c-2.1,1.4-3.8,2.6-7.4,2.6s-5.3-1.1-7.4-2.6c-2.4-1.6-5-3.4-10.2-3.4c-5.2,0-7.8,1.8-10.2,3.4
		c-2.1,1.4-3.8,2.6-7.4,2.6s-5.3-1.1-7.4-2.6c-2.4-1.6-5-3.4-10.2-3.4c-5.2,0-7.8,1.8-10.2,3.4c-2.1,1.4-3.8,2.6-7.4,2.6
		s-5.3-1.1-7.4-2.6c-1-0.7-2-1.3-3.2-1.9v5.8c0.1,0.1,0.2,0.2,0.4,0.3C160.8,335.5,163.5,337.3,168.7,337.3z"/>
	<path class="st0" d="M168.7,348.1c5.2,0,7.8-1.8,10.2-3.4c2.1-1.4,3.8-2.6,7.4-2.6c3.6,0,5.3,1.1,7.4,2.6c2.4,1.6,5,3.4,10.2,3.4
		s7.8-1.8,10.2-3.4c2.1-1.4,3.8-2.6,7.4-2.6c3.6,0,5.3,1.1,7.4,2.6c2.4,1.6,5,3.4,10.2,3.4s7.8-1.8,10.2-3.4
		c2.1-1.4,3.8-2.6,7.4-2.6c3.6,0,5.3,1.1,7.4,2.6c2.4,1.6,5,3.4,10.2,3.4c5.2,0,7.8-1.8,10.2-3.4c2.1-1.4,3.8-2.6,7.4-2.6
		c3.6,0,5.3,1.1,7.4,2.6c2.4,1.6,5,3.4,10.2,3.4c5.2,0,7.8-1.8,10.2-3.4c2.1-1.4,3.8-2.6,7.4-2.6s5.3,1.1,7.4,2.6
		c2.4,1.6,5,3.4,10.2,3.4s7.8-1.8,10.2-3.4c2.1-1.4,3.8-2.6,7.4-2.6c3.6,0,5.3,1.1,7.4,2.6c2.4,1.6,5,3.4,10.2,3.4
		c5.2,0,7.8-1.8,10.2-3.4c2.1-1.4,3.8-2.6,7.4-2.6c0.2,0,0.4,0,0.7,0v-5c-0.2,0-0.4,0-0.7,0c-5.2,0-7.8,1.8-10.2,3.4
		c-2.1,1.4-3.8,2.6-7.4,2.6c-3.6,0-5.3-1.1-7.4-2.6c-2.4-1.6-5-3.4-10.2-3.4c-5.2,0-7.8,1.8-10.2,3.4c-2.1,1.4-3.8,2.6-7.4,2.6
		c-3.6,0-5.3-1.1-7.4-2.6c-2.4-1.6-5-3.4-10.2-3.4s-7.8,1.8-10.2,3.4c-2.1,1.4-3.8,2.6-7.4,2.6c-3.6,0-5.3-1.1-7.4-2.6
		c-2.4-1.6-5-3.4-10.2-3.4c-5.2,0-7.8,1.8-10.2,3.4c-2.1,1.4-3.8,2.6-7.4,2.6c-3.6,0-5.3-1.1-7.4-2.6c-2.4-1.6-5-3.4-10.2-3.4
		c-5.2,0-7.8,1.8-10.2,3.4c-2.1,1.4-3.8,2.6-7.4,2.6s-5.3-1.1-7.4-2.6c-2.4-1.6-5-3.4-10.2-3.4c-5.2,0-7.8,1.8-10.2,3.4
		c-2.1,1.4-3.8,2.6-7.4,2.6s-5.3-1.1-7.4-2.6c-2.4-1.6-5-3.4-10.2-3.4c-5.2,0-7.8,1.8-10.2,3.4c-2.1,1.4-3.8,2.6-7.4,2.6
		s-5.3-1.1-7.4-2.6c-1-0.7-2-1.3-3.2-1.9v5.8c0.1,0.1,0.2,0.2,0.4,0.3C160.8,346.2,163.5,348.1,168.7,348.1z"/>
	<path class="st0" d="M168.7,358.8c5.2,0,7.8-1.8,10.2-3.4c2.1-1.4,3.8-2.6,7.4-2.6c3.6,0,5.3,1.1,7.4,2.6c2.4,1.6,5,3.4,10.2,3.4
		s7.8-1.8,10.2-3.4c2.1-1.4,3.8-2.6,7.4-2.6c3.6,0,5.3,1.1,7.4,2.6c2.4,1.6,5,3.4,10.2,3.4s7.8-1.8,10.2-3.4
		c2.1-1.4,3.8-2.6,7.4-2.6c3.6,0,5.3,1.1,7.4,2.6c2.4,1.6,5,3.4,10.2,3.4c5.2,0,7.8-1.8,10.2-3.4c2.1-1.4,3.8-2.6,7.4-2.6
		c3.6,0,5.3,1.1,7.4,2.6c2.4,1.6,5,3.4,10.2,3.4s7.8-1.8,10.2-3.4c2.1-1.4,3.8-2.6,7.4-2.6s5.3,1.1,7.4,2.6c2.4,1.6,5,3.4,10.2,3.4
		s7.8-1.8,10.2-3.4c2.1-1.4,3.8-2.6,7.4-2.6c3.6,0,5.3,1.1,7.4,2.6c2.4,1.6,5,3.4,10.2,3.4c5.2,0,7.8-1.8,10.2-3.4
		c2.1-1.4,3.8-2.6,7.4-2.6c0.2,0,0.4,0,0.7,0v-5c-0.2,0-0.4,0-0.7,0c-5.2,0-7.8,1.8-10.2,3.4c-2.1,1.4-3.8,2.6-7.4,2.6
		c-3.6,0-5.3-1.1-7.4-2.6c-2.4-1.6-5-3.4-10.2-3.4c-5.2,0-7.8,1.8-10.2,3.4c-2.1,1.4-3.8,2.6-7.4,2.6c-3.6,0-5.3-1.1-7.4-2.6
		c-2.4-1.6-5-3.4-10.2-3.4s-7.8,1.8-10.2,3.4c-2.1,1.4-3.8,2.6-7.4,2.6c-3.6,0-5.3-1.1-7.4-2.6c-2.4-1.6-5-3.4-10.2-3.4
		c-5.2,0-7.8,1.8-10.2,3.4c-2.1,1.4-3.8,2.6-7.4,2.6c-3.6,0-5.3-1.1-7.4-2.6c-2.4-1.6-5-3.4-10.2-3.4c-5.2,0-7.8,1.8-10.2,3.4
		c-2.1,1.4-3.8,2.6-7.4,2.6s-5.3-1.1-7.4-2.6c-2.4-1.6-5-3.4-10.2-3.4c-5.2,0-7.8,1.8-10.2,3.4c-2.1,1.4-3.8,2.6-7.4,2.6
		c-3.6,0-5.3-1.1-7.4-2.6c-2.4-1.6-5-3.4-10.2-3.4c-5.2,0-7.8,1.8-10.2,3.4c-2.1,1.4-3.8,2.6-7.4,2.6s-5.3-1.1-7.4-2.6
		c-1-0.7-2-1.3-3.2-1.9v5.8c0.1,0.1,0.2,0.2,0.4,0.3C160.8,357,163.5,358.8,168.7,358.8z"/>
	<path class="st0" d="M168.7,369.5c5.2,0,7.8-1.8,10.2-3.4c2.1-1.4,3.8-2.6,7.4-2.6c3.6,0,5.3,1.1,7.4,2.6c2.4,1.6,5,3.4,10.2,3.4
		s7.8-1.8,10.2-3.4c2.1-1.4,3.8-2.6,7.4-2.6c3.6,0,5.3,1.1,7.4,2.6c2.4,1.6,5,3.4,10.2,3.4s7.8-1.8,10.2-3.4
		c2.1-1.4,3.8-2.6,7.4-2.6c3.6,0,5.3,1.1,7.4,2.6c2.4,1.6,5,3.4,10.2,3.4c5.2,0,7.8-1.8,10.2-3.4c2.1-1.4,3.8-2.6,7.4-2.6
		c3.6,0,5.3,1.1,7.4,2.6c2.4,1.6,5,3.4,10.2,3.4c5.2,0,7.8-1.8,10.2-3.4c2.1-1.4,3.8-2.6,7.4-2.6s5.3,1.1,7.4,2.6
		c2.4,1.6,5,3.4,10.2,3.4s7.8-1.8,10.2-3.4c2.1-1.4,3.8-2.6,7.4-2.6c3.6,0,5.3,1.1,7.4,2.6c2.4,1.6,5,3.4,10.2,3.4
		c5.2,0,7.8-1.8,10.2-3.4c2.1-1.4,3.8-2.6,7.4-2.6c0.2,0,0.4,0,0.7,0v-5c-0.2,0-0.4,0-0.7,0c-5.2,0-7.8,1.8-10.2,3.4
		c-2.1,1.4-3.8,2.6-7.4,2.6c-3.6,0-5.3-1.1-7.4-2.6c-2.4-1.6-5-3.4-10.2-3.4c-5.2,0-7.8,1.8-10.2,3.4c-2.1,1.4-3.8,2.6-7.4,2.6
		c-3.6,0-5.3-1.1-7.4-2.6c-2.4-1.6-5-3.4-10.2-3.4s-7.8,1.8-10.2,3.4c-2.1,1.4-3.8,2.6-7.4,2.6c-3.6,0-5.3-1.1-7.4-2.6
		c-2.4-1.6-5-3.4-10.2-3.4c-5.2,0-7.8,1.8-10.2,3.4c-2.1,1.4-3.8,2.6-7.4,2.6c-3.6,0-5.3-1.1-7.4-2.6c-2.4-1.6-5-3.4-10.2-3.4
		c-5.2,0-7.8,1.8-10.2,3.4c-2.1,1.4-3.8,2.6-7.4,2.6s-5.3-1.1-7.4-2.6c-2.4-1.6-5-3.4-10.2-3.4c-5.2,0-7.8,1.8-10.2,3.4
		c-2.1,1.4-3.8,2.6-7.4,2.6s-5.3-1.1-7.4-2.6c-2.4-1.6-5-3.4-10.2-3.4c-5.2,0-7.8,1.8-10.2,3.4c-2.1,1.4-3.8,2.6-7.4,2.6
		s-5.3-1.1-7.4-2.6c-1-0.7-2-1.3-3.2-1.9v5.8c0.1,0.1,0.2,0.2,0.4,0.3C160.8,367.7,163.5,369.5,168.7,369.5z"/>
	<path class="st0" d="M168.7,380.3c5.2,0,7.8-1.8,10.2-3.4c2.1-1.4,3.8-2.6,7.4-2.6c3.6,0,5.3,1.1,7.4,2.6c2.4,1.6,5,3.4,10.2,3.4
		s7.8-1.8,10.2-3.4c2.1-1.4,3.8-2.6,7.4-2.6c3.6,0,5.3,1.1,7.4,2.6c2.4,1.6,5,3.4,10.2,3.4s7.8-1.8,10.2-3.4
		c2.1-1.4,3.8-2.6,7.4-2.6c3.6,0,5.3,1.1,7.4,2.6c2.4,1.6,5,3.4,10.2,3.4c5.2,0,7.8-1.8,10.2-3.4c2.1-1.4,3.8-2.6,7.4-2.6
		c3.6,0,5.3,1.1,7.4,2.6c2.4,1.6,5,3.4,10.2,3.4c5.2,0,7.8-1.8,10.2-3.4c2.1-1.4,3.8-2.6,7.4-2.6s5.3,1.1,7.4,2.6
		c2.4,1.6,5,3.4,10.2,3.4s7.8-1.8,10.2-3.4c2.1-1.4,3.8-2.6,7.4-2.6c3.6,0,5.3,1.1,7.4,2.6c2.4,1.6,5,3.4,10.2,3.4
		c5.2,0,7.8-1.8,10.2-3.4c2.1-1.4,3.8-2.6,7.4-2.6c0.2,0,0.4,0,0.7,0v-5c-0.2,0-0.4,0-0.7,0c-5.2,0-7.8,1.8-10.2,3.4
		c-2.1,1.4-3.8,2.6-7.4,2.6c-3.6,0-5.3-1.1-7.4-2.6c-2.4-1.6-5-3.4-10.2-3.4c-5.2,0-7.8,1.8-10.2,3.4c-2.1,1.4-3.8,2.6-7.4,2.6
		c-3.6,0-5.3-1.1-7.4-2.6c-2.4-1.6-5-3.4-10.2-3.4s-7.8,1.8-10.2,3.4c-2.1,1.4-3.8,2.6-7.4,2.6c-3.6,0-5.3-1.1-7.4-2.6
		c-2.4-1.6-5-3.4-10.2-3.4c-5.2,0-7.8,1.8-10.2,3.4c-2.1,1.4-3.8,2.6-7.4,2.6c-3.6,0-5.3-1.1-7.4-2.6c-2.4-1.6-5-3.4-10.2-3.4
		c-5.2,0-7.8,1.8-10.2,3.4c-2.1,1.4-3.8,2.6-7.4,2.6s-5.3-1.1-7.4-2.6c-2.4-1.6-5-3.4-10.2-3.4c-5.2,0-7.8,1.8-10.2,3.4
		c-2.1,1.4-3.8,2.6-7.4,2.6s-5.3-1.1-7.4-2.6c-2.4-1.6-5-3.4-10.2-3.4c-5.2,0-7.8,1.8-10.2,3.4c-2.1,1.4-3.8,2.6-7.4,2.6
		s-5.3-1.1-7.4-2.6c-1-0.7-2-1.3-3.2-1.9v5.8c0.1,0.1,0.2,0.2,0.4,0.3C160.8,378.4,163.5,380.3,168.7,380.3z"/>
	<path class="st0" d="M168.7,391c5.2,0,7.8-1.8,10.2-3.4c2.1-1.4,3.8-2.6,7.4-2.6c3.6,0,5.3,1.1,7.4,2.6c2.4,1.6,5,3.4,10.2,3.4
		s7.8-1.8,10.2-3.4c2.1-1.4,3.8-2.6,7.4-2.6c3.6,0,5.3,1.1,7.4,2.6c2.4,1.6,5,3.4,10.2,3.4s7.8-1.8,10.2-3.4
		c2.1-1.4,3.8-2.6,7.4-2.6c3.6,0,5.3,1.1,7.4,2.6c2.4,1.6,5,3.4,10.2,3.4c5.2,0,7.8-1.8,10.2-3.4c2.1-1.4,3.8-2.6,7.4-2.6
		c3.6,0,5.3,1.1,7.4,2.6c2.4,1.6,5,3.4,10.2,3.4c5.2,0,7.8-1.8,10.2-3.4c2.1-1.4,3.8-2.6,7.4-2.6s5.3,1.1,7.4,2.6
		c2.4,1.6,5,3.4,10.2,3.4s7.8-1.8,10.2-3.4c2.1-1.4,3.8-2.6,7.4-2.6c3.6,0,5.3,1.1,7.4,2.6c2.4,1.6,5,3.4,10.2,3.4
		c5.2,0,7.8-1.8,10.2-3.4c2.1-1.4,3.8-2.6,7.4-2.6c0.2,0,0.4,0,0.7,0v-5c-0.2,0-0.4,0-0.7,0c-5.2,0-7.8,1.8-10.2,3.4
		c-2.1,1.4-3.8,2.6-7.4,2.6c-3.6,0-5.3-1.1-7.4-2.6c-2.4-1.6-5-3.4-10.2-3.4c-5.2,0-7.8,1.8-10.2,3.4c-2.1,1.4-3.8,2.6-7.4,2.6
		c-3.6,0-5.3-1.1-7.4-2.6c-2.4-1.6-5-3.4-10.2-3.4s-7.8,1.8-10.2,3.4c-2.1,1.4-3.8,2.6-7.4,2.6c-3.6,0-5.3-1.1-7.4-2.6
		c-2.4-1.6-5-3.4-10.2-3.4c-5.2,0-7.8,1.8-10.2,3.4c-2.1,1.4-3.8,2.6-7.4,2.6c-3.6,0-5.3-1.1-7.4-2.6c-2.4-1.6-5-3.4-10.2-3.4
		c-5.2,0-7.8,1.8-10.2,3.4c-2.1,1.4-3.8,2.6-7.4,2.6s-5.3-1.1-7.4-2.6c-2.4-1.6-5-3.4-10.2-3.4c-5.2,0-7.8,1.8-10.2,3.4
		c-2.1,1.4-3.8,2.6-7.4,2.6s-5.3-1.1-7.4-2.6c-2.4-1.6-5-3.4-10.2-3.4c-5.2,0-7.8,1.8-10.2,3.4c-2.1,1.4-3.8,2.6-7.4,2.6
		s-5.3-1.1-7.4-2.6c-1-0.7-2-1.3-3.2-1.9v5.8c0.1,0.1,0.2,0.2,0.4,0.3C160.8,389.2,163.5,391,168.7,391z"/>
	<path class="st0" d="M178.9,398.3c2.1-1.4,3.8-2.6,7.4-2.6c3.6,0,5.3,1.1,7.4,2.6c2.4,1.6,5,3.4,10.2,3.4s7.8-1.8,10.2-3.4
		c2.1-1.4,3.8-2.6,7.4-2.6c3.6,0,5.3,1.1,7.4,2.6c2.4,1.6,5,3.4,10.2,3.4s7.8-1.8,10.2-3.4c2.1-1.4,3.8-2.6,7.4-2.6
		c3.6,0,5.3,1.1,7.4,2.6c2.4,1.6,5,3.4,10.2,3.4c5.2,0,7.8-1.8,10.2-3.4c2.1-1.4,3.8-2.6,7.4-2.6c3.6,0,5.3,1.1,7.4,2.6
		c2.4,1.6,5,3.4,10.2,3.4c5.2,0,7.8-1.8,10.2-3.4c2.1-1.4,3.8-2.6,7.4-2.6s5.3,1.1,7.4,2.6c2.4,1.6,5,3.4,10.2,3.4s7.8-1.8,10.2-3.4
		c2.1-1.4,3.8-2.6,7.4-2.6c3.6,0,5.3,1.1,7.4,2.6c2.4,1.6,5,3.4,10.2,3.4c5.2,0,7.8-1.8,10.2-3.4c2.1-1.4,3.8-2.6,7.4-2.6
		c0.1,0,0.2,0,0.4,0c0.2-1.7,0.2-3.3,0.3-5c-0.2,0-0.4,0-0.6,0c-5.2,0-7.8,1.8-10.2,3.4c-2.1,1.4-3.8,2.6-7.4,2.6
		c-3.6,0-5.3-1.1-7.4-2.6c-2.4-1.6-5-3.4-10.2-3.4c-5.2,0-7.8,1.8-10.2,3.4c-2.1,1.4-3.8,2.6-7.4,2.6c-3.6,0-5.3-1.1-7.4-2.6
		c-2.4-1.6-5-3.4-10.2-3.4s-7.8,1.8-10.2,3.4c-2.1,1.4-3.8,2.6-7.4,2.6c-3.6,0-5.3-1.1-7.4-2.6c-2.4-1.6-5-3.4-10.2-3.4
		c-5.2,0-7.8,1.8-10.2,3.4c-2.1,1.4-3.8,2.6-7.4,2.6c-3.6,0-5.3-1.1-7.4-2.6c-2.4-1.6-5-3.4-10.2-3.4c-5.2,0-7.8,1.8-10.2,3.4
		c-2.1,1.4-3.8,2.6-7.4,2.6s-5.3-1.1-7.4-2.6c-2.4-1.6-5-3.4-10.2-3.4c-5.2,0-7.8,1.8-10.2,3.4c-2.1,1.4-3.8,2.6-7.4,2.6
		s-5.3-1.1-7.4-2.6c-2.4-1.6-5-3.4-10.2-3.4c-5.2,0-7.8,1.8-10.2,3.4c-2.1,1.4-3.8,2.6-7.4,2.6s-5.3-1.1-7.4-2.6
		c-0.8-0.6-1.7-1.1-2.6-1.6c0.1,2.1,0.3,4.3,0.7,6.4c2.2,1.4,4.8,2.8,9.3,2.8C173.8,401.7,176.5,399.9,178.9,398.3z"/>
	<path class="st0" d="M178.9,409c2.1-1.4,3.8-2.6,7.4-2.6c3.6,0,5.3,1.1,7.4,2.6c2.4,1.6,5,3.4,10.2,3.4s7.8-1.8,10.2-3.4
		c2.1-1.4,3.8-2.6,7.4-2.6c3.6,0,5.3,1.1,7.4,2.6c2.4,1.6,5,3.4,10.2,3.4s7.8-1.8,10.2-3.4c2.1-1.4,3.8-2.6,7.4-2.6
		c3.6,0,5.3,1.1,7.4,2.6c2.4,1.6,5,3.4,10.2,3.4c5.2,0,7.8-1.8,10.2-3.4c2.1-1.4,3.8-2.6,7.4-2.6c3.6,0,5.3,1.1,7.4,2.6
		c2.4,1.6,5,3.4,10.2,3.4c5.2,0,7.8-1.8,10.2-3.4c2.1-1.4,3.8-2.6,7.4-2.6s5.3,1.1,7.4,2.6c2.4,1.6,5,3.4,10.2,3.4s7.8-1.8,10.2-3.4
		c2.1-1.4,3.8-2.6,7.4-2.6c3.6,0,5.3,1.1,7.4,2.6c2.4,1.6,5,3.4,10.2,3.4c5.2,0,7.8-1.8,10.2-3.4c1.8-1.2,3.2-2.2,5.8-2.5
		c0.5-1.7,0.8-3.4,1.2-5.1c-4.9,0.1-7.5,1.9-9.8,3.4c-2.1,1.4-3.8,2.6-7.4,2.6c-3.6,0-5.3-1.1-7.4-2.6c-2.4-1.6-5-3.4-10.2-3.4
		c-5.2,0-7.8,1.8-10.2,3.4c-2.1,1.4-3.8,2.6-7.4,2.6c-3.6,0-5.3-1.1-7.4-2.6c-2.4-1.6-5-3.4-10.2-3.4s-7.8,1.8-10.2,3.4
		c-2.1,1.4-3.8,2.6-7.4,2.6c-3.6,0-5.3-1.1-7.4-2.6c-2.4-1.6-5-3.4-10.2-3.4c-5.2,0-7.8,1.8-10.2,3.4c-2.1,1.4-3.8,2.6-7.4,2.6
		c-3.6,0-5.3-1.1-7.4-2.6c-2.4-1.6-5-3.4-10.2-3.4c-5.2,0-7.8,1.8-10.2,3.4c-2.1,1.4-3.8,2.6-7.4,2.6s-5.3-1.1-7.4-2.6
		c-2.4-1.6-5-3.4-10.2-3.4c-5.2,0-7.8,1.8-10.2,3.4c-2.1,1.4-3.8,2.6-7.4,2.6s-5.3-1.1-7.4-2.6c-2.4-1.6-5-3.4-10.2-3.4
		c-5.2,0-7.8,1.8-10.2,3.4c-2.1,1.4-3.8,2.6-7.4,2.6s-5.3-1.1-7.4-2.6c-0.3-0.2-0.5-0.4-0.8-0.5c0.6,2.4,1.4,4.8,2.2,7.1
		c1.6,0.6,3.5,1,6,1C173.8,412.5,176.5,410.6,178.9,409z"/>
	<path class="st0" d="M186.3,417.2c3.6,0,5.3,1.1,7.4,2.6c2.4,1.6,5,3.4,10.2,3.4s7.8-1.8,10.2-3.4c2.1-1.4,3.8-2.6,7.4-2.6
		c3.6,0,5.3,1.1,7.4,2.6c2.4,1.6,5,3.4,10.2,3.4s7.8-1.8,10.2-3.4c2.1-1.4,3.8-2.6,7.4-2.6c3.6,0,5.3,1.1,7.4,2.6
		c2.4,1.6,5,3.4,10.2,3.4c5.2,0,7.8-1.8,10.2-3.4c2.1-1.4,3.8-2.6,7.4-2.6c3.6,0,5.3,1.1,7.4,2.6c2.4,1.6,5,3.4,10.2,3.4
		c5.2,0,7.8-1.8,10.2-3.4c2.1-1.4,3.8-2.6,7.4-2.6s5.3,1.1,7.4,2.6c2.4,1.6,5,3.4,10.2,3.4s7.8-1.8,10.2-3.4
		c2.1-1.4,3.8-2.6,7.4-2.6c3.6,0,5.3,1.1,7.4,2.6c2.4,1.6,5,3.4,10.2,3.4c5.2,0,7.8-1.8,10.2-3.4c0.3-0.2,0.6-0.4,0.9-0.6
		c1.1-2.1,2.1-4.3,2.9-6.6c-3,0.6-4.9,1.9-6.7,3.1c-2.1,1.4-3.8,2.6-7.4,2.6c-3.6,0-5.3-1.1-7.4-2.6c-2.4-1.6-5-3.4-10.2-3.4
		c-5.2,0-7.8,1.8-10.2,3.4c-2.1,1.4-3.8,2.6-7.4,2.6c-3.6,0-5.3-1.1-7.4-2.6c-2.4-1.6-5-3.4-10.2-3.4s-7.8,1.8-10.2,3.4
		c-2.1,1.4-3.8,2.6-7.4,2.6c-3.6,0-5.3-1.1-7.4-2.6c-2.4-1.6-5-3.4-10.2-3.4c-5.2,0-7.8,1.8-10.2,3.4c-2.1,1.4-3.8,2.6-7.4,2.6
		c-3.6,0-5.3-1.1-7.4-2.6c-2.4-1.6-5-3.4-10.2-3.4c-5.2,0-7.8,1.8-10.2,3.4c-2.1,1.4-3.8,2.6-7.4,2.6s-5.3-1.1-7.4-2.6
		c-2.4-1.6-5-3.4-10.2-3.4c-5.2,0-7.8,1.8-10.2,3.4c-2.1,1.4-3.8,2.6-7.4,2.6s-5.3-1.1-7.4-2.6c-2.4-1.6-5-3.4-10.2-3.4
		c-5.2,0-7.8,1.8-10.2,3.4c-2.1,1.4-3.8,2.6-7.4,2.6c-1.2,0-2.2-0.1-3.1-0.4c0.9,1.8,2,3.6,3.1,5.4c5.2,0,7.8-1.8,10.2-3.4
		C181,418.3,182.6,417.2,186.3,417.2z"/>
	<path class="st0" d="M186.3,427.9c3.6,0,5.3,1.1,7.4,2.6c2.4,1.6,5,3.4,10.2,3.4s7.8-1.8,10.2-3.4c2.1-1.4,3.8-2.6,7.4-2.6
		c3.6,0,5.3,1.1,7.4,2.6c2.4,1.6,5,3.4,10.2,3.4s7.8-1.8,10.2-3.4c2.1-1.4,3.8-2.6,7.4-2.6c3.6,0,5.3,1.1,7.4,2.6
		c2.4,1.6,5,3.4,10.2,3.4c5.2,0,7.8-1.8,10.2-3.4c2.1-1.4,3.8-2.6,7.4-2.6c3.6,0,5.3,1.1,7.4,2.6c2.4,1.6,5,3.4,10.2,3.4
		c5.2,0,7.8-1.8,10.2-3.4c2.1-1.4,3.8-2.6,7.4-2.6s5.3,1.1,7.4,2.6c2.4,1.6,5,3.4,10.2,3.4s7.8-1.8,10.2-3.4
		c2.1-1.4,3.8-2.6,7.4-2.6c3.6,0,5.3,1.1,7.4,2.6c2.4,1.6,5,3.4,10.2,3.4c0.2,0,0.4,0,0.6,0c2-2.1,3.9-4.4,5.6-6.8
		c-1.7,1.1-3.3,1.8-6.3,1.8c-3.6,0-5.3-1.1-7.4-2.6c-2.4-1.6-5-3.4-10.2-3.4c-5.2,0-7.8,1.8-10.2,3.4c-2.1,1.4-3.8,2.6-7.4,2.6
		c-3.6,0-5.3-1.1-7.4-2.6c-2.4-1.6-5-3.4-10.2-3.4s-7.8,1.8-10.2,3.4c-2.1,1.4-3.8,2.6-7.4,2.6c-3.6,0-5.3-1.1-7.4-2.6
		c-2.4-1.6-5-3.4-10.2-3.4c-5.2,0-7.8,1.8-10.2,3.4c-2.1,1.4-3.8,2.6-7.4,2.6c-3.6,0-5.3-1.1-7.4-2.6c-2.4-1.6-5-3.4-10.2-3.4
		c-5.2,0-7.8,1.8-10.2,3.4c-2.1,1.4-3.8,2.6-7.4,2.6s-5.3-1.1-7.4-2.6c-2.4-1.6-5-3.4-10.2-3.4c-5.2,0-7.8,1.8-10.2,3.4
		c-2.1,1.4-3.8,2.6-7.4,2.6s-5.3-1.1-7.4-2.6c-2.4-1.6-5-3.4-10.2-3.4c-5.2,0-7.8,1.8-10.2,3.4c-1.2,0.8-2.3,1.5-3.7,2
		c1.1,1.4,2.2,2.7,3.4,4c1.2-0.6,2.2-1.2,3.1-1.9C181,429.1,182.6,427.9,186.3,427.9z"/>
	<path class="st0" d="M193.7,441.2c2.4,1.6,5,3.4,10.2,3.4s7.8-1.8,10.2-3.4c2.1-1.4,3.8-2.6,7.4-2.6c3.6,0,5.3,1.1,7.4,2.6
		c2.4,1.6,5,3.4,10.2,3.4s7.8-1.8,10.2-3.4c2.1-1.4,3.8-2.6,7.4-2.6c3.6,0,5.3,1.1,7.4,2.6c2.4,1.6,5,3.4,10.2,3.4
		c5.2,0,7.8-1.8,10.2-3.4c2.1-1.4,3.8-2.6,7.4-2.6c3.6,0,5.3,1.1,7.4,2.6c2.4,1.6,5,3.4,10.2,3.4c5.2,0,7.8-1.8,10.2-3.4
		c2.1-1.4,3.8-2.6,7.4-2.6s5.3,1.1,7.4,2.6c2.4,1.6,5,3.4,10.2,3.4s7.8-1.8,10.2-3.4c2.1-1.4,3.8-2.6,7.4-2.6c3.6,0,5.3,1.1,7.4,2.6
		c0.4,0.3,0.8,0.6,1.3,0.8c1.5-1,3-2.1,4.4-3.3c-1-0.4-1.9-1-2.8-1.7c-2.4-1.6-5-3.4-10.2-3.4c-5.2,0-7.8,1.8-10.2,3.4
		c-2.1,1.4-3.8,2.6-7.4,2.6c-3.6,0-5.3-1.1-7.4-2.6c-2.4-1.6-5-3.4-10.2-3.4s-7.8,1.8-10.2,3.4c-2.1,1.4-3.8,2.6-7.4,2.6
		c-3.6,0-5.3-1.1-7.4-2.6c-2.4-1.6-5-3.4-10.2-3.4c-5.2,0-7.8,1.8-10.2,3.4c-2.1,1.4-3.8,2.6-7.4,2.6c-3.6,0-5.3-1.1-7.4-2.6
		c-2.4-1.6-5-3.4-10.2-3.4c-5.2,0-7.8,1.8-10.2,3.4c-2.1,1.4-3.8,2.6-7.4,2.6s-5.3-1.1-7.4-2.6c-2.4-1.6-5-3.4-10.2-3.4
		c-5.2,0-7.8,1.8-10.2,3.4c-2.1,1.4-3.8,2.6-7.4,2.6s-5.3-1.1-7.4-2.6c-2.4-1.6-5-3.4-10.2-3.4c-3.3,0-5.6,0.8-7.5,1.7
		c1.4,1.3,2.8,2.5,4.2,3.7c0.9-0.3,1.9-0.4,3.2-0.4C189.9,438.7,191.6,439.8,193.7,441.2z"/>
	<path class="st0" d="M327,449.4c3.6,0,5.3,1.1,7.4,2.6c0,0,0,0,0,0h4.6c9.9,0,19.2-2.6,27.3-7.1c-1.2-0.3-2.5-0.5-4.1-0.5
		c-5.2,0-7.8,1.8-10.2,3.4c-2.1,1.4-3.8,2.6-7.4,2.6c-3.6,0-5.3-1.1-7.4-2.6c-2.4-1.6-5-3.4-10.2-3.4s-7.8,1.8-10.2,3.4
		c-2.1,1.4-3.8,2.6-7.4,2.6c-3.6,0-5.3-1.1-7.4-2.6c-2.4-1.6-5-3.4-10.2-3.4c-5.2,0-7.8,1.8-10.2,3.4c-2.1,1.4-3.8,2.6-7.4,2.6
		c-3.6,0-5.3-1.1-7.4-2.6c-2.4-1.6-5-3.4-10.2-3.4c-5.2,0-7.8,1.8-10.2,3.4c-2.1,1.4-3.8,2.6-7.4,2.6s-5.3-1.1-7.4-2.6
		c-2.4-1.6-5-3.4-10.2-3.4c-5.2,0-7.8,1.8-10.2,3.4c-1.7,1.2-3.2,2.1-5.7,2.5c2.9,0.7,5.8,1.2,8.8,1.5c2-1.3,3.6-2.4,7.1-2.4
		c3.6,0,5.3,1.1,7.4,2.6c0,0,0,0,0,0h20.3c0,0,0,0,0,0c2.1-1.4,3.8-2.6,7.4-2.6c3.6,0,5.3,1.1,7.4,2.6c0,0,0,0,0,0h20.3c0,0,0,0,0,0
		c2.1-1.4,3.8-2.6,7.4-2.6c3.6,0,5.3,1.1,7.4,2.6c0,0,0,0,0,0h20.3c0,0,0,0,0,0C321.8,450.5,323.4,449.4,327,449.4z"/>
</g>
<g>
	<path d="M453.1,201H409v-75.4c0-5.5-4.5-10-10-10H158.7c-5.5,0-10,4.5-10,10v370.2c0,5.5,4.5,10,10,10H399c5.5,0,10-4.5,10-10V401
		h44.1c5.5,0,10-4.5,10-10V211C463.1,205.5,458.6,201,453.1,201z M168.8,201v-65h220v65H168.8z M168.7,221h40.2v188.8
		c0,5.5,4.5,10,10,10s10-4.5,10-10V221h40.2v188.8c0,5.5,4.5,10,10,10s10-4.5,10-10V221h39.7v188.8c0,5.5,4.5,10,10,10s10-4.5,10-10
		V221H389v166.4c-0.1,0.4-0.1,0.9-0.1,1.3c0,28.4-23,52.3-50.2,52.3H218.9c-13.3,0-25.9-5.4-35.4-15.1c-9.5-9.8-14.8-22.6-14.8-36.1
		V221z M168.7,485.8v-46.5c0.2,0.2,0.3,0.3,0.5,0.5c13.3,13.7,31,21.2,49.7,21.2h119.8c18.7,0,36.4-7.7,49.8-21.8
		c0.2-0.2,0.3-0.3,0.5-0.5v47.2H168.7z M443.1,381H409V221h34.1V381z"/>
	<path d="M159.1,107.8c5.5,0,10-4.5,10-10c0-16.7,13.6-30.2,30.2-30.2c15,0,27.5,10.7,29.9,25.5c0.8,4.9,5,8.4,9.9,8.4
		s9.1-3.6,9.9-8.4c2.3-14.8,14.9-25.5,29.9-25.5s27.5,10.7,29.9,25.5c0.8,4.9,5,8.4,9.9,8.4s9.1-3.6,9.9-8.4
		c2.3-14.8,14.9-25.5,29.9-25.5c16.7,0,30.2,13.6,30.2,30.2c0,5.5,4.5,10,10,10s10-4.5,10-10c0-27.7-22.5-50.2-50.2-50.2
		c-16.1,0-30.5,7.5-39.8,19.4c-9.2-11.9-23.6-19.4-39.8-19.4s-30.5,7.5-39.8,19.4c-9.2-11.9-23.6-19.4-39.8-19.4
		c-27.7,0-50.2,22.5-50.2,50.2C149.1,103.3,153.6,107.8,159.1,107.8z"/>
</g>
</svg>
